M48
;DRILL file {KiCad 5.0.2} date seg 07 out 2019 10:21:57 -03
;FORMAT={-:-/ absolute / inch / decimal}
FMAT,2
INCH,TZ
T1C0.0197
T2C0.0315
T3C0.0394
T4C0.0400
T5C0.0472
%
G90
G05
T1
X5.3445Y-4.3657
X5.3445Y-4.415
X5.3445Y-4.4642
X5.3445Y-4.5134
X3.6961Y-4.4657
X3.7453Y-4.4657
X3.7945Y-4.4657
X5.5461Y-2.9157
X5.5953Y-2.9157
X5.6445Y-2.9157
X3.6945Y-4.0657
X3.7437Y-4.0657
X3.7929Y-4.0657
X3.6961Y-3.2657
X3.7453Y-3.2657
X3.7945Y-3.2657
X5.5461Y-3.3157
X5.5953Y-3.3157
X5.6445Y-3.3157
X3.6961Y-4.2657
X3.7453Y-4.2657
X3.7945Y-4.2657
X5.5461Y-2.7157
X5.5953Y-2.7157
X5.6445Y-2.7157
X3.6945Y-3.0657
X3.7437Y-3.0657
X3.7929Y-3.0657
X3.6945Y-3.6657
X3.7437Y-3.6657
X3.7929Y-3.6657
X3.6961Y-3.4657
X3.7453Y-3.4657
X3.7945Y-3.4657
X3.6961Y-3.8657
X3.7453Y-3.8657
X3.7945Y-3.8657
X3.6945Y-2.8657
X3.7437Y-2.8657
X3.7929Y-2.8657
X3.6961Y-2.6657
X3.7453Y-2.6657
X3.7945Y-2.6657
X5.5461Y-3.1157
X5.5953Y-3.1157
X5.6445Y-3.1157
T2
X3.9945Y-3.0157
X3.9945Y-3.1157
X3.9945Y-3.2157
X3.9945Y-3.3157
X3.9945Y-3.4157
X3.9945Y-3.5157
X3.9945Y-3.6157
X3.9945Y-3.7157
X3.9945Y-3.8157
X3.9945Y-3.9157
X4.2945Y-3.0157
X4.2945Y-3.1157
X4.2945Y-3.2157
X4.2945Y-3.3157
X4.2945Y-3.4157
X4.2945Y-3.5157
X4.2945Y-3.6157
X4.2945Y-3.7157
X4.2945Y-3.8157
X4.2945Y-3.9157
X4.6945Y-3.0157
X4.6945Y-3.1157
X4.6945Y-3.2157
X4.6945Y-3.3157
X4.6945Y-3.4157
X4.6945Y-3.5157
X4.6945Y-3.6157
X4.6945Y-3.7157
X4.6945Y-3.8157
X4.6945Y-3.9157
X4.6945Y-4.0157
T3
X4.2445Y-4.1657
X4.2445Y-4.2657
X4.2445Y-4.3657
X4.2445Y-4.4657
X4.4945Y-2.6157
X4.4945Y-2.7157
X4.4945Y-2.8157
X4.4945Y-2.9157
X4.4945Y-4.0157
X4.4945Y-4.1157
X4.4945Y-4.2157
X4.4945Y-4.3157
X5.0945Y-2.6157
X5.0945Y-3.3157
X5.0945Y-3.4157
X5.0945Y-3.5157
X5.0945Y-3.6157
X5.0945Y-3.7157
X5.0945Y-3.8157
X5.0945Y-4.1157
X5.0945Y-4.2157
T4
X4.4945Y-3.0157
X4.4945Y-3.1157
X4.4945Y-3.2157
X4.4945Y-3.3157
X4.4945Y-3.4157
X4.4945Y-3.5157
X4.4945Y-3.6157
X4.4945Y-3.7157
X4.4945Y-3.8157
X4.4945Y-3.9157
X4.4945Y-4.4157
X4.4945Y-4.5157
X5.0945Y-2.7157
X5.0945Y-2.8157
X5.0945Y-2.9157
X5.0945Y-3.0157
X5.0945Y-3.1157
X5.0945Y-3.2157
X5.0945Y-3.9157
X5.0945Y-4.0157
X5.0945Y-4.3157
X5.0945Y-4.4157
X5.0945Y-4.5157
T5
X5.4445Y-4.2157
X5.5445Y-4.2157
X5.6445Y-4.2157
X5.5945Y-4.5657
X5.6945Y-4.5657
T0
M30
