G04 #@! TF.GenerationSoftware,KiCad,Pcbnew,5.0.2*
G04 #@! TF.CreationDate,2019-10-07T10:21:51-03:00*
G04 #@! TF.ProjectId,passavfp,70617373-6176-4667-902e-6b696361645f,rev?*
G04 #@! TF.SameCoordinates,Original*
G04 #@! TF.FileFunction,Soldermask,Top*
G04 #@! TF.FilePolarity,Negative*
%FSLAX46Y46*%
G04 Gerber Fmt 4.6, Leading zero omitted, Abs format (unit mm)*
G04 Created by KiCad (PCBNEW 5.0.2) date seg 07 out 2019 10:21:51 -03*
%MOMM*%
%LPD*%
G01*
G04 APERTURE LIST*
%ADD10C,0.100000*%
G04 APERTURE END LIST*
D10*
G36*
X144820547Y-114432326D02*
X144933450Y-114466575D01*
X144994157Y-114484990D01*
X145052514Y-114516183D01*
X145154155Y-114570511D01*
X145294396Y-114685604D01*
X145409489Y-114825844D01*
X145444729Y-114891774D01*
X145495010Y-114985842D01*
X145504403Y-115016806D01*
X145547674Y-115159452D01*
X145561000Y-115294756D01*
X145561000Y-116645244D01*
X145547674Y-116780548D01*
X145512565Y-116896287D01*
X145495010Y-116954158D01*
X145449298Y-117039679D01*
X145409489Y-117114156D01*
X145294396Y-117254396D01*
X145154156Y-117369489D01*
X145091244Y-117403116D01*
X144994158Y-117455010D01*
X144948200Y-117468951D01*
X144820548Y-117507674D01*
X144640000Y-117525456D01*
X144459453Y-117507674D01*
X144331801Y-117468951D01*
X144285843Y-117455010D01*
X144188757Y-117403116D01*
X144125845Y-117369489D01*
X143985605Y-117254396D01*
X143870512Y-117114156D01*
X143830703Y-117039679D01*
X143784991Y-116954158D01*
X143767436Y-116896287D01*
X143732327Y-116780548D01*
X143719001Y-116645244D01*
X143719000Y-115294757D01*
X143732326Y-115159453D01*
X143784990Y-114985844D01*
X143784990Y-114985843D01*
X143835271Y-114891775D01*
X143870511Y-114825845D01*
X143985604Y-114685604D01*
X144125844Y-114570511D01*
X144205313Y-114528034D01*
X144285842Y-114484990D01*
X144346549Y-114466575D01*
X144459452Y-114432326D01*
X144640000Y-114414544D01*
X144820547Y-114432326D01*
X144820547Y-114432326D01*
G37*
G36*
X142879020Y-114422979D02*
X142911966Y-114432974D01*
X142942335Y-114449206D01*
X142968951Y-114471049D01*
X142990794Y-114497665D01*
X143007026Y-114528034D01*
X143017021Y-114560980D01*
X143021000Y-114601386D01*
X143021000Y-117338614D01*
X143017021Y-117379020D01*
X143007026Y-117411966D01*
X142990794Y-117442335D01*
X142968951Y-117468951D01*
X142942335Y-117490794D01*
X142911966Y-117507026D01*
X142879020Y-117517021D01*
X142838614Y-117521000D01*
X141361386Y-117521000D01*
X141320980Y-117517021D01*
X141288034Y-117507026D01*
X141257665Y-117490794D01*
X141231049Y-117468951D01*
X141209206Y-117442335D01*
X141192974Y-117411966D01*
X141182979Y-117379020D01*
X141179000Y-117338614D01*
X141179000Y-114601386D01*
X141182979Y-114560980D01*
X141192974Y-114528034D01*
X141209206Y-114497665D01*
X141231049Y-114471049D01*
X141257665Y-114449206D01*
X141288034Y-114432974D01*
X141320980Y-114422979D01*
X141361386Y-114419000D01*
X142838614Y-114419000D01*
X142879020Y-114422979D01*
X142879020Y-114422979D01*
G37*
G36*
X114397142Y-113918242D02*
X114545102Y-113979530D01*
X114558052Y-113988183D01*
X114678257Y-114068501D01*
X114791499Y-114181743D01*
X114817939Y-114221314D01*
X114880470Y-114314898D01*
X114941758Y-114462858D01*
X114973000Y-114619925D01*
X114973000Y-114780075D01*
X114941758Y-114937142D01*
X114908759Y-115016807D01*
X114880471Y-115085100D01*
X114791499Y-115218257D01*
X114678257Y-115331499D01*
X114635937Y-115359776D01*
X114545102Y-115420470D01*
X114397142Y-115481758D01*
X114240075Y-115513000D01*
X114079925Y-115513000D01*
X113922858Y-115481758D01*
X113774898Y-115420470D01*
X113684063Y-115359776D01*
X113641743Y-115331499D01*
X113528501Y-115218257D01*
X113439529Y-115085100D01*
X113411241Y-115016807D01*
X113378242Y-114937142D01*
X113347000Y-114780075D01*
X113347000Y-114619925D01*
X113378242Y-114462858D01*
X113439530Y-114314898D01*
X113502061Y-114221314D01*
X113528501Y-114181743D01*
X113641743Y-114068501D01*
X113761948Y-113988183D01*
X113774898Y-113979530D01*
X113922858Y-113918242D01*
X114079925Y-113887000D01*
X114240075Y-113887000D01*
X114397142Y-113918242D01*
X114397142Y-113918242D01*
G37*
G36*
X130173993Y-113894203D02*
X130238414Y-113913744D01*
X130297776Y-113945475D01*
X130349817Y-113988183D01*
X130392525Y-114040224D01*
X130424256Y-114099586D01*
X130443797Y-114164007D01*
X130451000Y-114237141D01*
X130451000Y-115162859D01*
X130443797Y-115235993D01*
X130424256Y-115300414D01*
X130392525Y-115359776D01*
X130349817Y-115411817D01*
X130297776Y-115454525D01*
X130238414Y-115486256D01*
X130173993Y-115505797D01*
X130100859Y-115513000D01*
X128699141Y-115513000D01*
X128626007Y-115505797D01*
X128561586Y-115486256D01*
X128502224Y-115454525D01*
X128450183Y-115411817D01*
X128407475Y-115359776D01*
X128375744Y-115300414D01*
X128356203Y-115235993D01*
X128349000Y-115162859D01*
X128349000Y-114237141D01*
X128356203Y-114164007D01*
X128375744Y-114099586D01*
X128407475Y-114040224D01*
X128450183Y-113988183D01*
X128502224Y-113945475D01*
X128561586Y-113913744D01*
X128626007Y-113894203D01*
X128699141Y-113887000D01*
X130100859Y-113887000D01*
X130173993Y-113894203D01*
X130173993Y-113894203D01*
G37*
G36*
X136438413Y-114195525D02*
X136513456Y-114218290D01*
X136523425Y-114221314D01*
X136601774Y-114263193D01*
X136670448Y-114319552D01*
X136726807Y-114388226D01*
X136768686Y-114466575D01*
X136770043Y-114471049D01*
X136794475Y-114551587D01*
X136803182Y-114640000D01*
X136794475Y-114728413D01*
X136771710Y-114803456D01*
X136768686Y-114813425D01*
X136726807Y-114891774D01*
X136670448Y-114960448D01*
X136601774Y-115016807D01*
X136523425Y-115058686D01*
X136513456Y-115061710D01*
X136438413Y-115084475D01*
X136372158Y-115091000D01*
X135127842Y-115091000D01*
X135061587Y-115084475D01*
X134986544Y-115061710D01*
X134976575Y-115058686D01*
X134898226Y-115016807D01*
X134829552Y-114960448D01*
X134773193Y-114891774D01*
X134731314Y-114813425D01*
X134728290Y-114803456D01*
X134705525Y-114728413D01*
X134696818Y-114640000D01*
X134705525Y-114551587D01*
X134729957Y-114471049D01*
X134731314Y-114466575D01*
X134773193Y-114388226D01*
X134829552Y-114319552D01*
X134898226Y-114263193D01*
X134976575Y-114221314D01*
X134986544Y-114218290D01*
X135061587Y-114195525D01*
X135127842Y-114189000D01*
X136372158Y-114189000D01*
X136438413Y-114195525D01*
X136438413Y-114195525D01*
G37*
G36*
X95218412Y-112385525D02*
X95289120Y-112406975D01*
X95303424Y-112411314D01*
X95366533Y-112445047D01*
X95381777Y-112453195D01*
X95450446Y-112509550D01*
X95450448Y-112509552D01*
X95506807Y-112578226D01*
X95548686Y-112656575D01*
X95550012Y-112660948D01*
X95574475Y-112741587D01*
X95581000Y-112807842D01*
X95581000Y-114052158D01*
X95574475Y-114118413D01*
X95555263Y-114181743D01*
X95548686Y-114203425D01*
X95506807Y-114281774D01*
X95450448Y-114350448D01*
X95381774Y-114406807D01*
X95303425Y-114448686D01*
X95293456Y-114451710D01*
X95218413Y-114474475D01*
X95130000Y-114483182D01*
X95041588Y-114474475D01*
X94966545Y-114451710D01*
X94956576Y-114448686D01*
X94878227Y-114406807D01*
X94809553Y-114350448D01*
X94753194Y-114281774D01*
X94711315Y-114203425D01*
X94704738Y-114181743D01*
X94685526Y-114118413D01*
X94679001Y-114052158D01*
X94679000Y-112807843D01*
X94685525Y-112741588D01*
X94711313Y-112656580D01*
X94711314Y-112656576D01*
X94753193Y-112578227D01*
X94753195Y-112578223D01*
X94809550Y-112509554D01*
X94809555Y-112509550D01*
X94878226Y-112453193D01*
X94956575Y-112411314D01*
X94970879Y-112406975D01*
X95041587Y-112385525D01*
X95130000Y-112376818D01*
X95218412Y-112385525D01*
X95218412Y-112385525D01*
G37*
G36*
X96468412Y-112385525D02*
X96539120Y-112406975D01*
X96553424Y-112411314D01*
X96616533Y-112445047D01*
X96631777Y-112453195D01*
X96700446Y-112509550D01*
X96700448Y-112509552D01*
X96756807Y-112578226D01*
X96798686Y-112656575D01*
X96800012Y-112660948D01*
X96824475Y-112741587D01*
X96831000Y-112807842D01*
X96831000Y-114052158D01*
X96824475Y-114118413D01*
X96805263Y-114181743D01*
X96798686Y-114203425D01*
X96756807Y-114281774D01*
X96700448Y-114350448D01*
X96631774Y-114406807D01*
X96553425Y-114448686D01*
X96543456Y-114451710D01*
X96468413Y-114474475D01*
X96380000Y-114483182D01*
X96291588Y-114474475D01*
X96216545Y-114451710D01*
X96206576Y-114448686D01*
X96128227Y-114406807D01*
X96059553Y-114350448D01*
X96003194Y-114281774D01*
X95961315Y-114203425D01*
X95954738Y-114181743D01*
X95935526Y-114118413D01*
X95929001Y-114052158D01*
X95929000Y-112807843D01*
X95935525Y-112741588D01*
X95961313Y-112656580D01*
X95961314Y-112656576D01*
X96003193Y-112578227D01*
X96003195Y-112578223D01*
X96059550Y-112509554D01*
X96059555Y-112509550D01*
X96128226Y-112453193D01*
X96206575Y-112411314D01*
X96220879Y-112406975D01*
X96291587Y-112385525D01*
X96380000Y-112376818D01*
X96468412Y-112385525D01*
X96468412Y-112385525D01*
G37*
G36*
X94199683Y-112382725D02*
X94230144Y-112391966D01*
X94258223Y-112406975D01*
X94282831Y-112427169D01*
X94303025Y-112451777D01*
X94318034Y-112479856D01*
X94327275Y-112510317D01*
X94331000Y-112548140D01*
X94331000Y-114311860D01*
X94327275Y-114349683D01*
X94318034Y-114380144D01*
X94303025Y-114408223D01*
X94282831Y-114432831D01*
X94258223Y-114453025D01*
X94230144Y-114468034D01*
X94199683Y-114477275D01*
X94161860Y-114481000D01*
X93598140Y-114481000D01*
X93560317Y-114477275D01*
X93529856Y-114468034D01*
X93501777Y-114453025D01*
X93477169Y-114432831D01*
X93456975Y-114408223D01*
X93441966Y-114380144D01*
X93432725Y-114349683D01*
X93429000Y-114311860D01*
X93429000Y-112548140D01*
X93432725Y-112510317D01*
X93441966Y-112479856D01*
X93456975Y-112451777D01*
X93477169Y-112427169D01*
X93501777Y-112406975D01*
X93529856Y-112391966D01*
X93560317Y-112382725D01*
X93598140Y-112379000D01*
X94161860Y-112379000D01*
X94199683Y-112382725D01*
X94199683Y-112382725D01*
G37*
G36*
X108548578Y-112537048D02*
X108621250Y-112559093D01*
X108688226Y-112594892D01*
X108746930Y-112643070D01*
X108795108Y-112701774D01*
X108830907Y-112768750D01*
X108852952Y-112841422D01*
X108861000Y-112923140D01*
X108861000Y-113936860D01*
X108852952Y-114018578D01*
X108830907Y-114091250D01*
X108795108Y-114158226D01*
X108746930Y-114216930D01*
X108688226Y-114265108D01*
X108621250Y-114300907D01*
X108548578Y-114322952D01*
X108466860Y-114331000D01*
X107153140Y-114331000D01*
X107071422Y-114322952D01*
X106998750Y-114300907D01*
X106931774Y-114265108D01*
X106873070Y-114216930D01*
X106824892Y-114158226D01*
X106789093Y-114091250D01*
X106767048Y-114018578D01*
X106759000Y-113936860D01*
X106759000Y-112923140D01*
X106767048Y-112841422D01*
X106789093Y-112768750D01*
X106824892Y-112701774D01*
X106873070Y-112643070D01*
X106931774Y-112594892D01*
X106998750Y-112559093D01*
X107071422Y-112537048D01*
X107153140Y-112529000D01*
X108466860Y-112529000D01*
X108548578Y-112537048D01*
X108548578Y-112537048D01*
G37*
G36*
X136438413Y-112945525D02*
X136513456Y-112968290D01*
X136523425Y-112971314D01*
X136601774Y-113013193D01*
X136670448Y-113069552D01*
X136726807Y-113138226D01*
X136768686Y-113216575D01*
X136768687Y-113216579D01*
X136794475Y-113301587D01*
X136803182Y-113390000D01*
X136794475Y-113478413D01*
X136771710Y-113553456D01*
X136768686Y-113563425D01*
X136726807Y-113641774D01*
X136670448Y-113710448D01*
X136601774Y-113766807D01*
X136523425Y-113808686D01*
X136513456Y-113811710D01*
X136438413Y-113834475D01*
X136372158Y-113841000D01*
X135127842Y-113841000D01*
X135061587Y-113834475D01*
X134986544Y-113811710D01*
X134976575Y-113808686D01*
X134898226Y-113766807D01*
X134829552Y-113710448D01*
X134773193Y-113641774D01*
X134731314Y-113563425D01*
X134728290Y-113553456D01*
X134705525Y-113478413D01*
X134696818Y-113390000D01*
X134705525Y-113301587D01*
X134731313Y-113216579D01*
X134731314Y-113216575D01*
X134773193Y-113138226D01*
X134829552Y-113069552D01*
X134898226Y-113013193D01*
X134976575Y-112971314D01*
X134986544Y-112968290D01*
X135061587Y-112945525D01*
X135127842Y-112939000D01*
X136372158Y-112939000D01*
X136438413Y-112945525D01*
X136438413Y-112945525D01*
G37*
G36*
X114397142Y-111378242D02*
X114545102Y-111439530D01*
X114558052Y-111448183D01*
X114678257Y-111528501D01*
X114791499Y-111641743D01*
X114792191Y-111642779D01*
X114880470Y-111774898D01*
X114941758Y-111922858D01*
X114973000Y-112079925D01*
X114973000Y-112240075D01*
X114941758Y-112397142D01*
X114880470Y-112545102D01*
X114840499Y-112604923D01*
X114791499Y-112678257D01*
X114678257Y-112791499D01*
X114653790Y-112807847D01*
X114545102Y-112880470D01*
X114397142Y-112941758D01*
X114240075Y-112973000D01*
X114079925Y-112973000D01*
X113922858Y-112941758D01*
X113774898Y-112880470D01*
X113666210Y-112807847D01*
X113641743Y-112791499D01*
X113528501Y-112678257D01*
X113479501Y-112604923D01*
X113439530Y-112545102D01*
X113378242Y-112397142D01*
X113347000Y-112240075D01*
X113347000Y-112079925D01*
X113378242Y-111922858D01*
X113439530Y-111774898D01*
X113527809Y-111642779D01*
X113528501Y-111641743D01*
X113641743Y-111528501D01*
X113761948Y-111448183D01*
X113774898Y-111439530D01*
X113922858Y-111378242D01*
X114079925Y-111347000D01*
X114240075Y-111347000D01*
X114397142Y-111378242D01*
X114397142Y-111378242D01*
G37*
G36*
X130173993Y-111354203D02*
X130238414Y-111373744D01*
X130297776Y-111405475D01*
X130349817Y-111448183D01*
X130392525Y-111500224D01*
X130424256Y-111559586D01*
X130443797Y-111624007D01*
X130451000Y-111697141D01*
X130451000Y-112622859D01*
X130443797Y-112695993D01*
X130424256Y-112760414D01*
X130392525Y-112819776D01*
X130349817Y-112871817D01*
X130297776Y-112914525D01*
X130238414Y-112946256D01*
X130173993Y-112965797D01*
X130100859Y-112973000D01*
X128699141Y-112973000D01*
X128626007Y-112965797D01*
X128561586Y-112946256D01*
X128502224Y-112914525D01*
X128450183Y-112871817D01*
X128407475Y-112819776D01*
X128375744Y-112760414D01*
X128356203Y-112695993D01*
X128349000Y-112622859D01*
X128349000Y-111697141D01*
X128356203Y-111624007D01*
X128375744Y-111559586D01*
X128407475Y-111500224D01*
X128450183Y-111448183D01*
X128502224Y-111405475D01*
X128561586Y-111373744D01*
X128626007Y-111354203D01*
X128699141Y-111347000D01*
X130100859Y-111347000D01*
X130173993Y-111354203D01*
X130173993Y-111354203D01*
G37*
G36*
X136438413Y-111695525D02*
X136513456Y-111718290D01*
X136523425Y-111721314D01*
X136601774Y-111763193D01*
X136670448Y-111819552D01*
X136726807Y-111888226D01*
X136768686Y-111966575D01*
X136768687Y-111966579D01*
X136794475Y-112051587D01*
X136803182Y-112140000D01*
X136794475Y-112228413D01*
X136771710Y-112303456D01*
X136768686Y-112313425D01*
X136726807Y-112391774D01*
X136670448Y-112460448D01*
X136601774Y-112516807D01*
X136523425Y-112558686D01*
X136522083Y-112559093D01*
X136438413Y-112584475D01*
X136372158Y-112591000D01*
X135127842Y-112591000D01*
X135061587Y-112584475D01*
X134977917Y-112559093D01*
X134976575Y-112558686D01*
X134898226Y-112516807D01*
X134829552Y-112460448D01*
X134773193Y-112391774D01*
X134731314Y-112313425D01*
X134728290Y-112303456D01*
X134705525Y-112228413D01*
X134696818Y-112140000D01*
X134705525Y-112051587D01*
X134731313Y-111966579D01*
X134731314Y-111966575D01*
X134773193Y-111888226D01*
X134829552Y-111819552D01*
X134898226Y-111763193D01*
X134976575Y-111721314D01*
X134986544Y-111718290D01*
X135061587Y-111695525D01*
X135127842Y-111689000D01*
X136372158Y-111689000D01*
X136438413Y-111695525D01*
X136438413Y-111695525D01*
G37*
G36*
X108070442Y-109995518D02*
X108136627Y-110002037D01*
X108245252Y-110034988D01*
X108306467Y-110053557D01*
X108361286Y-110082859D01*
X108462991Y-110137222D01*
X108485863Y-110155993D01*
X108600186Y-110249814D01*
X108652811Y-110313939D01*
X108712778Y-110387009D01*
X108712779Y-110387011D01*
X108796443Y-110543533D01*
X108796443Y-110543534D01*
X108847963Y-110713373D01*
X108865359Y-110890000D01*
X108847963Y-111066627D01*
X108819792Y-111159493D01*
X108796443Y-111236467D01*
X108775871Y-111274953D01*
X108712778Y-111392991D01*
X108683448Y-111428729D01*
X108600186Y-111530186D01*
X108498729Y-111613448D01*
X108462991Y-111642778D01*
X108462989Y-111642779D01*
X108306467Y-111726443D01*
X108249853Y-111743616D01*
X108136627Y-111777963D01*
X108070443Y-111784481D01*
X108004260Y-111791000D01*
X107615740Y-111791000D01*
X107549557Y-111784481D01*
X107483373Y-111777963D01*
X107370147Y-111743616D01*
X107313533Y-111726443D01*
X107157011Y-111642779D01*
X107157009Y-111642778D01*
X107121271Y-111613448D01*
X107019814Y-111530186D01*
X106936552Y-111428729D01*
X106907222Y-111392991D01*
X106844129Y-111274953D01*
X106823557Y-111236467D01*
X106800208Y-111159493D01*
X106772037Y-111066627D01*
X106754641Y-110890000D01*
X106772037Y-110713373D01*
X106823557Y-110543534D01*
X106823557Y-110543533D01*
X106907221Y-110387011D01*
X106907222Y-110387009D01*
X106967189Y-110313939D01*
X107019814Y-110249814D01*
X107134137Y-110155993D01*
X107157009Y-110137222D01*
X107258714Y-110082859D01*
X107313533Y-110053557D01*
X107374748Y-110034988D01*
X107483373Y-110002037D01*
X107549558Y-109995518D01*
X107615740Y-109989000D01*
X108004260Y-109989000D01*
X108070442Y-109995518D01*
X108070442Y-109995518D01*
G37*
G36*
X136669683Y-110442725D02*
X136700144Y-110451966D01*
X136728223Y-110466975D01*
X136752831Y-110487169D01*
X136773025Y-110511777D01*
X136788034Y-110539856D01*
X136797275Y-110570317D01*
X136801000Y-110608140D01*
X136801000Y-111171860D01*
X136797275Y-111209683D01*
X136788034Y-111240144D01*
X136773025Y-111268223D01*
X136752831Y-111292831D01*
X136728223Y-111313025D01*
X136700144Y-111328034D01*
X136669683Y-111337275D01*
X136631860Y-111341000D01*
X134868140Y-111341000D01*
X134830317Y-111337275D01*
X134799856Y-111328034D01*
X134771777Y-111313025D01*
X134747169Y-111292831D01*
X134726975Y-111268223D01*
X134711966Y-111240144D01*
X134702725Y-111209683D01*
X134699000Y-111171860D01*
X134699000Y-110608140D01*
X134702725Y-110570317D01*
X134711966Y-110539856D01*
X134726975Y-110511777D01*
X134747169Y-110487169D01*
X134771777Y-110466975D01*
X134799856Y-110451966D01*
X134830317Y-110442725D01*
X134868140Y-110439000D01*
X136631860Y-110439000D01*
X136669683Y-110442725D01*
X136669683Y-110442725D01*
G37*
G36*
X130173993Y-108814203D02*
X130238414Y-108833744D01*
X130297776Y-108865475D01*
X130349817Y-108908183D01*
X130392525Y-108960224D01*
X130424256Y-109019586D01*
X130443797Y-109084007D01*
X130451000Y-109157141D01*
X130451000Y-110082859D01*
X130443797Y-110155993D01*
X130424256Y-110220414D01*
X130392525Y-110279776D01*
X130349817Y-110331817D01*
X130297776Y-110374525D01*
X130238414Y-110406256D01*
X130173993Y-110425797D01*
X130100859Y-110433000D01*
X128699141Y-110433000D01*
X128626007Y-110425797D01*
X128561586Y-110406256D01*
X128502224Y-110374525D01*
X128450183Y-110331817D01*
X128407475Y-110279776D01*
X128375744Y-110220414D01*
X128356203Y-110155993D01*
X128349000Y-110082859D01*
X128349000Y-109157141D01*
X128356203Y-109084007D01*
X128375744Y-109019586D01*
X128407475Y-108960224D01*
X128450183Y-108908183D01*
X128502224Y-108865475D01*
X128561586Y-108833744D01*
X128626007Y-108814203D01*
X128699141Y-108807000D01*
X130100859Y-108807000D01*
X130173993Y-108814203D01*
X130173993Y-108814203D01*
G37*
G36*
X114349890Y-108994017D02*
X114468361Y-109043089D01*
X114468364Y-109043091D01*
X114557692Y-109102778D01*
X114574992Y-109114338D01*
X114665662Y-109205008D01*
X114665664Y-109205011D01*
X114665665Y-109205012D01*
X114675341Y-109219493D01*
X114736911Y-109311639D01*
X114785983Y-109430110D01*
X114811000Y-109555881D01*
X114811000Y-109684119D01*
X114785983Y-109809890D01*
X114736911Y-109928361D01*
X114736909Y-109928364D01*
X114671337Y-110026500D01*
X114665662Y-110034992D01*
X114574992Y-110125662D01*
X114574989Y-110125664D01*
X114574988Y-110125665D01*
X114468364Y-110196909D01*
X114468361Y-110196911D01*
X114349890Y-110245983D01*
X114224119Y-110271000D01*
X114095881Y-110271000D01*
X113970110Y-110245983D01*
X113851639Y-110196911D01*
X113851636Y-110196909D01*
X113745012Y-110125665D01*
X113745011Y-110125664D01*
X113745008Y-110125662D01*
X113654338Y-110034992D01*
X113648664Y-110026500D01*
X113583091Y-109928364D01*
X113583089Y-109928361D01*
X113534017Y-109809890D01*
X113509000Y-109684119D01*
X113509000Y-109555881D01*
X113534017Y-109430110D01*
X113583089Y-109311639D01*
X113644659Y-109219493D01*
X113654335Y-109205012D01*
X113654336Y-109205011D01*
X113654338Y-109205008D01*
X113745008Y-109114338D01*
X113762309Y-109102778D01*
X113851636Y-109043091D01*
X113851639Y-109043089D01*
X113970110Y-108994017D01*
X114095881Y-108969000D01*
X114224119Y-108969000D01*
X114349890Y-108994017D01*
X114349890Y-108994017D01*
G37*
G36*
X95218412Y-107305525D02*
X95289120Y-107326975D01*
X95303424Y-107331314D01*
X95366533Y-107365047D01*
X95381777Y-107373195D01*
X95450446Y-107429550D01*
X95450448Y-107429552D01*
X95506807Y-107498226D01*
X95548686Y-107576575D01*
X95551442Y-107585662D01*
X95574475Y-107661587D01*
X95581000Y-107727842D01*
X95581000Y-108972158D01*
X95574475Y-109038413D01*
X95554949Y-109102778D01*
X95548686Y-109123425D01*
X95506807Y-109201774D01*
X95450448Y-109270448D01*
X95381774Y-109326807D01*
X95303425Y-109368686D01*
X95293456Y-109371710D01*
X95218413Y-109394475D01*
X95130000Y-109403182D01*
X95041588Y-109394475D01*
X94966545Y-109371710D01*
X94956576Y-109368686D01*
X94878227Y-109326807D01*
X94809553Y-109270448D01*
X94753194Y-109201774D01*
X94711315Y-109123425D01*
X94705052Y-109102778D01*
X94685526Y-109038413D01*
X94679001Y-108972158D01*
X94679000Y-107727843D01*
X94685525Y-107661588D01*
X94711313Y-107576580D01*
X94711314Y-107576576D01*
X94753193Y-107498227D01*
X94753195Y-107498223D01*
X94809550Y-107429554D01*
X94809555Y-107429550D01*
X94878226Y-107373193D01*
X94956575Y-107331314D01*
X94970879Y-107326975D01*
X95041587Y-107305525D01*
X95130000Y-107296818D01*
X95218412Y-107305525D01*
X95218412Y-107305525D01*
G37*
G36*
X96468412Y-107305525D02*
X96539120Y-107326975D01*
X96553424Y-107331314D01*
X96616533Y-107365047D01*
X96631777Y-107373195D01*
X96700446Y-107429550D01*
X96700448Y-107429552D01*
X96756807Y-107498226D01*
X96798686Y-107576575D01*
X96801442Y-107585662D01*
X96824475Y-107661587D01*
X96831000Y-107727842D01*
X96831000Y-108972158D01*
X96824475Y-109038413D01*
X96804949Y-109102778D01*
X96798686Y-109123425D01*
X96756807Y-109201774D01*
X96700448Y-109270448D01*
X96631774Y-109326807D01*
X96553425Y-109368686D01*
X96543456Y-109371710D01*
X96468413Y-109394475D01*
X96380000Y-109403182D01*
X96291588Y-109394475D01*
X96216545Y-109371710D01*
X96206576Y-109368686D01*
X96128227Y-109326807D01*
X96059553Y-109270448D01*
X96003194Y-109201774D01*
X95961315Y-109123425D01*
X95955052Y-109102778D01*
X95935526Y-109038413D01*
X95929001Y-108972158D01*
X95929000Y-107727843D01*
X95935525Y-107661588D01*
X95961313Y-107576580D01*
X95961314Y-107576576D01*
X96003193Y-107498227D01*
X96003195Y-107498223D01*
X96059550Y-107429554D01*
X96059555Y-107429550D01*
X96128226Y-107373193D01*
X96206575Y-107331314D01*
X96220879Y-107326975D01*
X96291587Y-107305525D01*
X96380000Y-107296818D01*
X96468412Y-107305525D01*
X96468412Y-107305525D01*
G37*
G36*
X94199683Y-107302725D02*
X94230144Y-107311966D01*
X94258223Y-107326975D01*
X94282831Y-107347169D01*
X94303025Y-107371777D01*
X94318034Y-107399856D01*
X94327275Y-107430317D01*
X94331000Y-107468140D01*
X94331000Y-109231860D01*
X94327275Y-109269683D01*
X94318034Y-109300144D01*
X94303025Y-109328223D01*
X94282831Y-109352831D01*
X94258223Y-109373025D01*
X94230144Y-109388034D01*
X94199683Y-109397275D01*
X94161860Y-109401000D01*
X93598140Y-109401000D01*
X93560317Y-109397275D01*
X93529856Y-109388034D01*
X93501777Y-109373025D01*
X93477169Y-109352831D01*
X93456975Y-109328223D01*
X93441966Y-109300144D01*
X93432725Y-109269683D01*
X93429000Y-109231860D01*
X93429000Y-107468140D01*
X93432725Y-107430317D01*
X93441966Y-107399856D01*
X93456975Y-107371777D01*
X93477169Y-107347169D01*
X93501777Y-107326975D01*
X93529856Y-107311966D01*
X93560317Y-107302725D01*
X93598140Y-107299000D01*
X94161860Y-107299000D01*
X94199683Y-107302725D01*
X94199683Y-107302725D01*
G37*
G36*
X108070442Y-107455518D02*
X108136627Y-107462037D01*
X108245252Y-107494988D01*
X108306467Y-107513557D01*
X108424365Y-107576576D01*
X108462991Y-107597222D01*
X108498729Y-107626552D01*
X108600186Y-107709814D01*
X108683448Y-107811271D01*
X108712778Y-107847009D01*
X108712779Y-107847011D01*
X108796443Y-108003533D01*
X108796443Y-108003534D01*
X108847963Y-108173373D01*
X108865359Y-108350000D01*
X108847963Y-108526627D01*
X108819226Y-108621359D01*
X108796443Y-108696467D01*
X108737361Y-108807000D01*
X108712778Y-108852991D01*
X108683448Y-108888729D01*
X108600186Y-108990186D01*
X108498729Y-109073448D01*
X108462991Y-109102778D01*
X108462989Y-109102779D01*
X108306467Y-109186443D01*
X108255926Y-109201774D01*
X108136627Y-109237963D01*
X108070443Y-109244481D01*
X108004260Y-109251000D01*
X107615740Y-109251000D01*
X107549557Y-109244481D01*
X107483373Y-109237963D01*
X107364074Y-109201774D01*
X107313533Y-109186443D01*
X107157011Y-109102779D01*
X107157009Y-109102778D01*
X107121271Y-109073448D01*
X107019814Y-108990186D01*
X106936552Y-108888729D01*
X106907222Y-108852991D01*
X106882639Y-108807000D01*
X106823557Y-108696467D01*
X106800774Y-108621359D01*
X106772037Y-108526627D01*
X106754641Y-108350000D01*
X106772037Y-108173373D01*
X106823557Y-108003534D01*
X106823557Y-108003533D01*
X106907221Y-107847011D01*
X106907222Y-107847009D01*
X106936552Y-107811271D01*
X107019814Y-107709814D01*
X107121271Y-107626552D01*
X107157009Y-107597222D01*
X107195635Y-107576576D01*
X107313533Y-107513557D01*
X107374748Y-107494988D01*
X107483373Y-107462037D01*
X107549558Y-107455518D01*
X107615740Y-107449000D01*
X108004260Y-107449000D01*
X108070442Y-107455518D01*
X108070442Y-107455518D01*
G37*
G36*
X138939822Y-105538033D02*
X139022117Y-105562997D01*
X139097946Y-105603528D01*
X139164419Y-105658081D01*
X139218972Y-105724554D01*
X139259503Y-105800383D01*
X139284467Y-105882678D01*
X139293500Y-105974390D01*
X139293500Y-108185610D01*
X139284467Y-108277322D01*
X139259503Y-108359617D01*
X139218972Y-108435446D01*
X139164419Y-108501919D01*
X139097946Y-108556472D01*
X139022117Y-108597003D01*
X138939822Y-108621967D01*
X138848110Y-108631000D01*
X137731890Y-108631000D01*
X137640178Y-108621967D01*
X137557883Y-108597003D01*
X137482054Y-108556472D01*
X137415581Y-108501919D01*
X137361028Y-108435446D01*
X137320497Y-108359617D01*
X137295533Y-108277322D01*
X137286500Y-108185610D01*
X137286500Y-105974390D01*
X137295533Y-105882678D01*
X137320497Y-105800383D01*
X137361028Y-105724554D01*
X137415581Y-105658081D01*
X137482054Y-105603528D01*
X137557883Y-105562997D01*
X137640178Y-105538033D01*
X137731890Y-105529000D01*
X138848110Y-105529000D01*
X138939822Y-105538033D01*
X138939822Y-105538033D01*
G37*
G36*
X141479822Y-105538033D02*
X141562117Y-105562997D01*
X141637946Y-105603528D01*
X141704419Y-105658081D01*
X141758972Y-105724554D01*
X141799503Y-105800383D01*
X141824467Y-105882678D01*
X141833500Y-105974390D01*
X141833500Y-108185610D01*
X141824467Y-108277322D01*
X141799503Y-108359617D01*
X141758972Y-108435446D01*
X141704419Y-108501919D01*
X141637946Y-108556472D01*
X141562117Y-108597003D01*
X141479822Y-108621967D01*
X141388110Y-108631000D01*
X140271890Y-108631000D01*
X140180178Y-108621967D01*
X140097883Y-108597003D01*
X140022054Y-108556472D01*
X139955581Y-108501919D01*
X139901028Y-108435446D01*
X139860497Y-108359617D01*
X139835533Y-108277322D01*
X139826500Y-108185610D01*
X139826500Y-105974390D01*
X139835533Y-105882678D01*
X139860497Y-105800383D01*
X139901028Y-105724554D01*
X139955581Y-105658081D01*
X140022054Y-105603528D01*
X140097883Y-105562997D01*
X140180178Y-105538033D01*
X140271890Y-105529000D01*
X141388110Y-105529000D01*
X141479822Y-105538033D01*
X141479822Y-105538033D01*
G37*
G36*
X144019822Y-105538033D02*
X144102117Y-105562997D01*
X144177946Y-105603528D01*
X144244419Y-105658081D01*
X144298972Y-105724554D01*
X144339503Y-105800383D01*
X144364467Y-105882678D01*
X144373500Y-105974390D01*
X144373500Y-108185610D01*
X144364467Y-108277322D01*
X144339503Y-108359617D01*
X144298972Y-108435446D01*
X144244419Y-108501919D01*
X144177946Y-108556472D01*
X144102117Y-108597003D01*
X144019822Y-108621967D01*
X143928110Y-108631000D01*
X142811890Y-108631000D01*
X142720178Y-108621967D01*
X142637883Y-108597003D01*
X142562054Y-108556472D01*
X142495581Y-108501919D01*
X142441028Y-108435446D01*
X142400497Y-108359617D01*
X142375533Y-108277322D01*
X142366500Y-108185610D01*
X142366500Y-105974390D01*
X142375533Y-105882678D01*
X142400497Y-105800383D01*
X142441028Y-105724554D01*
X142495581Y-105658081D01*
X142562054Y-105603528D01*
X142637883Y-105562997D01*
X142720178Y-105538033D01*
X142811890Y-105529000D01*
X143928110Y-105529000D01*
X144019822Y-105538033D01*
X144019822Y-105538033D01*
G37*
G36*
X114349890Y-106454017D02*
X114468361Y-106503089D01*
X114468364Y-106503091D01*
X114557692Y-106562778D01*
X114574992Y-106574338D01*
X114665662Y-106665008D01*
X114736911Y-106771639D01*
X114785983Y-106890110D01*
X114811000Y-107015881D01*
X114811000Y-107144119D01*
X114785983Y-107269890D01*
X114736911Y-107388361D01*
X114665662Y-107494992D01*
X114574992Y-107585662D01*
X114574989Y-107585664D01*
X114574988Y-107585665D01*
X114468364Y-107656909D01*
X114468361Y-107656911D01*
X114349890Y-107705983D01*
X114224119Y-107731000D01*
X114095881Y-107731000D01*
X113970110Y-107705983D01*
X113851639Y-107656911D01*
X113851636Y-107656909D01*
X113745012Y-107585665D01*
X113745011Y-107585664D01*
X113745008Y-107585662D01*
X113654338Y-107494992D01*
X113583089Y-107388361D01*
X113534017Y-107269890D01*
X113509000Y-107144119D01*
X113509000Y-107015881D01*
X113534017Y-106890110D01*
X113583089Y-106771639D01*
X113654338Y-106665008D01*
X113745008Y-106574338D01*
X113762309Y-106562778D01*
X113851636Y-106503091D01*
X113851639Y-106503089D01*
X113970110Y-106454017D01*
X114095881Y-106429000D01*
X114224119Y-106429000D01*
X114349890Y-106454017D01*
X114349890Y-106454017D01*
G37*
G36*
X129589890Y-106454017D02*
X129708361Y-106503089D01*
X129708364Y-106503091D01*
X129797692Y-106562778D01*
X129814992Y-106574338D01*
X129905662Y-106665008D01*
X129976911Y-106771639D01*
X130025983Y-106890110D01*
X130051000Y-107015881D01*
X130051000Y-107144119D01*
X130025983Y-107269890D01*
X129976911Y-107388361D01*
X129905662Y-107494992D01*
X129814992Y-107585662D01*
X129814989Y-107585664D01*
X129814988Y-107585665D01*
X129708364Y-107656909D01*
X129708361Y-107656911D01*
X129589890Y-107705983D01*
X129464119Y-107731000D01*
X129335881Y-107731000D01*
X129210110Y-107705983D01*
X129091639Y-107656911D01*
X129091636Y-107656909D01*
X128985012Y-107585665D01*
X128985011Y-107585664D01*
X128985008Y-107585662D01*
X128894338Y-107494992D01*
X128823089Y-107388361D01*
X128774017Y-107269890D01*
X128749000Y-107144119D01*
X128749000Y-107015881D01*
X128774017Y-106890110D01*
X128823089Y-106771639D01*
X128894338Y-106665008D01*
X128985008Y-106574338D01*
X129002309Y-106562778D01*
X129091636Y-106503091D01*
X129091639Y-106503089D01*
X129210110Y-106454017D01*
X129335881Y-106429000D01*
X129464119Y-106429000D01*
X129589890Y-106454017D01*
X129589890Y-106454017D01*
G37*
G36*
X108070443Y-104915519D02*
X108136627Y-104922037D01*
X108245252Y-104954988D01*
X108306467Y-104973557D01*
X108441364Y-105045662D01*
X108462991Y-105057222D01*
X108498729Y-105086552D01*
X108600186Y-105169814D01*
X108683448Y-105271271D01*
X108712778Y-105307009D01*
X108712779Y-105307011D01*
X108796443Y-105463533D01*
X108796443Y-105463534D01*
X108847963Y-105633373D01*
X108865359Y-105810000D01*
X108847963Y-105986627D01*
X108834578Y-106030750D01*
X108796443Y-106156467D01*
X108722348Y-106295087D01*
X108712778Y-106312991D01*
X108683448Y-106348729D01*
X108600186Y-106450186D01*
X108498729Y-106533448D01*
X108462991Y-106562778D01*
X108462989Y-106562779D01*
X108306467Y-106646443D01*
X108249853Y-106663616D01*
X108136627Y-106697963D01*
X108070442Y-106704482D01*
X108004260Y-106711000D01*
X107615740Y-106711000D01*
X107549558Y-106704482D01*
X107483373Y-106697963D01*
X107370147Y-106663616D01*
X107313533Y-106646443D01*
X107157011Y-106562779D01*
X107157009Y-106562778D01*
X107121271Y-106533448D01*
X107019814Y-106450186D01*
X106936552Y-106348729D01*
X106907222Y-106312991D01*
X106897652Y-106295087D01*
X106823557Y-106156467D01*
X106785422Y-106030750D01*
X106772037Y-105986627D01*
X106754641Y-105810000D01*
X106772037Y-105633373D01*
X106823557Y-105463534D01*
X106823557Y-105463533D01*
X106907221Y-105307011D01*
X106907222Y-105307009D01*
X106936552Y-105271271D01*
X107019814Y-105169814D01*
X107121271Y-105086552D01*
X107157009Y-105057222D01*
X107178636Y-105045662D01*
X107313533Y-104973557D01*
X107374748Y-104954988D01*
X107483373Y-104922037D01*
X107549558Y-104915518D01*
X107615740Y-104909000D01*
X108004260Y-104909000D01*
X108070443Y-104915519D01*
X108070443Y-104915519D01*
G37*
G36*
X114349890Y-103914017D02*
X114468361Y-103963089D01*
X114574992Y-104034338D01*
X114665662Y-104125008D01*
X114736911Y-104231639D01*
X114785983Y-104350110D01*
X114811000Y-104475881D01*
X114811000Y-104604119D01*
X114785983Y-104729890D01*
X114736911Y-104848361D01*
X114665662Y-104954992D01*
X114574992Y-105045662D01*
X114574989Y-105045664D01*
X114574988Y-105045665D01*
X114468364Y-105116909D01*
X114468361Y-105116911D01*
X114349890Y-105165983D01*
X114224119Y-105191000D01*
X114095881Y-105191000D01*
X113970110Y-105165983D01*
X113851639Y-105116911D01*
X113851636Y-105116909D01*
X113745012Y-105045665D01*
X113745011Y-105045664D01*
X113745008Y-105045662D01*
X113654338Y-104954992D01*
X113583089Y-104848361D01*
X113534017Y-104729890D01*
X113509000Y-104604119D01*
X113509000Y-104475881D01*
X113534017Y-104350110D01*
X113583089Y-104231639D01*
X113654338Y-104125008D01*
X113745008Y-104034338D01*
X113851639Y-103963089D01*
X113970110Y-103914017D01*
X114095881Y-103889000D01*
X114224119Y-103889000D01*
X114349890Y-103914017D01*
X114349890Y-103914017D01*
G37*
G36*
X129589890Y-103914017D02*
X129708361Y-103963089D01*
X129814992Y-104034338D01*
X129905662Y-104125008D01*
X129976911Y-104231639D01*
X130025983Y-104350110D01*
X130051000Y-104475881D01*
X130051000Y-104604119D01*
X130025983Y-104729890D01*
X129976911Y-104848361D01*
X129905662Y-104954992D01*
X129814992Y-105045662D01*
X129814989Y-105045664D01*
X129814988Y-105045665D01*
X129708364Y-105116909D01*
X129708361Y-105116911D01*
X129589890Y-105165983D01*
X129464119Y-105191000D01*
X129335881Y-105191000D01*
X129210110Y-105165983D01*
X129091639Y-105116911D01*
X129091636Y-105116909D01*
X128985012Y-105045665D01*
X128985011Y-105045664D01*
X128985008Y-105045662D01*
X128894338Y-104954992D01*
X128823089Y-104848361D01*
X128774017Y-104729890D01*
X128749000Y-104604119D01*
X128749000Y-104475881D01*
X128774017Y-104350110D01*
X128823089Y-104231639D01*
X128894338Y-104125008D01*
X128985008Y-104034338D01*
X129091639Y-103963089D01*
X129210110Y-103914017D01*
X129335881Y-103889000D01*
X129464119Y-103889000D01*
X129589890Y-103914017D01*
X129589890Y-103914017D01*
G37*
G36*
X96428412Y-102225525D02*
X96499120Y-102246975D01*
X96513424Y-102251314D01*
X96576533Y-102285047D01*
X96591777Y-102293195D01*
X96660446Y-102349550D01*
X96660448Y-102349552D01*
X96716807Y-102418226D01*
X96758686Y-102496575D01*
X96761442Y-102505662D01*
X96784475Y-102581587D01*
X96791000Y-102647842D01*
X96791000Y-103892158D01*
X96784475Y-103958413D01*
X96761710Y-104033456D01*
X96758686Y-104043425D01*
X96716807Y-104121774D01*
X96660448Y-104190448D01*
X96591774Y-104246807D01*
X96513425Y-104288686D01*
X96503456Y-104291710D01*
X96428413Y-104314475D01*
X96340000Y-104323182D01*
X96251588Y-104314475D01*
X96176545Y-104291710D01*
X96166576Y-104288686D01*
X96088227Y-104246807D01*
X96019553Y-104190448D01*
X95963194Y-104121774D01*
X95921315Y-104043425D01*
X95918291Y-104033456D01*
X95895526Y-103958413D01*
X95889001Y-103892158D01*
X95889000Y-102647843D01*
X95895525Y-102581588D01*
X95921313Y-102496580D01*
X95921314Y-102496576D01*
X95963193Y-102418227D01*
X95963195Y-102418223D01*
X96019550Y-102349554D01*
X96019555Y-102349550D01*
X96088226Y-102293193D01*
X96166575Y-102251314D01*
X96180879Y-102246975D01*
X96251587Y-102225525D01*
X96340000Y-102216818D01*
X96428412Y-102225525D01*
X96428412Y-102225525D01*
G37*
G36*
X95178412Y-102225525D02*
X95249120Y-102246975D01*
X95263424Y-102251314D01*
X95326533Y-102285047D01*
X95341777Y-102293195D01*
X95410446Y-102349550D01*
X95410448Y-102349552D01*
X95466807Y-102418226D01*
X95508686Y-102496575D01*
X95511442Y-102505662D01*
X95534475Y-102581587D01*
X95541000Y-102647842D01*
X95541000Y-103892158D01*
X95534475Y-103958413D01*
X95511710Y-104033456D01*
X95508686Y-104043425D01*
X95466807Y-104121774D01*
X95410448Y-104190448D01*
X95341774Y-104246807D01*
X95263425Y-104288686D01*
X95253456Y-104291710D01*
X95178413Y-104314475D01*
X95090000Y-104323182D01*
X95001588Y-104314475D01*
X94926545Y-104291710D01*
X94916576Y-104288686D01*
X94838227Y-104246807D01*
X94769553Y-104190448D01*
X94713194Y-104121774D01*
X94671315Y-104043425D01*
X94668291Y-104033456D01*
X94645526Y-103958413D01*
X94639001Y-103892158D01*
X94639000Y-102647843D01*
X94645525Y-102581588D01*
X94671313Y-102496580D01*
X94671314Y-102496576D01*
X94713193Y-102418227D01*
X94713195Y-102418223D01*
X94769550Y-102349554D01*
X94769555Y-102349550D01*
X94838226Y-102293193D01*
X94916575Y-102251314D01*
X94930879Y-102246975D01*
X95001587Y-102225525D01*
X95090000Y-102216818D01*
X95178412Y-102225525D01*
X95178412Y-102225525D01*
G37*
G36*
X94159683Y-102222725D02*
X94190144Y-102231966D01*
X94218223Y-102246975D01*
X94242831Y-102267169D01*
X94263025Y-102291777D01*
X94278034Y-102319856D01*
X94287275Y-102350317D01*
X94291000Y-102388140D01*
X94291000Y-104151860D01*
X94287275Y-104189683D01*
X94278034Y-104220144D01*
X94263025Y-104248223D01*
X94242831Y-104272831D01*
X94218223Y-104293025D01*
X94190144Y-104308034D01*
X94159683Y-104317275D01*
X94121860Y-104321000D01*
X93558140Y-104321000D01*
X93520317Y-104317275D01*
X93489856Y-104308034D01*
X93461777Y-104293025D01*
X93437169Y-104272831D01*
X93416975Y-104248223D01*
X93401966Y-104220144D01*
X93392725Y-104189683D01*
X93389000Y-104151860D01*
X93389000Y-102388140D01*
X93392725Y-102350317D01*
X93401966Y-102319856D01*
X93416975Y-102291777D01*
X93437169Y-102267169D01*
X93461777Y-102246975D01*
X93489856Y-102231966D01*
X93520317Y-102222725D01*
X93558140Y-102219000D01*
X94121860Y-102219000D01*
X94159683Y-102222725D01*
X94159683Y-102222725D01*
G37*
G36*
X119998698Y-101156568D02*
X120066684Y-101177191D01*
X120129337Y-101210680D01*
X120184252Y-101255748D01*
X120229320Y-101310663D01*
X120262809Y-101373316D01*
X120283432Y-101441302D01*
X120291000Y-101518140D01*
X120291000Y-102481860D01*
X120283432Y-102558698D01*
X120262809Y-102626684D01*
X120229320Y-102689337D01*
X120184252Y-102744252D01*
X120129337Y-102789320D01*
X120066684Y-102822809D01*
X119998698Y-102843432D01*
X119921860Y-102851000D01*
X118558140Y-102851000D01*
X118481302Y-102843432D01*
X118413316Y-102822809D01*
X118350663Y-102789320D01*
X118295748Y-102744252D01*
X118250680Y-102689337D01*
X118217191Y-102626684D01*
X118196568Y-102558698D01*
X118189000Y-102481860D01*
X118189000Y-101518140D01*
X118196568Y-101441302D01*
X118217191Y-101373316D01*
X118250680Y-101310663D01*
X118295748Y-101255748D01*
X118350663Y-101210680D01*
X118413316Y-101177191D01*
X118481302Y-101156568D01*
X118558140Y-101149000D01*
X119921860Y-101149000D01*
X119998698Y-101156568D01*
X119998698Y-101156568D01*
G37*
G36*
X130173993Y-101194203D02*
X130238414Y-101213744D01*
X130297776Y-101245475D01*
X130349817Y-101288183D01*
X130392525Y-101340224D01*
X130424256Y-101399586D01*
X130443797Y-101464007D01*
X130451000Y-101537141D01*
X130451000Y-102462859D01*
X130443797Y-102535993D01*
X130424256Y-102600414D01*
X130392525Y-102659776D01*
X130349817Y-102711817D01*
X130297776Y-102754525D01*
X130238414Y-102786256D01*
X130173993Y-102805797D01*
X130100859Y-102813000D01*
X128699141Y-102813000D01*
X128626007Y-102805797D01*
X128561586Y-102786256D01*
X128502224Y-102754525D01*
X128450183Y-102711817D01*
X128407475Y-102659776D01*
X128375744Y-102600414D01*
X128356203Y-102535993D01*
X128349000Y-102462859D01*
X128349000Y-101537141D01*
X128356203Y-101464007D01*
X128375744Y-101399586D01*
X128407475Y-101340224D01*
X128450183Y-101288183D01*
X128502224Y-101245475D01*
X128561586Y-101213744D01*
X128626007Y-101194203D01*
X128699141Y-101187000D01*
X130100859Y-101187000D01*
X130173993Y-101194203D01*
X130173993Y-101194203D01*
G37*
G36*
X114349890Y-101374017D02*
X114468361Y-101423089D01*
X114468364Y-101423091D01*
X114570729Y-101491489D01*
X114574992Y-101494338D01*
X114665662Y-101585008D01*
X114665664Y-101585011D01*
X114665665Y-101585012D01*
X114736909Y-101691636D01*
X114736911Y-101691639D01*
X114785983Y-101810110D01*
X114811000Y-101935881D01*
X114811000Y-102064119D01*
X114785983Y-102189890D01*
X114736911Y-102308361D01*
X114736909Y-102308364D01*
X114671337Y-102406500D01*
X114665662Y-102414992D01*
X114574992Y-102505662D01*
X114574989Y-102505664D01*
X114574988Y-102505665D01*
X114468364Y-102576909D01*
X114468361Y-102576911D01*
X114349890Y-102625983D01*
X114224119Y-102651000D01*
X114095881Y-102651000D01*
X113970110Y-102625983D01*
X113851639Y-102576911D01*
X113851636Y-102576909D01*
X113745012Y-102505665D01*
X113745011Y-102505664D01*
X113745008Y-102505662D01*
X113654338Y-102414992D01*
X113648664Y-102406500D01*
X113583091Y-102308364D01*
X113583089Y-102308361D01*
X113534017Y-102189890D01*
X113509000Y-102064119D01*
X113509000Y-101935881D01*
X113534017Y-101810110D01*
X113583089Y-101691639D01*
X113583091Y-101691636D01*
X113654335Y-101585012D01*
X113654336Y-101585011D01*
X113654338Y-101585008D01*
X113745008Y-101494338D01*
X113749272Y-101491489D01*
X113851636Y-101423091D01*
X113851639Y-101423089D01*
X113970110Y-101374017D01*
X114095881Y-101349000D01*
X114224119Y-101349000D01*
X114349890Y-101374017D01*
X114349890Y-101374017D01*
G37*
G36*
X102026821Y-98621313D02*
X102026824Y-98621314D01*
X102026825Y-98621314D01*
X102187239Y-98669975D01*
X102187241Y-98669976D01*
X102187244Y-98669977D01*
X102335078Y-98748995D01*
X102464659Y-98855341D01*
X102571005Y-98984922D01*
X102650023Y-99132756D01*
X102650024Y-99132759D01*
X102650025Y-99132761D01*
X102681729Y-99237275D01*
X102698687Y-99293179D01*
X102715117Y-99460000D01*
X102698687Y-99626821D01*
X102650023Y-99787244D01*
X102571005Y-99935078D01*
X102464659Y-100064659D01*
X102335078Y-100171005D01*
X102187244Y-100250023D01*
X102187241Y-100250024D01*
X102187239Y-100250025D01*
X102026825Y-100298686D01*
X102026824Y-100298686D01*
X102026821Y-100298687D01*
X101901804Y-100311000D01*
X101018196Y-100311000D01*
X100893179Y-100298687D01*
X100893176Y-100298686D01*
X100893175Y-100298686D01*
X100732761Y-100250025D01*
X100732759Y-100250024D01*
X100732756Y-100250023D01*
X100584922Y-100171005D01*
X100455341Y-100064659D01*
X100348995Y-99935078D01*
X100269977Y-99787244D01*
X100221313Y-99626821D01*
X100204883Y-99460000D01*
X100221313Y-99293179D01*
X100238271Y-99237275D01*
X100269975Y-99132761D01*
X100269976Y-99132759D01*
X100269977Y-99132756D01*
X100348995Y-98984922D01*
X100455341Y-98855341D01*
X100584922Y-98748995D01*
X100732756Y-98669977D01*
X100732759Y-98669976D01*
X100732761Y-98669975D01*
X100893175Y-98621314D01*
X100893176Y-98621314D01*
X100893179Y-98621313D01*
X101018196Y-98609000D01*
X101901804Y-98609000D01*
X102026821Y-98621313D01*
X102026821Y-98621313D01*
G37*
G36*
X119606821Y-98621313D02*
X119606824Y-98621314D01*
X119606825Y-98621314D01*
X119767239Y-98669975D01*
X119767241Y-98669976D01*
X119767244Y-98669977D01*
X119915078Y-98748995D01*
X120044659Y-98855341D01*
X120151005Y-98984922D01*
X120230023Y-99132756D01*
X120230024Y-99132759D01*
X120230025Y-99132761D01*
X120261729Y-99237275D01*
X120278687Y-99293179D01*
X120295117Y-99460000D01*
X120278687Y-99626821D01*
X120230023Y-99787244D01*
X120151005Y-99935078D01*
X120044659Y-100064659D01*
X119915078Y-100171005D01*
X119767244Y-100250023D01*
X119767241Y-100250024D01*
X119767239Y-100250025D01*
X119606825Y-100298686D01*
X119606824Y-100298686D01*
X119606821Y-100298687D01*
X119481804Y-100311000D01*
X118998196Y-100311000D01*
X118873179Y-100298687D01*
X118873176Y-100298686D01*
X118873175Y-100298686D01*
X118712761Y-100250025D01*
X118712759Y-100250024D01*
X118712756Y-100250023D01*
X118564922Y-100171005D01*
X118435341Y-100064659D01*
X118328995Y-99935078D01*
X118249977Y-99787244D01*
X118201313Y-99626821D01*
X118184883Y-99460000D01*
X118201313Y-99293179D01*
X118218271Y-99237275D01*
X118249975Y-99132761D01*
X118249976Y-99132759D01*
X118249977Y-99132756D01*
X118328995Y-98984922D01*
X118435341Y-98855341D01*
X118564922Y-98748995D01*
X118712756Y-98669977D01*
X118712759Y-98669976D01*
X118712761Y-98669975D01*
X118873175Y-98621314D01*
X118873176Y-98621314D01*
X118873179Y-98621313D01*
X118998196Y-98609000D01*
X119481804Y-98609000D01*
X119606821Y-98621313D01*
X119606821Y-98621313D01*
G37*
G36*
X110331000Y-100311000D02*
X107829000Y-100311000D01*
X107829000Y-98609000D01*
X110331000Y-98609000D01*
X110331000Y-100311000D01*
X110331000Y-100311000D01*
G37*
G36*
X130173993Y-98654203D02*
X130238414Y-98673744D01*
X130297776Y-98705475D01*
X130349817Y-98748183D01*
X130392525Y-98800224D01*
X130424256Y-98859586D01*
X130443797Y-98924007D01*
X130451000Y-98997141D01*
X130451000Y-99922859D01*
X130443797Y-99995993D01*
X130424256Y-100060414D01*
X130392525Y-100119776D01*
X130349817Y-100171817D01*
X130297776Y-100214525D01*
X130238414Y-100246256D01*
X130173993Y-100265797D01*
X130100859Y-100273000D01*
X128699141Y-100273000D01*
X128626007Y-100265797D01*
X128561586Y-100246256D01*
X128502224Y-100214525D01*
X128450183Y-100171817D01*
X128407475Y-100119776D01*
X128375744Y-100060414D01*
X128356203Y-99995993D01*
X128349000Y-99922859D01*
X128349000Y-98997141D01*
X128356203Y-98924007D01*
X128375744Y-98859586D01*
X128407475Y-98800224D01*
X128450183Y-98748183D01*
X128502224Y-98705475D01*
X128561586Y-98673744D01*
X128626007Y-98654203D01*
X128699141Y-98647000D01*
X130100859Y-98647000D01*
X130173993Y-98654203D01*
X130173993Y-98654203D01*
G37*
G36*
X114933993Y-98654203D02*
X114998414Y-98673744D01*
X115057776Y-98705475D01*
X115109817Y-98748183D01*
X115152525Y-98800224D01*
X115184256Y-98859586D01*
X115203797Y-98924007D01*
X115211000Y-98997141D01*
X115211000Y-99922859D01*
X115203797Y-99995993D01*
X115184256Y-100060414D01*
X115152525Y-100119776D01*
X115109817Y-100171817D01*
X115057776Y-100214525D01*
X114998414Y-100246256D01*
X114933993Y-100265797D01*
X114860859Y-100273000D01*
X113459141Y-100273000D01*
X113386007Y-100265797D01*
X113321586Y-100246256D01*
X113262224Y-100214525D01*
X113210183Y-100171817D01*
X113167475Y-100119776D01*
X113135744Y-100060414D01*
X113116203Y-99995993D01*
X113109000Y-99922859D01*
X113109000Y-98997141D01*
X113116203Y-98924007D01*
X113135744Y-98859586D01*
X113167475Y-98800224D01*
X113210183Y-98748183D01*
X113262224Y-98705475D01*
X113321586Y-98673744D01*
X113386007Y-98654203D01*
X113459141Y-98647000D01*
X114860859Y-98647000D01*
X114933993Y-98654203D01*
X114933993Y-98654203D01*
G37*
G36*
X95218412Y-97145525D02*
X95289120Y-97166975D01*
X95303424Y-97171314D01*
X95366533Y-97205047D01*
X95381777Y-97213195D01*
X95450446Y-97269550D01*
X95450448Y-97269552D01*
X95506807Y-97338226D01*
X95548686Y-97416575D01*
X95551442Y-97425662D01*
X95574475Y-97501587D01*
X95581000Y-97567842D01*
X95581000Y-98812158D01*
X95574475Y-98878413D01*
X95551710Y-98953456D01*
X95548686Y-98963425D01*
X95506807Y-99041774D01*
X95450448Y-99110448D01*
X95381774Y-99166807D01*
X95303425Y-99208686D01*
X95293456Y-99211710D01*
X95218413Y-99234475D01*
X95130000Y-99243182D01*
X95041588Y-99234475D01*
X94966545Y-99211710D01*
X94956576Y-99208686D01*
X94878227Y-99166807D01*
X94809553Y-99110448D01*
X94753194Y-99041774D01*
X94711315Y-98963425D01*
X94708291Y-98953456D01*
X94685526Y-98878413D01*
X94679001Y-98812158D01*
X94679000Y-97567843D01*
X94685525Y-97501588D01*
X94711313Y-97416580D01*
X94711314Y-97416576D01*
X94753193Y-97338227D01*
X94753195Y-97338223D01*
X94809550Y-97269554D01*
X94809555Y-97269550D01*
X94878226Y-97213193D01*
X94956575Y-97171314D01*
X94970879Y-97166975D01*
X95041587Y-97145525D01*
X95130000Y-97136818D01*
X95218412Y-97145525D01*
X95218412Y-97145525D01*
G37*
G36*
X96468412Y-97145525D02*
X96539120Y-97166975D01*
X96553424Y-97171314D01*
X96616533Y-97205047D01*
X96631777Y-97213195D01*
X96700446Y-97269550D01*
X96700448Y-97269552D01*
X96756807Y-97338226D01*
X96798686Y-97416575D01*
X96801442Y-97425662D01*
X96824475Y-97501587D01*
X96831000Y-97567842D01*
X96831000Y-98812158D01*
X96824475Y-98878413D01*
X96801710Y-98953456D01*
X96798686Y-98963425D01*
X96756807Y-99041774D01*
X96700448Y-99110448D01*
X96631774Y-99166807D01*
X96553425Y-99208686D01*
X96543456Y-99211710D01*
X96468413Y-99234475D01*
X96380000Y-99243182D01*
X96291588Y-99234475D01*
X96216545Y-99211710D01*
X96206576Y-99208686D01*
X96128227Y-99166807D01*
X96059553Y-99110448D01*
X96003194Y-99041774D01*
X95961315Y-98963425D01*
X95958291Y-98953456D01*
X95935526Y-98878413D01*
X95929001Y-98812158D01*
X95929000Y-97567843D01*
X95935525Y-97501588D01*
X95961313Y-97416580D01*
X95961314Y-97416576D01*
X96003193Y-97338227D01*
X96003195Y-97338223D01*
X96059550Y-97269554D01*
X96059555Y-97269550D01*
X96128226Y-97213193D01*
X96206575Y-97171314D01*
X96220879Y-97166975D01*
X96291587Y-97145525D01*
X96380000Y-97136818D01*
X96468412Y-97145525D01*
X96468412Y-97145525D01*
G37*
G36*
X94199683Y-97142725D02*
X94230144Y-97151966D01*
X94258223Y-97166975D01*
X94282831Y-97187169D01*
X94303025Y-97211777D01*
X94318034Y-97239856D01*
X94327275Y-97270317D01*
X94331000Y-97308140D01*
X94331000Y-99071860D01*
X94327275Y-99109683D01*
X94318034Y-99140144D01*
X94303025Y-99168223D01*
X94282831Y-99192831D01*
X94258223Y-99213025D01*
X94230144Y-99228034D01*
X94199683Y-99237275D01*
X94161860Y-99241000D01*
X93598140Y-99241000D01*
X93560317Y-99237275D01*
X93529856Y-99228034D01*
X93501777Y-99213025D01*
X93477169Y-99192831D01*
X93456975Y-99168223D01*
X93441966Y-99140144D01*
X93432725Y-99109683D01*
X93429000Y-99071860D01*
X93429000Y-97308140D01*
X93432725Y-97270317D01*
X93441966Y-97239856D01*
X93456975Y-97211777D01*
X93477169Y-97187169D01*
X93501777Y-97166975D01*
X93529856Y-97151966D01*
X93560317Y-97142725D01*
X93598140Y-97139000D01*
X94161860Y-97139000D01*
X94199683Y-97142725D01*
X94199683Y-97142725D01*
G37*
G36*
X102026821Y-96081313D02*
X102026824Y-96081314D01*
X102026825Y-96081314D01*
X102187239Y-96129975D01*
X102187241Y-96129976D01*
X102187244Y-96129977D01*
X102335078Y-96208995D01*
X102464659Y-96315341D01*
X102571005Y-96444922D01*
X102650023Y-96592756D01*
X102650024Y-96592759D01*
X102650025Y-96592761D01*
X102691689Y-96730110D01*
X102698687Y-96753179D01*
X102715117Y-96920000D01*
X102698687Y-97086821D01*
X102698686Y-97086824D01*
X102698686Y-97086825D01*
X102652265Y-97239856D01*
X102650023Y-97247244D01*
X102571005Y-97395078D01*
X102464659Y-97524659D01*
X102335078Y-97631005D01*
X102187244Y-97710023D01*
X102187241Y-97710024D01*
X102187239Y-97710025D01*
X102026825Y-97758686D01*
X102026824Y-97758686D01*
X102026821Y-97758687D01*
X101901804Y-97771000D01*
X101018196Y-97771000D01*
X100893179Y-97758687D01*
X100893176Y-97758686D01*
X100893175Y-97758686D01*
X100732761Y-97710025D01*
X100732759Y-97710024D01*
X100732756Y-97710023D01*
X100584922Y-97631005D01*
X100455341Y-97524659D01*
X100348995Y-97395078D01*
X100269977Y-97247244D01*
X100267736Y-97239856D01*
X100221314Y-97086825D01*
X100221314Y-97086824D01*
X100221313Y-97086821D01*
X100204883Y-96920000D01*
X100221313Y-96753179D01*
X100228311Y-96730110D01*
X100269975Y-96592761D01*
X100269976Y-96592759D01*
X100269977Y-96592756D01*
X100348995Y-96444922D01*
X100455341Y-96315341D01*
X100584922Y-96208995D01*
X100732756Y-96129977D01*
X100732759Y-96129976D01*
X100732761Y-96129975D01*
X100893175Y-96081314D01*
X100893176Y-96081314D01*
X100893179Y-96081313D01*
X101018196Y-96069000D01*
X101901804Y-96069000D01*
X102026821Y-96081313D01*
X102026821Y-96081313D01*
G37*
G36*
X119606821Y-96081313D02*
X119606824Y-96081314D01*
X119606825Y-96081314D01*
X119767239Y-96129975D01*
X119767241Y-96129976D01*
X119767244Y-96129977D01*
X119915078Y-96208995D01*
X120044659Y-96315341D01*
X120151005Y-96444922D01*
X120230023Y-96592756D01*
X120230024Y-96592759D01*
X120230025Y-96592761D01*
X120271689Y-96730110D01*
X120278687Y-96753179D01*
X120295117Y-96920000D01*
X120278687Y-97086821D01*
X120278686Y-97086824D01*
X120278686Y-97086825D01*
X120232265Y-97239856D01*
X120230023Y-97247244D01*
X120151005Y-97395078D01*
X120044659Y-97524659D01*
X119915078Y-97631005D01*
X119767244Y-97710023D01*
X119767241Y-97710024D01*
X119767239Y-97710025D01*
X119606825Y-97758686D01*
X119606824Y-97758686D01*
X119606821Y-97758687D01*
X119481804Y-97771000D01*
X118998196Y-97771000D01*
X118873179Y-97758687D01*
X118873176Y-97758686D01*
X118873175Y-97758686D01*
X118712761Y-97710025D01*
X118712759Y-97710024D01*
X118712756Y-97710023D01*
X118564922Y-97631005D01*
X118435341Y-97524659D01*
X118328995Y-97395078D01*
X118249977Y-97247244D01*
X118247736Y-97239856D01*
X118201314Y-97086825D01*
X118201314Y-97086824D01*
X118201313Y-97086821D01*
X118184883Y-96920000D01*
X118201313Y-96753179D01*
X118208311Y-96730110D01*
X118249975Y-96592761D01*
X118249976Y-96592759D01*
X118249977Y-96592756D01*
X118328995Y-96444922D01*
X118435341Y-96315341D01*
X118564922Y-96208995D01*
X118712756Y-96129977D01*
X118712759Y-96129976D01*
X118712761Y-96129975D01*
X118873175Y-96081314D01*
X118873176Y-96081314D01*
X118873179Y-96081313D01*
X118998196Y-96069000D01*
X119481804Y-96069000D01*
X119606821Y-96081313D01*
X119606821Y-96081313D01*
G37*
G36*
X109646821Y-96081313D02*
X109646824Y-96081314D01*
X109646825Y-96081314D01*
X109807239Y-96129975D01*
X109807241Y-96129976D01*
X109807244Y-96129977D01*
X109955078Y-96208995D01*
X110084659Y-96315341D01*
X110191005Y-96444922D01*
X110270023Y-96592756D01*
X110270024Y-96592759D01*
X110270025Y-96592761D01*
X110311689Y-96730110D01*
X110318687Y-96753179D01*
X110335117Y-96920000D01*
X110318687Y-97086821D01*
X110318686Y-97086824D01*
X110318686Y-97086825D01*
X110272265Y-97239856D01*
X110270023Y-97247244D01*
X110191005Y-97395078D01*
X110084659Y-97524659D01*
X109955078Y-97631005D01*
X109807244Y-97710023D01*
X109807241Y-97710024D01*
X109807239Y-97710025D01*
X109646825Y-97758686D01*
X109646824Y-97758686D01*
X109646821Y-97758687D01*
X109521804Y-97771000D01*
X108638196Y-97771000D01*
X108513179Y-97758687D01*
X108513176Y-97758686D01*
X108513175Y-97758686D01*
X108352761Y-97710025D01*
X108352759Y-97710024D01*
X108352756Y-97710023D01*
X108204922Y-97631005D01*
X108075341Y-97524659D01*
X107968995Y-97395078D01*
X107889977Y-97247244D01*
X107887736Y-97239856D01*
X107841314Y-97086825D01*
X107841314Y-97086824D01*
X107841313Y-97086821D01*
X107824883Y-96920000D01*
X107841313Y-96753179D01*
X107848311Y-96730110D01*
X107889975Y-96592761D01*
X107889976Y-96592759D01*
X107889977Y-96592756D01*
X107968995Y-96444922D01*
X108075341Y-96315341D01*
X108204922Y-96208995D01*
X108352756Y-96129977D01*
X108352759Y-96129976D01*
X108352761Y-96129975D01*
X108513175Y-96081314D01*
X108513176Y-96081314D01*
X108513179Y-96081313D01*
X108638196Y-96069000D01*
X109521804Y-96069000D01*
X109646821Y-96081313D01*
X109646821Y-96081313D01*
G37*
G36*
X114933993Y-96114203D02*
X114998414Y-96133744D01*
X115057776Y-96165475D01*
X115109817Y-96208183D01*
X115152525Y-96260224D01*
X115184256Y-96319586D01*
X115203797Y-96384007D01*
X115211000Y-96457141D01*
X115211000Y-97382859D01*
X115203797Y-97455993D01*
X115184256Y-97520414D01*
X115152525Y-97579776D01*
X115109817Y-97631817D01*
X115057776Y-97674525D01*
X114998414Y-97706256D01*
X114933993Y-97725797D01*
X114860859Y-97733000D01*
X113459141Y-97733000D01*
X113386007Y-97725797D01*
X113321586Y-97706256D01*
X113262224Y-97674525D01*
X113210183Y-97631817D01*
X113167475Y-97579776D01*
X113135744Y-97520414D01*
X113116203Y-97455993D01*
X113109000Y-97382859D01*
X113109000Y-96457141D01*
X113116203Y-96384007D01*
X113135744Y-96319586D01*
X113167475Y-96260224D01*
X113210183Y-96208183D01*
X113262224Y-96165475D01*
X113321586Y-96133744D01*
X113386007Y-96114203D01*
X113459141Y-96107000D01*
X114860859Y-96107000D01*
X114933993Y-96114203D01*
X114933993Y-96114203D01*
G37*
G36*
X129589890Y-96294017D02*
X129708361Y-96343089D01*
X129708364Y-96343091D01*
X129730586Y-96357939D01*
X129814992Y-96414338D01*
X129905662Y-96505008D01*
X129905664Y-96505011D01*
X129905665Y-96505012D01*
X129964294Y-96592756D01*
X129976911Y-96611639D01*
X130025983Y-96730110D01*
X130051000Y-96855881D01*
X130051000Y-96984119D01*
X130025983Y-97109890D01*
X129976911Y-97228361D01*
X129976909Y-97228364D01*
X129911337Y-97326500D01*
X129905662Y-97334992D01*
X129814992Y-97425662D01*
X129814989Y-97425664D01*
X129814988Y-97425665D01*
X129708364Y-97496909D01*
X129708361Y-97496911D01*
X129589890Y-97545983D01*
X129464119Y-97571000D01*
X129335881Y-97571000D01*
X129210110Y-97545983D01*
X129091639Y-97496911D01*
X129091636Y-97496909D01*
X128985012Y-97425665D01*
X128985011Y-97425664D01*
X128985008Y-97425662D01*
X128894338Y-97334992D01*
X128888664Y-97326500D01*
X128823091Y-97228364D01*
X128823089Y-97228361D01*
X128774017Y-97109890D01*
X128749000Y-96984119D01*
X128749000Y-96855881D01*
X128774017Y-96730110D01*
X128823089Y-96611639D01*
X128835706Y-96592756D01*
X128894335Y-96505012D01*
X128894336Y-96505011D01*
X128894338Y-96505008D01*
X128985008Y-96414338D01*
X129069415Y-96357939D01*
X129091636Y-96343091D01*
X129091639Y-96343089D01*
X129210110Y-96294017D01*
X129335881Y-96269000D01*
X129464119Y-96269000D01*
X129589890Y-96294017D01*
X129589890Y-96294017D01*
G37*
G36*
X109646821Y-93541313D02*
X109646824Y-93541314D01*
X109646825Y-93541314D01*
X109807239Y-93589975D01*
X109807241Y-93589976D01*
X109807244Y-93589977D01*
X109955078Y-93668995D01*
X110084659Y-93775341D01*
X110191005Y-93904922D01*
X110270023Y-94052756D01*
X110270024Y-94052759D01*
X110270025Y-94052761D01*
X110301729Y-94157275D01*
X110318687Y-94213179D01*
X110335117Y-94380000D01*
X110318687Y-94546821D01*
X110318686Y-94546824D01*
X110318686Y-94546825D01*
X110275751Y-94688364D01*
X110270023Y-94707244D01*
X110191005Y-94855078D01*
X110084659Y-94984659D01*
X109955078Y-95091005D01*
X109807244Y-95170023D01*
X109807241Y-95170024D01*
X109807239Y-95170025D01*
X109646825Y-95218686D01*
X109646824Y-95218686D01*
X109646821Y-95218687D01*
X109521804Y-95231000D01*
X108638196Y-95231000D01*
X108513179Y-95218687D01*
X108513176Y-95218686D01*
X108513175Y-95218686D01*
X108352761Y-95170025D01*
X108352759Y-95170024D01*
X108352756Y-95170023D01*
X108204922Y-95091005D01*
X108075341Y-94984659D01*
X107968995Y-94855078D01*
X107889977Y-94707244D01*
X107884250Y-94688364D01*
X107841314Y-94546825D01*
X107841314Y-94546824D01*
X107841313Y-94546821D01*
X107824883Y-94380000D01*
X107841313Y-94213179D01*
X107858271Y-94157275D01*
X107889975Y-94052761D01*
X107889976Y-94052759D01*
X107889977Y-94052756D01*
X107968995Y-93904922D01*
X108075341Y-93775341D01*
X108204922Y-93668995D01*
X108352756Y-93589977D01*
X108352759Y-93589976D01*
X108352761Y-93589975D01*
X108513175Y-93541314D01*
X108513176Y-93541314D01*
X108513179Y-93541313D01*
X108638196Y-93529000D01*
X109521804Y-93529000D01*
X109646821Y-93541313D01*
X109646821Y-93541313D01*
G37*
G36*
X102026821Y-93541313D02*
X102026824Y-93541314D01*
X102026825Y-93541314D01*
X102187239Y-93589975D01*
X102187241Y-93589976D01*
X102187244Y-93589977D01*
X102335078Y-93668995D01*
X102464659Y-93775341D01*
X102571005Y-93904922D01*
X102650023Y-94052756D01*
X102650024Y-94052759D01*
X102650025Y-94052761D01*
X102681729Y-94157275D01*
X102698687Y-94213179D01*
X102715117Y-94380000D01*
X102698687Y-94546821D01*
X102698686Y-94546824D01*
X102698686Y-94546825D01*
X102655751Y-94688364D01*
X102650023Y-94707244D01*
X102571005Y-94855078D01*
X102464659Y-94984659D01*
X102335078Y-95091005D01*
X102187244Y-95170023D01*
X102187241Y-95170024D01*
X102187239Y-95170025D01*
X102026825Y-95218686D01*
X102026824Y-95218686D01*
X102026821Y-95218687D01*
X101901804Y-95231000D01*
X101018196Y-95231000D01*
X100893179Y-95218687D01*
X100893176Y-95218686D01*
X100893175Y-95218686D01*
X100732761Y-95170025D01*
X100732759Y-95170024D01*
X100732756Y-95170023D01*
X100584922Y-95091005D01*
X100455341Y-94984659D01*
X100348995Y-94855078D01*
X100269977Y-94707244D01*
X100264250Y-94688364D01*
X100221314Y-94546825D01*
X100221314Y-94546824D01*
X100221313Y-94546821D01*
X100204883Y-94380000D01*
X100221313Y-94213179D01*
X100238271Y-94157275D01*
X100269975Y-94052761D01*
X100269976Y-94052759D01*
X100269977Y-94052756D01*
X100348995Y-93904922D01*
X100455341Y-93775341D01*
X100584922Y-93668995D01*
X100732756Y-93589977D01*
X100732759Y-93589976D01*
X100732761Y-93589975D01*
X100893175Y-93541314D01*
X100893176Y-93541314D01*
X100893179Y-93541313D01*
X101018196Y-93529000D01*
X101901804Y-93529000D01*
X102026821Y-93541313D01*
X102026821Y-93541313D01*
G37*
G36*
X119606821Y-93541313D02*
X119606824Y-93541314D01*
X119606825Y-93541314D01*
X119767239Y-93589975D01*
X119767241Y-93589976D01*
X119767244Y-93589977D01*
X119915078Y-93668995D01*
X120044659Y-93775341D01*
X120151005Y-93904922D01*
X120230023Y-94052756D01*
X120230024Y-94052759D01*
X120230025Y-94052761D01*
X120261729Y-94157275D01*
X120278687Y-94213179D01*
X120295117Y-94380000D01*
X120278687Y-94546821D01*
X120278686Y-94546824D01*
X120278686Y-94546825D01*
X120235751Y-94688364D01*
X120230023Y-94707244D01*
X120151005Y-94855078D01*
X120044659Y-94984659D01*
X119915078Y-95091005D01*
X119767244Y-95170023D01*
X119767241Y-95170024D01*
X119767239Y-95170025D01*
X119606825Y-95218686D01*
X119606824Y-95218686D01*
X119606821Y-95218687D01*
X119481804Y-95231000D01*
X118998196Y-95231000D01*
X118873179Y-95218687D01*
X118873176Y-95218686D01*
X118873175Y-95218686D01*
X118712761Y-95170025D01*
X118712759Y-95170024D01*
X118712756Y-95170023D01*
X118564922Y-95091005D01*
X118435341Y-94984659D01*
X118328995Y-94855078D01*
X118249977Y-94707244D01*
X118244250Y-94688364D01*
X118201314Y-94546825D01*
X118201314Y-94546824D01*
X118201313Y-94546821D01*
X118184883Y-94380000D01*
X118201313Y-94213179D01*
X118218271Y-94157275D01*
X118249975Y-94052761D01*
X118249976Y-94052759D01*
X118249977Y-94052756D01*
X118328995Y-93904922D01*
X118435341Y-93775341D01*
X118564922Y-93668995D01*
X118712756Y-93589977D01*
X118712759Y-93589976D01*
X118712761Y-93589975D01*
X118873175Y-93541314D01*
X118873176Y-93541314D01*
X118873179Y-93541313D01*
X118998196Y-93529000D01*
X119481804Y-93529000D01*
X119606821Y-93541313D01*
X119606821Y-93541313D01*
G37*
G36*
X114933993Y-93574203D02*
X114998414Y-93593744D01*
X115057776Y-93625475D01*
X115109817Y-93668183D01*
X115152525Y-93720224D01*
X115184256Y-93779586D01*
X115203797Y-93844007D01*
X115211000Y-93917141D01*
X115211000Y-94842859D01*
X115203797Y-94915993D01*
X115184256Y-94980414D01*
X115152525Y-95039776D01*
X115109817Y-95091817D01*
X115057776Y-95134525D01*
X114998414Y-95166256D01*
X114933993Y-95185797D01*
X114860859Y-95193000D01*
X113459141Y-95193000D01*
X113386007Y-95185797D01*
X113321586Y-95166256D01*
X113262224Y-95134525D01*
X113210183Y-95091817D01*
X113167475Y-95039776D01*
X113135744Y-94980414D01*
X113116203Y-94915993D01*
X113109000Y-94842859D01*
X113109000Y-93917141D01*
X113116203Y-93844007D01*
X113135744Y-93779586D01*
X113167475Y-93720224D01*
X113210183Y-93668183D01*
X113262224Y-93625475D01*
X113321586Y-93593744D01*
X113386007Y-93574203D01*
X113459141Y-93567000D01*
X114860859Y-93567000D01*
X114933993Y-93574203D01*
X114933993Y-93574203D01*
G37*
G36*
X129589890Y-93754017D02*
X129708361Y-93803089D01*
X129708364Y-93803091D01*
X129730586Y-93817939D01*
X129814992Y-93874338D01*
X129905662Y-93965008D01*
X129905664Y-93965011D01*
X129905665Y-93965012D01*
X129915341Y-93979493D01*
X129976911Y-94071639D01*
X130025983Y-94190110D01*
X130051000Y-94315881D01*
X130051000Y-94444119D01*
X130025983Y-94569890D01*
X129976911Y-94688361D01*
X129976909Y-94688364D01*
X129911337Y-94786500D01*
X129905662Y-94794992D01*
X129814992Y-94885662D01*
X129814989Y-94885664D01*
X129814988Y-94885665D01*
X129708364Y-94956909D01*
X129708361Y-94956911D01*
X129589890Y-95005983D01*
X129464119Y-95031000D01*
X129335881Y-95031000D01*
X129210110Y-95005983D01*
X129091639Y-94956911D01*
X129091636Y-94956909D01*
X128985012Y-94885665D01*
X128985011Y-94885664D01*
X128985008Y-94885662D01*
X128894338Y-94794992D01*
X128888664Y-94786500D01*
X128823091Y-94688364D01*
X128823089Y-94688361D01*
X128774017Y-94569890D01*
X128749000Y-94444119D01*
X128749000Y-94315881D01*
X128774017Y-94190110D01*
X128823089Y-94071639D01*
X128884659Y-93979493D01*
X128894335Y-93965012D01*
X128894336Y-93965011D01*
X128894338Y-93965008D01*
X128985008Y-93874338D01*
X129069415Y-93817939D01*
X129091636Y-93803091D01*
X129091639Y-93803089D01*
X129210110Y-93754017D01*
X129335881Y-93729000D01*
X129464119Y-93729000D01*
X129589890Y-93754017D01*
X129589890Y-93754017D01*
G37*
G36*
X96428412Y-92065525D02*
X96499120Y-92086975D01*
X96513424Y-92091314D01*
X96576533Y-92125047D01*
X96591777Y-92133195D01*
X96660446Y-92189550D01*
X96660448Y-92189552D01*
X96716807Y-92258226D01*
X96758686Y-92336575D01*
X96761442Y-92345662D01*
X96784475Y-92421587D01*
X96791000Y-92487842D01*
X96791000Y-93732158D01*
X96784475Y-93798413D01*
X96761710Y-93873456D01*
X96758686Y-93883425D01*
X96716807Y-93961774D01*
X96660448Y-94030448D01*
X96591774Y-94086807D01*
X96513425Y-94128686D01*
X96503456Y-94131710D01*
X96428413Y-94154475D01*
X96340000Y-94163182D01*
X96251588Y-94154475D01*
X96176545Y-94131710D01*
X96166576Y-94128686D01*
X96088227Y-94086807D01*
X96019553Y-94030448D01*
X95963194Y-93961774D01*
X95921315Y-93883425D01*
X95918291Y-93873456D01*
X95895526Y-93798413D01*
X95889001Y-93732158D01*
X95889000Y-92487843D01*
X95895525Y-92421588D01*
X95921313Y-92336580D01*
X95921314Y-92336576D01*
X95963193Y-92258227D01*
X95963195Y-92258223D01*
X96019550Y-92189554D01*
X96019555Y-92189550D01*
X96088226Y-92133193D01*
X96166575Y-92091314D01*
X96180879Y-92086975D01*
X96251587Y-92065525D01*
X96340000Y-92056818D01*
X96428412Y-92065525D01*
X96428412Y-92065525D01*
G37*
G36*
X95178412Y-92065525D02*
X95249120Y-92086975D01*
X95263424Y-92091314D01*
X95326533Y-92125047D01*
X95341777Y-92133195D01*
X95410446Y-92189550D01*
X95410448Y-92189552D01*
X95466807Y-92258226D01*
X95508686Y-92336575D01*
X95511442Y-92345662D01*
X95534475Y-92421587D01*
X95541000Y-92487842D01*
X95541000Y-93732158D01*
X95534475Y-93798413D01*
X95511710Y-93873456D01*
X95508686Y-93883425D01*
X95466807Y-93961774D01*
X95410448Y-94030448D01*
X95341774Y-94086807D01*
X95263425Y-94128686D01*
X95253456Y-94131710D01*
X95178413Y-94154475D01*
X95090000Y-94163182D01*
X95001588Y-94154475D01*
X94926545Y-94131710D01*
X94916576Y-94128686D01*
X94838227Y-94086807D01*
X94769553Y-94030448D01*
X94713194Y-93961774D01*
X94671315Y-93883425D01*
X94668291Y-93873456D01*
X94645526Y-93798413D01*
X94639001Y-93732158D01*
X94639000Y-92487843D01*
X94645525Y-92421588D01*
X94671313Y-92336580D01*
X94671314Y-92336576D01*
X94713193Y-92258227D01*
X94713195Y-92258223D01*
X94769550Y-92189554D01*
X94769555Y-92189550D01*
X94838226Y-92133193D01*
X94916575Y-92091314D01*
X94930879Y-92086975D01*
X95001587Y-92065525D01*
X95090000Y-92056818D01*
X95178412Y-92065525D01*
X95178412Y-92065525D01*
G37*
G36*
X94159683Y-92062725D02*
X94190144Y-92071966D01*
X94218223Y-92086975D01*
X94242831Y-92107169D01*
X94263025Y-92131777D01*
X94278034Y-92159856D01*
X94287275Y-92190317D01*
X94291000Y-92228140D01*
X94291000Y-93991860D01*
X94287275Y-94029683D01*
X94278034Y-94060144D01*
X94263025Y-94088223D01*
X94242831Y-94112831D01*
X94218223Y-94133025D01*
X94190144Y-94148034D01*
X94159683Y-94157275D01*
X94121860Y-94161000D01*
X93558140Y-94161000D01*
X93520317Y-94157275D01*
X93489856Y-94148034D01*
X93461777Y-94133025D01*
X93437169Y-94112831D01*
X93416975Y-94088223D01*
X93401966Y-94060144D01*
X93392725Y-94029683D01*
X93389000Y-93991860D01*
X93389000Y-92228140D01*
X93392725Y-92190317D01*
X93401966Y-92159856D01*
X93416975Y-92131777D01*
X93437169Y-92107169D01*
X93461777Y-92086975D01*
X93489856Y-92071966D01*
X93520317Y-92062725D01*
X93558140Y-92059000D01*
X94121860Y-92059000D01*
X94159683Y-92062725D01*
X94159683Y-92062725D01*
G37*
G36*
X141006669Y-89487686D02*
X141183058Y-89505059D01*
X141409385Y-89573714D01*
X141522549Y-89608042D01*
X141835425Y-89775279D01*
X142109661Y-90000339D01*
X142334721Y-90274575D01*
X142501958Y-90587451D01*
X142501958Y-90587452D01*
X142604941Y-90926942D01*
X142639714Y-91280000D01*
X142604941Y-91633058D01*
X142592770Y-91673179D01*
X142501958Y-91972549D01*
X142334721Y-92285425D01*
X142109661Y-92559661D01*
X141835425Y-92784721D01*
X141522549Y-92951958D01*
X141409385Y-92986286D01*
X141183058Y-93054941D01*
X141006669Y-93072314D01*
X140918476Y-93081000D01*
X140741524Y-93081000D01*
X140653331Y-93072314D01*
X140476942Y-93054941D01*
X140250615Y-92986286D01*
X140137451Y-92951958D01*
X139824575Y-92784721D01*
X139550339Y-92559661D01*
X139325279Y-92285425D01*
X139158042Y-91972549D01*
X139067230Y-91673179D01*
X139055059Y-91633058D01*
X139020286Y-91280000D01*
X139055059Y-90926942D01*
X139158042Y-90587452D01*
X139158042Y-90587451D01*
X139325279Y-90274575D01*
X139550339Y-90000339D01*
X139824575Y-89775279D01*
X140137451Y-89608042D01*
X140250615Y-89573714D01*
X140476942Y-89505059D01*
X140653331Y-89487686D01*
X140741524Y-89479000D01*
X140918476Y-89479000D01*
X141006669Y-89487686D01*
X141006669Y-89487686D01*
G37*
G36*
X119606821Y-91001313D02*
X119606824Y-91001314D01*
X119606825Y-91001314D01*
X119767239Y-91049975D01*
X119767241Y-91049976D01*
X119767244Y-91049977D01*
X119915078Y-91128995D01*
X120044659Y-91235341D01*
X120151005Y-91364922D01*
X120230023Y-91512756D01*
X120230024Y-91512759D01*
X120230025Y-91512761D01*
X120271689Y-91650110D01*
X120278687Y-91673179D01*
X120295117Y-91840000D01*
X120278687Y-92006821D01*
X120278686Y-92006824D01*
X120278686Y-92006825D01*
X120232265Y-92159856D01*
X120230023Y-92167244D01*
X120151005Y-92315078D01*
X120044659Y-92444659D01*
X119915078Y-92551005D01*
X119767244Y-92630023D01*
X119767241Y-92630024D01*
X119767239Y-92630025D01*
X119606825Y-92678686D01*
X119606824Y-92678686D01*
X119606821Y-92678687D01*
X119481804Y-92691000D01*
X118998196Y-92691000D01*
X118873179Y-92678687D01*
X118873176Y-92678686D01*
X118873175Y-92678686D01*
X118712761Y-92630025D01*
X118712759Y-92630024D01*
X118712756Y-92630023D01*
X118564922Y-92551005D01*
X118435341Y-92444659D01*
X118328995Y-92315078D01*
X118249977Y-92167244D01*
X118247736Y-92159856D01*
X118201314Y-92006825D01*
X118201314Y-92006824D01*
X118201313Y-92006821D01*
X118184883Y-91840000D01*
X118201313Y-91673179D01*
X118208311Y-91650110D01*
X118249975Y-91512761D01*
X118249976Y-91512759D01*
X118249977Y-91512756D01*
X118328995Y-91364922D01*
X118435341Y-91235341D01*
X118564922Y-91128995D01*
X118712756Y-91049977D01*
X118712759Y-91049976D01*
X118712761Y-91049975D01*
X118873175Y-91001314D01*
X118873176Y-91001314D01*
X118873179Y-91001313D01*
X118998196Y-90989000D01*
X119481804Y-90989000D01*
X119606821Y-91001313D01*
X119606821Y-91001313D01*
G37*
G36*
X102026821Y-91001313D02*
X102026824Y-91001314D01*
X102026825Y-91001314D01*
X102187239Y-91049975D01*
X102187241Y-91049976D01*
X102187244Y-91049977D01*
X102335078Y-91128995D01*
X102464659Y-91235341D01*
X102571005Y-91364922D01*
X102650023Y-91512756D01*
X102650024Y-91512759D01*
X102650025Y-91512761D01*
X102691689Y-91650110D01*
X102698687Y-91673179D01*
X102715117Y-91840000D01*
X102698687Y-92006821D01*
X102698686Y-92006824D01*
X102698686Y-92006825D01*
X102652265Y-92159856D01*
X102650023Y-92167244D01*
X102571005Y-92315078D01*
X102464659Y-92444659D01*
X102335078Y-92551005D01*
X102187244Y-92630023D01*
X102187241Y-92630024D01*
X102187239Y-92630025D01*
X102026825Y-92678686D01*
X102026824Y-92678686D01*
X102026821Y-92678687D01*
X101901804Y-92691000D01*
X101018196Y-92691000D01*
X100893179Y-92678687D01*
X100893176Y-92678686D01*
X100893175Y-92678686D01*
X100732761Y-92630025D01*
X100732759Y-92630024D01*
X100732756Y-92630023D01*
X100584922Y-92551005D01*
X100455341Y-92444659D01*
X100348995Y-92315078D01*
X100269977Y-92167244D01*
X100267736Y-92159856D01*
X100221314Y-92006825D01*
X100221314Y-92006824D01*
X100221313Y-92006821D01*
X100204883Y-91840000D01*
X100221313Y-91673179D01*
X100228311Y-91650110D01*
X100269975Y-91512761D01*
X100269976Y-91512759D01*
X100269977Y-91512756D01*
X100348995Y-91364922D01*
X100455341Y-91235341D01*
X100584922Y-91128995D01*
X100732756Y-91049977D01*
X100732759Y-91049976D01*
X100732761Y-91049975D01*
X100893175Y-91001314D01*
X100893176Y-91001314D01*
X100893179Y-91001313D01*
X101018196Y-90989000D01*
X101901804Y-90989000D01*
X102026821Y-91001313D01*
X102026821Y-91001313D01*
G37*
G36*
X109646821Y-91001313D02*
X109646824Y-91001314D01*
X109646825Y-91001314D01*
X109807239Y-91049975D01*
X109807241Y-91049976D01*
X109807244Y-91049977D01*
X109955078Y-91128995D01*
X110084659Y-91235341D01*
X110191005Y-91364922D01*
X110270023Y-91512756D01*
X110270024Y-91512759D01*
X110270025Y-91512761D01*
X110311689Y-91650110D01*
X110318687Y-91673179D01*
X110335117Y-91840000D01*
X110318687Y-92006821D01*
X110318686Y-92006824D01*
X110318686Y-92006825D01*
X110272265Y-92159856D01*
X110270023Y-92167244D01*
X110191005Y-92315078D01*
X110084659Y-92444659D01*
X109955078Y-92551005D01*
X109807244Y-92630023D01*
X109807241Y-92630024D01*
X109807239Y-92630025D01*
X109646825Y-92678686D01*
X109646824Y-92678686D01*
X109646821Y-92678687D01*
X109521804Y-92691000D01*
X108638196Y-92691000D01*
X108513179Y-92678687D01*
X108513176Y-92678686D01*
X108513175Y-92678686D01*
X108352761Y-92630025D01*
X108352759Y-92630024D01*
X108352756Y-92630023D01*
X108204922Y-92551005D01*
X108075341Y-92444659D01*
X107968995Y-92315078D01*
X107889977Y-92167244D01*
X107887736Y-92159856D01*
X107841314Y-92006825D01*
X107841314Y-92006824D01*
X107841313Y-92006821D01*
X107824883Y-91840000D01*
X107841313Y-91673179D01*
X107848311Y-91650110D01*
X107889975Y-91512761D01*
X107889976Y-91512759D01*
X107889977Y-91512756D01*
X107968995Y-91364922D01*
X108075341Y-91235341D01*
X108204922Y-91128995D01*
X108352756Y-91049977D01*
X108352759Y-91049976D01*
X108352761Y-91049975D01*
X108513175Y-91001314D01*
X108513176Y-91001314D01*
X108513179Y-91001313D01*
X108638196Y-90989000D01*
X109521804Y-90989000D01*
X109646821Y-91001313D01*
X109646821Y-91001313D01*
G37*
G36*
X114933993Y-91034203D02*
X114998414Y-91053744D01*
X115057776Y-91085475D01*
X115109817Y-91128183D01*
X115152525Y-91180224D01*
X115184256Y-91239586D01*
X115203797Y-91304007D01*
X115211000Y-91377141D01*
X115211000Y-92302859D01*
X115203797Y-92375993D01*
X115184256Y-92440414D01*
X115152525Y-92499776D01*
X115109817Y-92551817D01*
X115057776Y-92594525D01*
X114998414Y-92626256D01*
X114933993Y-92645797D01*
X114860859Y-92653000D01*
X113459141Y-92653000D01*
X113386007Y-92645797D01*
X113321586Y-92626256D01*
X113262224Y-92594525D01*
X113210183Y-92551817D01*
X113167475Y-92499776D01*
X113135744Y-92440414D01*
X113116203Y-92375993D01*
X113109000Y-92302859D01*
X113109000Y-91377141D01*
X113116203Y-91304007D01*
X113135744Y-91239586D01*
X113167475Y-91180224D01*
X113210183Y-91128183D01*
X113262224Y-91085475D01*
X113321586Y-91053744D01*
X113386007Y-91034203D01*
X113459141Y-91027000D01*
X114860859Y-91027000D01*
X114933993Y-91034203D01*
X114933993Y-91034203D01*
G37*
G36*
X129589890Y-91214017D02*
X129708361Y-91263089D01*
X129708364Y-91263091D01*
X129730586Y-91277939D01*
X129814992Y-91334338D01*
X129905662Y-91425008D01*
X129905664Y-91425011D01*
X129905665Y-91425012D01*
X129964294Y-91512756D01*
X129976911Y-91531639D01*
X130025983Y-91650110D01*
X130051000Y-91775881D01*
X130051000Y-91904119D01*
X130025983Y-92029890D01*
X129976911Y-92148361D01*
X129976909Y-92148364D01*
X129911337Y-92246500D01*
X129905662Y-92254992D01*
X129814992Y-92345662D01*
X129814989Y-92345664D01*
X129814988Y-92345665D01*
X129708364Y-92416909D01*
X129708361Y-92416911D01*
X129589890Y-92465983D01*
X129464119Y-92491000D01*
X129335881Y-92491000D01*
X129210110Y-92465983D01*
X129091639Y-92416911D01*
X129091636Y-92416909D01*
X128985012Y-92345665D01*
X128985011Y-92345664D01*
X128985008Y-92345662D01*
X128894338Y-92254992D01*
X128888664Y-92246500D01*
X128823091Y-92148364D01*
X128823089Y-92148361D01*
X128774017Y-92029890D01*
X128749000Y-91904119D01*
X128749000Y-91775881D01*
X128774017Y-91650110D01*
X128823089Y-91531639D01*
X128835706Y-91512756D01*
X128894335Y-91425012D01*
X128894336Y-91425011D01*
X128894338Y-91425008D01*
X128985008Y-91334338D01*
X129069415Y-91277939D01*
X129091636Y-91263091D01*
X129091639Y-91263089D01*
X129210110Y-91214017D01*
X129335881Y-91189000D01*
X129464119Y-91189000D01*
X129589890Y-91214017D01*
X129589890Y-91214017D01*
G37*
G36*
X119606821Y-88461313D02*
X119606824Y-88461314D01*
X119606825Y-88461314D01*
X119767239Y-88509975D01*
X119767241Y-88509976D01*
X119767244Y-88509977D01*
X119915078Y-88588995D01*
X120044659Y-88695341D01*
X120151005Y-88824922D01*
X120230023Y-88972756D01*
X120230024Y-88972759D01*
X120230025Y-88972761D01*
X120261729Y-89077275D01*
X120278687Y-89133179D01*
X120295117Y-89300000D01*
X120278687Y-89466821D01*
X120278686Y-89466824D01*
X120278686Y-89466825D01*
X120235751Y-89608364D01*
X120230023Y-89627244D01*
X120151005Y-89775078D01*
X120044659Y-89904659D01*
X119915078Y-90011005D01*
X119767244Y-90090023D01*
X119767241Y-90090024D01*
X119767239Y-90090025D01*
X119606825Y-90138686D01*
X119606824Y-90138686D01*
X119606821Y-90138687D01*
X119481804Y-90151000D01*
X118998196Y-90151000D01*
X118873179Y-90138687D01*
X118873176Y-90138686D01*
X118873175Y-90138686D01*
X118712761Y-90090025D01*
X118712759Y-90090024D01*
X118712756Y-90090023D01*
X118564922Y-90011005D01*
X118435341Y-89904659D01*
X118328995Y-89775078D01*
X118249977Y-89627244D01*
X118244250Y-89608364D01*
X118201314Y-89466825D01*
X118201314Y-89466824D01*
X118201313Y-89466821D01*
X118184883Y-89300000D01*
X118201313Y-89133179D01*
X118218271Y-89077275D01*
X118249975Y-88972761D01*
X118249976Y-88972759D01*
X118249977Y-88972756D01*
X118328995Y-88824922D01*
X118435341Y-88695341D01*
X118564922Y-88588995D01*
X118712756Y-88509977D01*
X118712759Y-88509976D01*
X118712761Y-88509975D01*
X118873175Y-88461314D01*
X118873176Y-88461314D01*
X118873179Y-88461313D01*
X118998196Y-88449000D01*
X119481804Y-88449000D01*
X119606821Y-88461313D01*
X119606821Y-88461313D01*
G37*
G36*
X102026821Y-88461313D02*
X102026824Y-88461314D01*
X102026825Y-88461314D01*
X102187239Y-88509975D01*
X102187241Y-88509976D01*
X102187244Y-88509977D01*
X102335078Y-88588995D01*
X102464659Y-88695341D01*
X102571005Y-88824922D01*
X102650023Y-88972756D01*
X102650024Y-88972759D01*
X102650025Y-88972761D01*
X102681729Y-89077275D01*
X102698687Y-89133179D01*
X102715117Y-89300000D01*
X102698687Y-89466821D01*
X102698686Y-89466824D01*
X102698686Y-89466825D01*
X102655751Y-89608364D01*
X102650023Y-89627244D01*
X102571005Y-89775078D01*
X102464659Y-89904659D01*
X102335078Y-90011005D01*
X102187244Y-90090023D01*
X102187241Y-90090024D01*
X102187239Y-90090025D01*
X102026825Y-90138686D01*
X102026824Y-90138686D01*
X102026821Y-90138687D01*
X101901804Y-90151000D01*
X101018196Y-90151000D01*
X100893179Y-90138687D01*
X100893176Y-90138686D01*
X100893175Y-90138686D01*
X100732761Y-90090025D01*
X100732759Y-90090024D01*
X100732756Y-90090023D01*
X100584922Y-90011005D01*
X100455341Y-89904659D01*
X100348995Y-89775078D01*
X100269977Y-89627244D01*
X100264250Y-89608364D01*
X100221314Y-89466825D01*
X100221314Y-89466824D01*
X100221313Y-89466821D01*
X100204883Y-89300000D01*
X100221313Y-89133179D01*
X100238271Y-89077275D01*
X100269975Y-88972761D01*
X100269976Y-88972759D01*
X100269977Y-88972756D01*
X100348995Y-88824922D01*
X100455341Y-88695341D01*
X100584922Y-88588995D01*
X100732756Y-88509977D01*
X100732759Y-88509976D01*
X100732761Y-88509975D01*
X100893175Y-88461314D01*
X100893176Y-88461314D01*
X100893179Y-88461313D01*
X101018196Y-88449000D01*
X101901804Y-88449000D01*
X102026821Y-88461313D01*
X102026821Y-88461313D01*
G37*
G36*
X109646821Y-88461313D02*
X109646824Y-88461314D01*
X109646825Y-88461314D01*
X109807239Y-88509975D01*
X109807241Y-88509976D01*
X109807244Y-88509977D01*
X109955078Y-88588995D01*
X110084659Y-88695341D01*
X110191005Y-88824922D01*
X110270023Y-88972756D01*
X110270024Y-88972759D01*
X110270025Y-88972761D01*
X110301729Y-89077275D01*
X110318687Y-89133179D01*
X110335117Y-89300000D01*
X110318687Y-89466821D01*
X110318686Y-89466824D01*
X110318686Y-89466825D01*
X110275751Y-89608364D01*
X110270023Y-89627244D01*
X110191005Y-89775078D01*
X110084659Y-89904659D01*
X109955078Y-90011005D01*
X109807244Y-90090023D01*
X109807241Y-90090024D01*
X109807239Y-90090025D01*
X109646825Y-90138686D01*
X109646824Y-90138686D01*
X109646821Y-90138687D01*
X109521804Y-90151000D01*
X108638196Y-90151000D01*
X108513179Y-90138687D01*
X108513176Y-90138686D01*
X108513175Y-90138686D01*
X108352761Y-90090025D01*
X108352759Y-90090024D01*
X108352756Y-90090023D01*
X108204922Y-90011005D01*
X108075341Y-89904659D01*
X107968995Y-89775078D01*
X107889977Y-89627244D01*
X107884250Y-89608364D01*
X107841314Y-89466825D01*
X107841314Y-89466824D01*
X107841313Y-89466821D01*
X107824883Y-89300000D01*
X107841313Y-89133179D01*
X107858271Y-89077275D01*
X107889975Y-88972761D01*
X107889976Y-88972759D01*
X107889977Y-88972756D01*
X107968995Y-88824922D01*
X108075341Y-88695341D01*
X108204922Y-88588995D01*
X108352756Y-88509977D01*
X108352759Y-88509976D01*
X108352761Y-88509975D01*
X108513175Y-88461314D01*
X108513176Y-88461314D01*
X108513179Y-88461313D01*
X108638196Y-88449000D01*
X109521804Y-88449000D01*
X109646821Y-88461313D01*
X109646821Y-88461313D01*
G37*
G36*
X114933993Y-88494203D02*
X114998414Y-88513744D01*
X115057776Y-88545475D01*
X115109817Y-88588183D01*
X115152525Y-88640224D01*
X115184256Y-88699586D01*
X115203797Y-88764007D01*
X115211000Y-88837141D01*
X115211000Y-89762859D01*
X115203797Y-89835993D01*
X115184256Y-89900414D01*
X115152525Y-89959776D01*
X115109817Y-90011817D01*
X115057776Y-90054525D01*
X114998414Y-90086256D01*
X114933993Y-90105797D01*
X114860859Y-90113000D01*
X113459141Y-90113000D01*
X113386007Y-90105797D01*
X113321586Y-90086256D01*
X113262224Y-90054525D01*
X113210183Y-90011817D01*
X113167475Y-89959776D01*
X113135744Y-89900414D01*
X113116203Y-89835993D01*
X113109000Y-89762859D01*
X113109000Y-88837141D01*
X113116203Y-88764007D01*
X113135744Y-88699586D01*
X113167475Y-88640224D01*
X113210183Y-88588183D01*
X113262224Y-88545475D01*
X113321586Y-88513744D01*
X113386007Y-88494203D01*
X113459141Y-88487000D01*
X114860859Y-88487000D01*
X114933993Y-88494203D01*
X114933993Y-88494203D01*
G37*
G36*
X129589890Y-88674017D02*
X129708361Y-88723089D01*
X129708364Y-88723091D01*
X129730586Y-88737939D01*
X129814992Y-88794338D01*
X129905662Y-88885008D01*
X129905664Y-88885011D01*
X129905665Y-88885012D01*
X129915341Y-88899493D01*
X129976911Y-88991639D01*
X130025983Y-89110110D01*
X130051000Y-89235881D01*
X130051000Y-89364119D01*
X130025983Y-89489890D01*
X129976911Y-89608361D01*
X129976909Y-89608364D01*
X129911337Y-89706500D01*
X129905662Y-89714992D01*
X129814992Y-89805662D01*
X129814989Y-89805664D01*
X129814988Y-89805665D01*
X129708364Y-89876909D01*
X129708361Y-89876911D01*
X129589890Y-89925983D01*
X129464119Y-89951000D01*
X129335881Y-89951000D01*
X129210110Y-89925983D01*
X129091639Y-89876911D01*
X129091636Y-89876909D01*
X128985012Y-89805665D01*
X128985011Y-89805664D01*
X128985008Y-89805662D01*
X128894338Y-89714992D01*
X128888664Y-89706500D01*
X128823091Y-89608364D01*
X128823089Y-89608361D01*
X128774017Y-89489890D01*
X128749000Y-89364119D01*
X128749000Y-89235881D01*
X128774017Y-89110110D01*
X128823089Y-88991639D01*
X128884659Y-88899493D01*
X128894335Y-88885012D01*
X128894336Y-88885011D01*
X128894338Y-88885008D01*
X128985008Y-88794338D01*
X129069415Y-88737939D01*
X129091636Y-88723091D01*
X129091639Y-88723089D01*
X129210110Y-88674017D01*
X129335881Y-88649000D01*
X129464119Y-88649000D01*
X129589890Y-88674017D01*
X129589890Y-88674017D01*
G37*
G36*
X95218412Y-86985525D02*
X95289120Y-87006975D01*
X95303424Y-87011314D01*
X95366533Y-87045047D01*
X95381777Y-87053195D01*
X95450446Y-87109550D01*
X95450448Y-87109552D01*
X95506807Y-87178226D01*
X95548686Y-87256575D01*
X95551442Y-87265662D01*
X95574475Y-87341587D01*
X95581000Y-87407842D01*
X95581000Y-88652158D01*
X95574475Y-88718413D01*
X95551710Y-88793456D01*
X95548686Y-88803425D01*
X95506807Y-88881774D01*
X95450448Y-88950448D01*
X95381774Y-89006807D01*
X95303425Y-89048686D01*
X95293456Y-89051710D01*
X95218413Y-89074475D01*
X95130000Y-89083182D01*
X95041588Y-89074475D01*
X94966545Y-89051710D01*
X94956576Y-89048686D01*
X94878227Y-89006807D01*
X94809553Y-88950448D01*
X94753194Y-88881774D01*
X94711315Y-88803425D01*
X94708291Y-88793456D01*
X94685526Y-88718413D01*
X94679001Y-88652158D01*
X94679000Y-87407843D01*
X94685525Y-87341588D01*
X94711313Y-87256580D01*
X94711314Y-87256576D01*
X94753193Y-87178227D01*
X94753195Y-87178223D01*
X94809550Y-87109554D01*
X94809555Y-87109550D01*
X94878226Y-87053193D01*
X94956575Y-87011314D01*
X94970879Y-87006975D01*
X95041587Y-86985525D01*
X95130000Y-86976818D01*
X95218412Y-86985525D01*
X95218412Y-86985525D01*
G37*
G36*
X96468412Y-86985525D02*
X96539120Y-87006975D01*
X96553424Y-87011314D01*
X96616533Y-87045047D01*
X96631777Y-87053195D01*
X96700446Y-87109550D01*
X96700448Y-87109552D01*
X96756807Y-87178226D01*
X96798686Y-87256575D01*
X96801442Y-87265662D01*
X96824475Y-87341587D01*
X96831000Y-87407842D01*
X96831000Y-88652158D01*
X96824475Y-88718413D01*
X96801710Y-88793456D01*
X96798686Y-88803425D01*
X96756807Y-88881774D01*
X96700448Y-88950448D01*
X96631774Y-89006807D01*
X96553425Y-89048686D01*
X96543456Y-89051710D01*
X96468413Y-89074475D01*
X96380000Y-89083182D01*
X96291588Y-89074475D01*
X96216545Y-89051710D01*
X96206576Y-89048686D01*
X96128227Y-89006807D01*
X96059553Y-88950448D01*
X96003194Y-88881774D01*
X95961315Y-88803425D01*
X95958291Y-88793456D01*
X95935526Y-88718413D01*
X95929001Y-88652158D01*
X95929000Y-87407843D01*
X95935525Y-87341588D01*
X95961313Y-87256580D01*
X95961314Y-87256576D01*
X96003193Y-87178227D01*
X96003195Y-87178223D01*
X96059550Y-87109554D01*
X96059555Y-87109550D01*
X96128226Y-87053193D01*
X96206575Y-87011314D01*
X96220879Y-87006975D01*
X96291587Y-86985525D01*
X96380000Y-86976818D01*
X96468412Y-86985525D01*
X96468412Y-86985525D01*
G37*
G36*
X94199683Y-86982725D02*
X94230144Y-86991966D01*
X94258223Y-87006975D01*
X94282831Y-87027169D01*
X94303025Y-87051777D01*
X94318034Y-87079856D01*
X94327275Y-87110317D01*
X94331000Y-87148140D01*
X94331000Y-88911860D01*
X94327275Y-88949683D01*
X94318034Y-88980144D01*
X94303025Y-89008223D01*
X94282831Y-89032831D01*
X94258223Y-89053025D01*
X94230144Y-89068034D01*
X94199683Y-89077275D01*
X94161860Y-89081000D01*
X93598140Y-89081000D01*
X93560317Y-89077275D01*
X93529856Y-89068034D01*
X93501777Y-89053025D01*
X93477169Y-89032831D01*
X93456975Y-89008223D01*
X93441966Y-88980144D01*
X93432725Y-88949683D01*
X93429000Y-88911860D01*
X93429000Y-87148140D01*
X93432725Y-87110317D01*
X93441966Y-87079856D01*
X93456975Y-87051777D01*
X93477169Y-87027169D01*
X93501777Y-87006975D01*
X93529856Y-86991966D01*
X93560317Y-86982725D01*
X93598140Y-86979000D01*
X94161860Y-86979000D01*
X94199683Y-86982725D01*
X94199683Y-86982725D01*
G37*
G36*
X109646821Y-85921313D02*
X109646824Y-85921314D01*
X109646825Y-85921314D01*
X109807239Y-85969975D01*
X109807241Y-85969976D01*
X109807244Y-85969977D01*
X109955078Y-86048995D01*
X110084659Y-86155341D01*
X110191005Y-86284922D01*
X110270023Y-86432756D01*
X110270024Y-86432759D01*
X110270025Y-86432761D01*
X110311689Y-86570110D01*
X110318687Y-86593179D01*
X110335117Y-86760000D01*
X110318687Y-86926821D01*
X110318686Y-86926824D01*
X110318686Y-86926825D01*
X110272265Y-87079856D01*
X110270023Y-87087244D01*
X110191005Y-87235078D01*
X110084659Y-87364659D01*
X109955078Y-87471005D01*
X109807244Y-87550023D01*
X109807241Y-87550024D01*
X109807239Y-87550025D01*
X109646825Y-87598686D01*
X109646824Y-87598686D01*
X109646821Y-87598687D01*
X109521804Y-87611000D01*
X108638196Y-87611000D01*
X108513179Y-87598687D01*
X108513176Y-87598686D01*
X108513175Y-87598686D01*
X108352761Y-87550025D01*
X108352759Y-87550024D01*
X108352756Y-87550023D01*
X108204922Y-87471005D01*
X108075341Y-87364659D01*
X107968995Y-87235078D01*
X107889977Y-87087244D01*
X107887736Y-87079856D01*
X107841314Y-86926825D01*
X107841314Y-86926824D01*
X107841313Y-86926821D01*
X107824883Y-86760000D01*
X107841313Y-86593179D01*
X107848311Y-86570110D01*
X107889975Y-86432761D01*
X107889976Y-86432759D01*
X107889977Y-86432756D01*
X107968995Y-86284922D01*
X108075341Y-86155341D01*
X108204922Y-86048995D01*
X108352756Y-85969977D01*
X108352759Y-85969976D01*
X108352761Y-85969975D01*
X108513175Y-85921314D01*
X108513176Y-85921314D01*
X108513179Y-85921313D01*
X108638196Y-85909000D01*
X109521804Y-85909000D01*
X109646821Y-85921313D01*
X109646821Y-85921313D01*
G37*
G36*
X119606821Y-85921313D02*
X119606824Y-85921314D01*
X119606825Y-85921314D01*
X119767239Y-85969975D01*
X119767241Y-85969976D01*
X119767244Y-85969977D01*
X119915078Y-86048995D01*
X120044659Y-86155341D01*
X120151005Y-86284922D01*
X120230023Y-86432756D01*
X120230024Y-86432759D01*
X120230025Y-86432761D01*
X120271689Y-86570110D01*
X120278687Y-86593179D01*
X120295117Y-86760000D01*
X120278687Y-86926821D01*
X120278686Y-86926824D01*
X120278686Y-86926825D01*
X120232265Y-87079856D01*
X120230023Y-87087244D01*
X120151005Y-87235078D01*
X120044659Y-87364659D01*
X119915078Y-87471005D01*
X119767244Y-87550023D01*
X119767241Y-87550024D01*
X119767239Y-87550025D01*
X119606825Y-87598686D01*
X119606824Y-87598686D01*
X119606821Y-87598687D01*
X119481804Y-87611000D01*
X118998196Y-87611000D01*
X118873179Y-87598687D01*
X118873176Y-87598686D01*
X118873175Y-87598686D01*
X118712761Y-87550025D01*
X118712759Y-87550024D01*
X118712756Y-87550023D01*
X118564922Y-87471005D01*
X118435341Y-87364659D01*
X118328995Y-87235078D01*
X118249977Y-87087244D01*
X118247736Y-87079856D01*
X118201314Y-86926825D01*
X118201314Y-86926824D01*
X118201313Y-86926821D01*
X118184883Y-86760000D01*
X118201313Y-86593179D01*
X118208311Y-86570110D01*
X118249975Y-86432761D01*
X118249976Y-86432759D01*
X118249977Y-86432756D01*
X118328995Y-86284922D01*
X118435341Y-86155341D01*
X118564922Y-86048995D01*
X118712756Y-85969977D01*
X118712759Y-85969976D01*
X118712761Y-85969975D01*
X118873175Y-85921314D01*
X118873176Y-85921314D01*
X118873179Y-85921313D01*
X118998196Y-85909000D01*
X119481804Y-85909000D01*
X119606821Y-85921313D01*
X119606821Y-85921313D01*
G37*
G36*
X102026821Y-85921313D02*
X102026824Y-85921314D01*
X102026825Y-85921314D01*
X102187239Y-85969975D01*
X102187241Y-85969976D01*
X102187244Y-85969977D01*
X102335078Y-86048995D01*
X102464659Y-86155341D01*
X102571005Y-86284922D01*
X102650023Y-86432756D01*
X102650024Y-86432759D01*
X102650025Y-86432761D01*
X102691689Y-86570110D01*
X102698687Y-86593179D01*
X102715117Y-86760000D01*
X102698687Y-86926821D01*
X102698686Y-86926824D01*
X102698686Y-86926825D01*
X102652265Y-87079856D01*
X102650023Y-87087244D01*
X102571005Y-87235078D01*
X102464659Y-87364659D01*
X102335078Y-87471005D01*
X102187244Y-87550023D01*
X102187241Y-87550024D01*
X102187239Y-87550025D01*
X102026825Y-87598686D01*
X102026824Y-87598686D01*
X102026821Y-87598687D01*
X101901804Y-87611000D01*
X101018196Y-87611000D01*
X100893179Y-87598687D01*
X100893176Y-87598686D01*
X100893175Y-87598686D01*
X100732761Y-87550025D01*
X100732759Y-87550024D01*
X100732756Y-87550023D01*
X100584922Y-87471005D01*
X100455341Y-87364659D01*
X100348995Y-87235078D01*
X100269977Y-87087244D01*
X100267736Y-87079856D01*
X100221314Y-86926825D01*
X100221314Y-86926824D01*
X100221313Y-86926821D01*
X100204883Y-86760000D01*
X100221313Y-86593179D01*
X100228311Y-86570110D01*
X100269975Y-86432761D01*
X100269976Y-86432759D01*
X100269977Y-86432756D01*
X100348995Y-86284922D01*
X100455341Y-86155341D01*
X100584922Y-86048995D01*
X100732756Y-85969977D01*
X100732759Y-85969976D01*
X100732761Y-85969975D01*
X100893175Y-85921314D01*
X100893176Y-85921314D01*
X100893179Y-85921313D01*
X101018196Y-85909000D01*
X101901804Y-85909000D01*
X102026821Y-85921313D01*
X102026821Y-85921313D01*
G37*
G36*
X114933993Y-85954203D02*
X114998414Y-85973744D01*
X115057776Y-86005475D01*
X115109817Y-86048183D01*
X115152525Y-86100224D01*
X115184256Y-86159586D01*
X115203797Y-86224007D01*
X115211000Y-86297141D01*
X115211000Y-87222859D01*
X115203797Y-87295993D01*
X115184256Y-87360414D01*
X115152525Y-87419776D01*
X115109817Y-87471817D01*
X115057776Y-87514525D01*
X114998414Y-87546256D01*
X114933993Y-87565797D01*
X114860859Y-87573000D01*
X113459141Y-87573000D01*
X113386007Y-87565797D01*
X113321586Y-87546256D01*
X113262224Y-87514525D01*
X113210183Y-87471817D01*
X113167475Y-87419776D01*
X113135744Y-87360414D01*
X113116203Y-87295993D01*
X113109000Y-87222859D01*
X113109000Y-86297141D01*
X113116203Y-86224007D01*
X113135744Y-86159586D01*
X113167475Y-86100224D01*
X113210183Y-86048183D01*
X113262224Y-86005475D01*
X113321586Y-85973744D01*
X113386007Y-85954203D01*
X113459141Y-85947000D01*
X114860859Y-85947000D01*
X114933993Y-85954203D01*
X114933993Y-85954203D01*
G37*
G36*
X129589890Y-86134017D02*
X129708361Y-86183089D01*
X129708364Y-86183091D01*
X129730586Y-86197939D01*
X129814992Y-86254338D01*
X129905662Y-86345008D01*
X129905664Y-86345011D01*
X129905665Y-86345012D01*
X129964294Y-86432756D01*
X129976911Y-86451639D01*
X130025983Y-86570110D01*
X130051000Y-86695881D01*
X130051000Y-86824119D01*
X130025983Y-86949890D01*
X129976911Y-87068361D01*
X129976909Y-87068364D01*
X129911337Y-87166500D01*
X129905662Y-87174992D01*
X129814992Y-87265662D01*
X129814989Y-87265664D01*
X129814988Y-87265665D01*
X129708364Y-87336909D01*
X129708361Y-87336911D01*
X129589890Y-87385983D01*
X129464119Y-87411000D01*
X129335881Y-87411000D01*
X129210110Y-87385983D01*
X129091639Y-87336911D01*
X129091636Y-87336909D01*
X128985012Y-87265665D01*
X128985011Y-87265664D01*
X128985008Y-87265662D01*
X128894338Y-87174992D01*
X128888664Y-87166500D01*
X128823091Y-87068364D01*
X128823089Y-87068361D01*
X128774017Y-86949890D01*
X128749000Y-86824119D01*
X128749000Y-86695881D01*
X128774017Y-86570110D01*
X128823089Y-86451639D01*
X128835706Y-86432756D01*
X128894335Y-86345012D01*
X128894336Y-86345011D01*
X128894338Y-86345008D01*
X128985008Y-86254338D01*
X129069415Y-86197939D01*
X129091636Y-86183091D01*
X129091639Y-86183089D01*
X129210110Y-86134017D01*
X129335881Y-86109000D01*
X129464119Y-86109000D01*
X129589890Y-86134017D01*
X129589890Y-86134017D01*
G37*
G36*
X142208413Y-83175525D02*
X142279121Y-83196975D01*
X142293425Y-83201314D01*
X142371774Y-83243193D01*
X142440448Y-83299552D01*
X142496807Y-83368226D01*
X142538686Y-83446575D01*
X142538687Y-83446579D01*
X142564475Y-83531587D01*
X142571000Y-83597842D01*
X142571000Y-84842158D01*
X142564475Y-84908413D01*
X142544419Y-84974525D01*
X142538686Y-84993425D01*
X142496807Y-85071774D01*
X142440450Y-85140446D01*
X142440446Y-85140450D01*
X142371777Y-85196805D01*
X142371773Y-85196807D01*
X142293424Y-85238686D01*
X142283455Y-85241710D01*
X142208412Y-85264475D01*
X142120000Y-85273182D01*
X142031587Y-85264475D01*
X141956544Y-85241710D01*
X141946575Y-85238686D01*
X141868226Y-85196807D01*
X141799552Y-85140448D01*
X141798924Y-85139683D01*
X141743195Y-85071777D01*
X141729150Y-85045500D01*
X141701314Y-84993424D01*
X141695581Y-84974525D01*
X141675525Y-84908412D01*
X141669000Y-84842157D01*
X141669001Y-83597842D01*
X141675526Y-83531587D01*
X141701314Y-83446579D01*
X141701315Y-83446575D01*
X141743194Y-83368226D01*
X141799553Y-83299552D01*
X141868227Y-83243193D01*
X141946576Y-83201314D01*
X141960880Y-83196975D01*
X142031588Y-83175525D01*
X142120000Y-83166818D01*
X142208413Y-83175525D01*
X142208413Y-83175525D01*
G37*
G36*
X140958413Y-83175525D02*
X141029121Y-83196975D01*
X141043425Y-83201314D01*
X141121774Y-83243193D01*
X141190448Y-83299552D01*
X141246807Y-83368226D01*
X141288686Y-83446575D01*
X141288687Y-83446579D01*
X141314475Y-83531587D01*
X141321000Y-83597842D01*
X141321000Y-84842158D01*
X141314475Y-84908413D01*
X141294419Y-84974525D01*
X141288686Y-84993425D01*
X141246807Y-85071774D01*
X141190450Y-85140446D01*
X141190446Y-85140450D01*
X141121777Y-85196805D01*
X141121773Y-85196807D01*
X141043424Y-85238686D01*
X141033455Y-85241710D01*
X140958412Y-85264475D01*
X140870000Y-85273182D01*
X140781587Y-85264475D01*
X140706544Y-85241710D01*
X140696575Y-85238686D01*
X140618226Y-85196807D01*
X140549552Y-85140448D01*
X140548924Y-85139683D01*
X140493195Y-85071777D01*
X140479150Y-85045500D01*
X140451314Y-84993424D01*
X140445581Y-84974525D01*
X140425525Y-84908412D01*
X140419000Y-84842157D01*
X140419001Y-83597842D01*
X140425526Y-83531587D01*
X140451314Y-83446579D01*
X140451315Y-83446575D01*
X140493194Y-83368226D01*
X140549553Y-83299552D01*
X140618227Y-83243193D01*
X140696576Y-83201314D01*
X140710880Y-83196975D01*
X140781588Y-83175525D01*
X140870000Y-83166818D01*
X140958413Y-83175525D01*
X140958413Y-83175525D01*
G37*
G36*
X143689683Y-83172725D02*
X143720144Y-83181966D01*
X143748223Y-83196975D01*
X143772831Y-83217169D01*
X143793025Y-83241777D01*
X143808034Y-83269856D01*
X143817275Y-83300317D01*
X143821000Y-83338140D01*
X143821000Y-85101860D01*
X143817275Y-85139683D01*
X143808034Y-85170144D01*
X143793025Y-85198223D01*
X143772831Y-85222831D01*
X143748223Y-85243025D01*
X143720144Y-85258034D01*
X143689683Y-85267275D01*
X143651860Y-85271000D01*
X143088140Y-85271000D01*
X143050317Y-85267275D01*
X143019856Y-85258034D01*
X142991777Y-85243025D01*
X142967169Y-85222831D01*
X142946975Y-85198223D01*
X142931966Y-85170144D01*
X142922725Y-85139683D01*
X142919000Y-85101860D01*
X142919000Y-83338140D01*
X142922725Y-83300317D01*
X142931966Y-83269856D01*
X142946975Y-83241777D01*
X142967169Y-83217169D01*
X142991777Y-83196975D01*
X143019856Y-83181966D01*
X143050317Y-83172725D01*
X143088140Y-83169000D01*
X143651860Y-83169000D01*
X143689683Y-83172725D01*
X143689683Y-83172725D01*
G37*
G36*
X102026821Y-83381313D02*
X102026824Y-83381314D01*
X102026825Y-83381314D01*
X102187239Y-83429975D01*
X102187241Y-83429976D01*
X102187244Y-83429977D01*
X102335078Y-83508995D01*
X102464659Y-83615341D01*
X102571005Y-83744922D01*
X102650023Y-83892756D01*
X102650024Y-83892759D01*
X102650025Y-83892761D01*
X102681729Y-83997275D01*
X102698687Y-84053179D01*
X102715117Y-84220000D01*
X102698687Y-84386821D01*
X102698686Y-84386824D01*
X102698686Y-84386825D01*
X102655751Y-84528364D01*
X102650023Y-84547244D01*
X102571005Y-84695078D01*
X102464659Y-84824659D01*
X102335078Y-84931005D01*
X102187244Y-85010023D01*
X102187241Y-85010024D01*
X102187239Y-85010025D01*
X102026825Y-85058686D01*
X102026824Y-85058686D01*
X102026821Y-85058687D01*
X101901804Y-85071000D01*
X101018196Y-85071000D01*
X100893179Y-85058687D01*
X100893176Y-85058686D01*
X100893175Y-85058686D01*
X100732761Y-85010025D01*
X100732759Y-85010024D01*
X100732756Y-85010023D01*
X100584922Y-84931005D01*
X100455341Y-84824659D01*
X100348995Y-84695078D01*
X100269977Y-84547244D01*
X100264250Y-84528364D01*
X100221314Y-84386825D01*
X100221314Y-84386824D01*
X100221313Y-84386821D01*
X100204883Y-84220000D01*
X100221313Y-84053179D01*
X100238271Y-83997275D01*
X100269975Y-83892761D01*
X100269976Y-83892759D01*
X100269977Y-83892756D01*
X100348995Y-83744922D01*
X100455341Y-83615341D01*
X100584922Y-83508995D01*
X100732756Y-83429977D01*
X100732759Y-83429976D01*
X100732761Y-83429975D01*
X100893175Y-83381314D01*
X100893176Y-83381314D01*
X100893179Y-83381313D01*
X101018196Y-83369000D01*
X101901804Y-83369000D01*
X102026821Y-83381313D01*
X102026821Y-83381313D01*
G37*
G36*
X109646821Y-83381313D02*
X109646824Y-83381314D01*
X109646825Y-83381314D01*
X109807239Y-83429975D01*
X109807241Y-83429976D01*
X109807244Y-83429977D01*
X109955078Y-83508995D01*
X110084659Y-83615341D01*
X110191005Y-83744922D01*
X110270023Y-83892756D01*
X110270024Y-83892759D01*
X110270025Y-83892761D01*
X110301729Y-83997275D01*
X110318687Y-84053179D01*
X110335117Y-84220000D01*
X110318687Y-84386821D01*
X110318686Y-84386824D01*
X110318686Y-84386825D01*
X110275751Y-84528364D01*
X110270023Y-84547244D01*
X110191005Y-84695078D01*
X110084659Y-84824659D01*
X109955078Y-84931005D01*
X109807244Y-85010023D01*
X109807241Y-85010024D01*
X109807239Y-85010025D01*
X109646825Y-85058686D01*
X109646824Y-85058686D01*
X109646821Y-85058687D01*
X109521804Y-85071000D01*
X108638196Y-85071000D01*
X108513179Y-85058687D01*
X108513176Y-85058686D01*
X108513175Y-85058686D01*
X108352761Y-85010025D01*
X108352759Y-85010024D01*
X108352756Y-85010023D01*
X108204922Y-84931005D01*
X108075341Y-84824659D01*
X107968995Y-84695078D01*
X107889977Y-84547244D01*
X107884250Y-84528364D01*
X107841314Y-84386825D01*
X107841314Y-84386824D01*
X107841313Y-84386821D01*
X107824883Y-84220000D01*
X107841313Y-84053179D01*
X107858271Y-83997275D01*
X107889975Y-83892761D01*
X107889976Y-83892759D01*
X107889977Y-83892756D01*
X107968995Y-83744922D01*
X108075341Y-83615341D01*
X108204922Y-83508995D01*
X108352756Y-83429977D01*
X108352759Y-83429976D01*
X108352761Y-83429975D01*
X108513175Y-83381314D01*
X108513176Y-83381314D01*
X108513179Y-83381313D01*
X108638196Y-83369000D01*
X109521804Y-83369000D01*
X109646821Y-83381313D01*
X109646821Y-83381313D01*
G37*
G36*
X119606821Y-83381313D02*
X119606824Y-83381314D01*
X119606825Y-83381314D01*
X119767239Y-83429975D01*
X119767241Y-83429976D01*
X119767244Y-83429977D01*
X119915078Y-83508995D01*
X120044659Y-83615341D01*
X120151005Y-83744922D01*
X120230023Y-83892756D01*
X120230024Y-83892759D01*
X120230025Y-83892761D01*
X120261729Y-83997275D01*
X120278687Y-84053179D01*
X120295117Y-84220000D01*
X120278687Y-84386821D01*
X120278686Y-84386824D01*
X120278686Y-84386825D01*
X120235751Y-84528364D01*
X120230023Y-84547244D01*
X120151005Y-84695078D01*
X120044659Y-84824659D01*
X119915078Y-84931005D01*
X119767244Y-85010023D01*
X119767241Y-85010024D01*
X119767239Y-85010025D01*
X119606825Y-85058686D01*
X119606824Y-85058686D01*
X119606821Y-85058687D01*
X119481804Y-85071000D01*
X118998196Y-85071000D01*
X118873179Y-85058687D01*
X118873176Y-85058686D01*
X118873175Y-85058686D01*
X118712761Y-85010025D01*
X118712759Y-85010024D01*
X118712756Y-85010023D01*
X118564922Y-84931005D01*
X118435341Y-84824659D01*
X118328995Y-84695078D01*
X118249977Y-84547244D01*
X118244250Y-84528364D01*
X118201314Y-84386825D01*
X118201314Y-84386824D01*
X118201313Y-84386821D01*
X118184883Y-84220000D01*
X118201313Y-84053179D01*
X118218271Y-83997275D01*
X118249975Y-83892761D01*
X118249976Y-83892759D01*
X118249977Y-83892756D01*
X118328995Y-83744922D01*
X118435341Y-83615341D01*
X118564922Y-83508995D01*
X118712756Y-83429977D01*
X118712759Y-83429976D01*
X118712761Y-83429975D01*
X118873175Y-83381314D01*
X118873176Y-83381314D01*
X118873179Y-83381313D01*
X118998196Y-83369000D01*
X119481804Y-83369000D01*
X119606821Y-83381313D01*
X119606821Y-83381313D01*
G37*
G36*
X114933993Y-83414203D02*
X114998414Y-83433744D01*
X115057776Y-83465475D01*
X115109817Y-83508183D01*
X115152525Y-83560224D01*
X115184256Y-83619586D01*
X115203797Y-83684007D01*
X115211000Y-83757141D01*
X115211000Y-84682859D01*
X115203797Y-84755993D01*
X115184256Y-84820414D01*
X115152525Y-84879776D01*
X115109817Y-84931817D01*
X115057776Y-84974525D01*
X114998414Y-85006256D01*
X114933993Y-85025797D01*
X114860859Y-85033000D01*
X113459141Y-85033000D01*
X113386007Y-85025797D01*
X113321586Y-85006256D01*
X113262224Y-84974525D01*
X113210183Y-84931817D01*
X113167475Y-84879776D01*
X113135744Y-84820414D01*
X113116203Y-84755993D01*
X113109000Y-84682859D01*
X113109000Y-83757141D01*
X113116203Y-83684007D01*
X113135744Y-83619586D01*
X113167475Y-83560224D01*
X113210183Y-83508183D01*
X113262224Y-83465475D01*
X113321586Y-83433744D01*
X113386007Y-83414203D01*
X113459141Y-83407000D01*
X114860859Y-83407000D01*
X114933993Y-83414203D01*
X114933993Y-83414203D01*
G37*
G36*
X129589890Y-83594017D02*
X129708361Y-83643089D01*
X129708364Y-83643091D01*
X129730586Y-83657939D01*
X129814992Y-83714338D01*
X129905662Y-83805008D01*
X129905664Y-83805011D01*
X129905665Y-83805012D01*
X129915341Y-83819493D01*
X129976911Y-83911639D01*
X130025983Y-84030110D01*
X130051000Y-84155881D01*
X130051000Y-84284119D01*
X130025983Y-84409890D01*
X129976911Y-84528361D01*
X129976909Y-84528364D01*
X129911337Y-84626500D01*
X129905662Y-84634992D01*
X129814992Y-84725662D01*
X129814989Y-84725664D01*
X129814988Y-84725665D01*
X129708364Y-84796909D01*
X129708361Y-84796911D01*
X129589890Y-84845983D01*
X129464119Y-84871000D01*
X129335881Y-84871000D01*
X129210110Y-84845983D01*
X129091639Y-84796911D01*
X129091636Y-84796909D01*
X128985012Y-84725665D01*
X128985011Y-84725664D01*
X128985008Y-84725662D01*
X128894338Y-84634992D01*
X128888664Y-84626500D01*
X128823091Y-84528364D01*
X128823089Y-84528361D01*
X128774017Y-84409890D01*
X128749000Y-84284119D01*
X128749000Y-84155881D01*
X128774017Y-84030110D01*
X128823089Y-83911639D01*
X128884659Y-83819493D01*
X128894335Y-83805012D01*
X128894336Y-83805011D01*
X128894338Y-83805008D01*
X128985008Y-83714338D01*
X129069415Y-83657939D01*
X129091636Y-83643091D01*
X129091639Y-83643089D01*
X129210110Y-83594017D01*
X129335881Y-83569000D01*
X129464119Y-83569000D01*
X129589890Y-83594017D01*
X129589890Y-83594017D01*
G37*
G36*
X96468412Y-81905525D02*
X96539120Y-81926975D01*
X96553424Y-81931314D01*
X96616533Y-81965047D01*
X96631777Y-81973195D01*
X96700446Y-82029550D01*
X96700448Y-82029552D01*
X96756807Y-82098226D01*
X96798686Y-82176575D01*
X96801710Y-82186544D01*
X96824475Y-82261587D01*
X96831000Y-82327842D01*
X96831000Y-83572158D01*
X96824475Y-83638413D01*
X96801710Y-83713456D01*
X96798686Y-83723425D01*
X96756807Y-83801774D01*
X96700448Y-83870448D01*
X96631774Y-83926807D01*
X96553425Y-83968686D01*
X96543456Y-83971710D01*
X96468413Y-83994475D01*
X96380000Y-84003182D01*
X96291588Y-83994475D01*
X96216545Y-83971710D01*
X96206576Y-83968686D01*
X96128227Y-83926807D01*
X96059553Y-83870448D01*
X96003194Y-83801774D01*
X95961315Y-83723425D01*
X95958291Y-83713456D01*
X95935526Y-83638413D01*
X95929001Y-83572158D01*
X95929000Y-82327843D01*
X95935525Y-82261588D01*
X95961313Y-82176580D01*
X95961314Y-82176576D01*
X96003193Y-82098227D01*
X96003195Y-82098223D01*
X96059550Y-82029554D01*
X96059555Y-82029550D01*
X96128226Y-81973193D01*
X96206575Y-81931314D01*
X96220879Y-81926975D01*
X96291587Y-81905525D01*
X96380000Y-81896818D01*
X96468412Y-81905525D01*
X96468412Y-81905525D01*
G37*
G36*
X95218412Y-81905525D02*
X95289120Y-81926975D01*
X95303424Y-81931314D01*
X95366533Y-81965047D01*
X95381777Y-81973195D01*
X95450446Y-82029550D01*
X95450448Y-82029552D01*
X95506807Y-82098226D01*
X95548686Y-82176575D01*
X95551710Y-82186544D01*
X95574475Y-82261587D01*
X95581000Y-82327842D01*
X95581000Y-83572158D01*
X95574475Y-83638413D01*
X95551710Y-83713456D01*
X95548686Y-83723425D01*
X95506807Y-83801774D01*
X95450448Y-83870448D01*
X95381774Y-83926807D01*
X95303425Y-83968686D01*
X95293456Y-83971710D01*
X95218413Y-83994475D01*
X95130000Y-84003182D01*
X95041588Y-83994475D01*
X94966545Y-83971710D01*
X94956576Y-83968686D01*
X94878227Y-83926807D01*
X94809553Y-83870448D01*
X94753194Y-83801774D01*
X94711315Y-83723425D01*
X94708291Y-83713456D01*
X94685526Y-83638413D01*
X94679001Y-83572158D01*
X94679000Y-82327843D01*
X94685525Y-82261588D01*
X94711313Y-82176580D01*
X94711314Y-82176576D01*
X94753193Y-82098227D01*
X94753195Y-82098223D01*
X94809550Y-82029554D01*
X94809555Y-82029550D01*
X94878226Y-81973193D01*
X94956575Y-81931314D01*
X94970879Y-81926975D01*
X95041587Y-81905525D01*
X95130000Y-81896818D01*
X95218412Y-81905525D01*
X95218412Y-81905525D01*
G37*
G36*
X94199683Y-81902725D02*
X94230144Y-81911966D01*
X94258223Y-81926975D01*
X94282831Y-81947169D01*
X94303025Y-81971777D01*
X94318034Y-81999856D01*
X94327275Y-82030317D01*
X94331000Y-82068140D01*
X94331000Y-83831860D01*
X94327275Y-83869683D01*
X94318034Y-83900144D01*
X94303025Y-83928223D01*
X94282831Y-83952831D01*
X94258223Y-83973025D01*
X94230144Y-83988034D01*
X94199683Y-83997275D01*
X94161860Y-84001000D01*
X93598140Y-84001000D01*
X93560317Y-83997275D01*
X93529856Y-83988034D01*
X93501777Y-83973025D01*
X93477169Y-83952831D01*
X93456975Y-83928223D01*
X93441966Y-83900144D01*
X93432725Y-83869683D01*
X93429000Y-83831860D01*
X93429000Y-82068140D01*
X93432725Y-82030317D01*
X93441966Y-81999856D01*
X93456975Y-81971777D01*
X93477169Y-81947169D01*
X93501777Y-81926975D01*
X93529856Y-81911966D01*
X93560317Y-81902725D01*
X93598140Y-81899000D01*
X94161860Y-81899000D01*
X94199683Y-81902725D01*
X94199683Y-81902725D01*
G37*
G36*
X109646821Y-80841313D02*
X109646824Y-80841314D01*
X109646825Y-80841314D01*
X109807239Y-80889975D01*
X109807241Y-80889976D01*
X109807244Y-80889977D01*
X109955078Y-80968995D01*
X110084659Y-81075341D01*
X110191005Y-81204922D01*
X110270023Y-81352756D01*
X110318687Y-81513179D01*
X110335117Y-81680000D01*
X110318687Y-81846821D01*
X110318686Y-81846824D01*
X110318686Y-81846825D01*
X110272265Y-81999856D01*
X110270023Y-82007244D01*
X110191005Y-82155078D01*
X110084659Y-82284659D01*
X109955078Y-82391005D01*
X109807244Y-82470023D01*
X109807241Y-82470024D01*
X109807239Y-82470025D01*
X109646825Y-82518686D01*
X109646824Y-82518686D01*
X109646821Y-82518687D01*
X109521804Y-82531000D01*
X108638196Y-82531000D01*
X108513179Y-82518687D01*
X108513176Y-82518686D01*
X108513175Y-82518686D01*
X108352761Y-82470025D01*
X108352759Y-82470024D01*
X108352756Y-82470023D01*
X108204922Y-82391005D01*
X108075341Y-82284659D01*
X107968995Y-82155078D01*
X107889977Y-82007244D01*
X107887736Y-81999856D01*
X107841314Y-81846825D01*
X107841314Y-81846824D01*
X107841313Y-81846821D01*
X107824883Y-81680000D01*
X107841313Y-81513179D01*
X107889977Y-81352756D01*
X107968995Y-81204922D01*
X108075341Y-81075341D01*
X108204922Y-80968995D01*
X108352756Y-80889977D01*
X108352759Y-80889976D01*
X108352761Y-80889975D01*
X108513175Y-80841314D01*
X108513176Y-80841314D01*
X108513179Y-80841313D01*
X108638196Y-80829000D01*
X109521804Y-80829000D01*
X109646821Y-80841313D01*
X109646821Y-80841313D01*
G37*
G36*
X102026821Y-80841313D02*
X102026824Y-80841314D01*
X102026825Y-80841314D01*
X102187239Y-80889975D01*
X102187241Y-80889976D01*
X102187244Y-80889977D01*
X102335078Y-80968995D01*
X102464659Y-81075341D01*
X102571005Y-81204922D01*
X102650023Y-81352756D01*
X102698687Y-81513179D01*
X102715117Y-81680000D01*
X102698687Y-81846821D01*
X102698686Y-81846824D01*
X102698686Y-81846825D01*
X102652265Y-81999856D01*
X102650023Y-82007244D01*
X102571005Y-82155078D01*
X102464659Y-82284659D01*
X102335078Y-82391005D01*
X102187244Y-82470023D01*
X102187241Y-82470024D01*
X102187239Y-82470025D01*
X102026825Y-82518686D01*
X102026824Y-82518686D01*
X102026821Y-82518687D01*
X101901804Y-82531000D01*
X101018196Y-82531000D01*
X100893179Y-82518687D01*
X100893176Y-82518686D01*
X100893175Y-82518686D01*
X100732761Y-82470025D01*
X100732759Y-82470024D01*
X100732756Y-82470023D01*
X100584922Y-82391005D01*
X100455341Y-82284659D01*
X100348995Y-82155078D01*
X100269977Y-82007244D01*
X100267736Y-81999856D01*
X100221314Y-81846825D01*
X100221314Y-81846824D01*
X100221313Y-81846821D01*
X100204883Y-81680000D01*
X100221313Y-81513179D01*
X100269977Y-81352756D01*
X100348995Y-81204922D01*
X100455341Y-81075341D01*
X100584922Y-80968995D01*
X100732756Y-80889977D01*
X100732759Y-80889976D01*
X100732761Y-80889975D01*
X100893175Y-80841314D01*
X100893176Y-80841314D01*
X100893179Y-80841313D01*
X101018196Y-80829000D01*
X101901804Y-80829000D01*
X102026821Y-80841313D01*
X102026821Y-80841313D01*
G37*
G36*
X119606821Y-80841313D02*
X119606824Y-80841314D01*
X119606825Y-80841314D01*
X119767239Y-80889975D01*
X119767241Y-80889976D01*
X119767244Y-80889977D01*
X119915078Y-80968995D01*
X120044659Y-81075341D01*
X120151005Y-81204922D01*
X120230023Y-81352756D01*
X120278687Y-81513179D01*
X120295117Y-81680000D01*
X120278687Y-81846821D01*
X120278686Y-81846824D01*
X120278686Y-81846825D01*
X120232265Y-81999856D01*
X120230023Y-82007244D01*
X120151005Y-82155078D01*
X120044659Y-82284659D01*
X119915078Y-82391005D01*
X119767244Y-82470023D01*
X119767241Y-82470024D01*
X119767239Y-82470025D01*
X119606825Y-82518686D01*
X119606824Y-82518686D01*
X119606821Y-82518687D01*
X119481804Y-82531000D01*
X118998196Y-82531000D01*
X118873179Y-82518687D01*
X118873176Y-82518686D01*
X118873175Y-82518686D01*
X118712761Y-82470025D01*
X118712759Y-82470024D01*
X118712756Y-82470023D01*
X118564922Y-82391005D01*
X118435341Y-82284659D01*
X118328995Y-82155078D01*
X118249977Y-82007244D01*
X118247736Y-81999856D01*
X118201314Y-81846825D01*
X118201314Y-81846824D01*
X118201313Y-81846821D01*
X118184883Y-81680000D01*
X118201313Y-81513179D01*
X118249977Y-81352756D01*
X118328995Y-81204922D01*
X118435341Y-81075341D01*
X118564922Y-80968995D01*
X118712756Y-80889977D01*
X118712759Y-80889976D01*
X118712761Y-80889975D01*
X118873175Y-80841314D01*
X118873176Y-80841314D01*
X118873179Y-80841313D01*
X118998196Y-80829000D01*
X119481804Y-80829000D01*
X119606821Y-80841313D01*
X119606821Y-80841313D01*
G37*
G36*
X130173993Y-80874203D02*
X130238414Y-80893744D01*
X130297776Y-80925475D01*
X130349817Y-80968183D01*
X130392525Y-81020224D01*
X130424256Y-81079586D01*
X130443797Y-81144007D01*
X130451000Y-81217141D01*
X130451000Y-82142859D01*
X130443797Y-82215993D01*
X130424256Y-82280414D01*
X130392525Y-82339776D01*
X130349817Y-82391817D01*
X130297776Y-82434525D01*
X130238414Y-82466256D01*
X130173993Y-82485797D01*
X130100859Y-82493000D01*
X128699141Y-82493000D01*
X128626007Y-82485797D01*
X128561586Y-82466256D01*
X128502224Y-82434525D01*
X128450183Y-82391817D01*
X128407475Y-82339776D01*
X128375744Y-82280414D01*
X128356203Y-82215993D01*
X128349000Y-82142859D01*
X128349000Y-81217141D01*
X128356203Y-81144007D01*
X128375744Y-81079586D01*
X128407475Y-81020224D01*
X128450183Y-80968183D01*
X128502224Y-80925475D01*
X128561586Y-80893744D01*
X128626007Y-80874203D01*
X128699141Y-80867000D01*
X130100859Y-80867000D01*
X130173993Y-80874203D01*
X130173993Y-80874203D01*
G37*
G36*
X114933993Y-80874203D02*
X114998414Y-80893744D01*
X115057776Y-80925475D01*
X115109817Y-80968183D01*
X115152525Y-81020224D01*
X115184256Y-81079586D01*
X115203797Y-81144007D01*
X115211000Y-81217141D01*
X115211000Y-82142859D01*
X115203797Y-82215993D01*
X115184256Y-82280414D01*
X115152525Y-82339776D01*
X115109817Y-82391817D01*
X115057776Y-82434525D01*
X114998414Y-82466256D01*
X114933993Y-82485797D01*
X114860859Y-82493000D01*
X113459141Y-82493000D01*
X113386007Y-82485797D01*
X113321586Y-82466256D01*
X113262224Y-82434525D01*
X113210183Y-82391817D01*
X113167475Y-82339776D01*
X113135744Y-82280414D01*
X113116203Y-82215993D01*
X113109000Y-82142859D01*
X113109000Y-81217141D01*
X113116203Y-81144007D01*
X113135744Y-81079586D01*
X113167475Y-81020224D01*
X113210183Y-80968183D01*
X113262224Y-80925475D01*
X113321586Y-80893744D01*
X113386007Y-80874203D01*
X113459141Y-80867000D01*
X114860859Y-80867000D01*
X114933993Y-80874203D01*
X114933993Y-80874203D01*
G37*
G36*
X140958413Y-78095525D02*
X141029121Y-78116975D01*
X141043425Y-78121314D01*
X141121774Y-78163193D01*
X141190448Y-78219552D01*
X141246807Y-78288226D01*
X141288686Y-78366575D01*
X141288687Y-78366579D01*
X141314475Y-78451587D01*
X141321000Y-78517842D01*
X141321000Y-79762158D01*
X141314475Y-79828413D01*
X141294419Y-79894525D01*
X141288686Y-79913425D01*
X141246807Y-79991774D01*
X141190450Y-80060446D01*
X141190446Y-80060450D01*
X141121777Y-80116805D01*
X141121773Y-80116807D01*
X141043424Y-80158686D01*
X141033455Y-80161710D01*
X140958412Y-80184475D01*
X140870000Y-80193182D01*
X140781587Y-80184475D01*
X140706544Y-80161710D01*
X140696575Y-80158686D01*
X140618226Y-80116807D01*
X140549552Y-80060448D01*
X140548924Y-80059683D01*
X140493195Y-79991777D01*
X140479150Y-79965500D01*
X140451314Y-79913424D01*
X140445581Y-79894525D01*
X140425525Y-79828412D01*
X140419000Y-79762157D01*
X140419001Y-78517842D01*
X140425526Y-78451587D01*
X140451314Y-78366579D01*
X140451315Y-78366575D01*
X140493194Y-78288226D01*
X140549553Y-78219552D01*
X140618227Y-78163193D01*
X140696576Y-78121314D01*
X140710880Y-78116975D01*
X140781588Y-78095525D01*
X140870000Y-78086818D01*
X140958413Y-78095525D01*
X140958413Y-78095525D01*
G37*
G36*
X142208413Y-78095525D02*
X142279121Y-78116975D01*
X142293425Y-78121314D01*
X142371774Y-78163193D01*
X142440448Y-78219552D01*
X142496807Y-78288226D01*
X142538686Y-78366575D01*
X142538687Y-78366579D01*
X142564475Y-78451587D01*
X142571000Y-78517842D01*
X142571000Y-79762158D01*
X142564475Y-79828413D01*
X142544419Y-79894525D01*
X142538686Y-79913425D01*
X142496807Y-79991774D01*
X142440450Y-80060446D01*
X142440446Y-80060450D01*
X142371777Y-80116805D01*
X142371773Y-80116807D01*
X142293424Y-80158686D01*
X142283455Y-80161710D01*
X142208412Y-80184475D01*
X142120000Y-80193182D01*
X142031587Y-80184475D01*
X141956544Y-80161710D01*
X141946575Y-80158686D01*
X141868226Y-80116807D01*
X141799552Y-80060448D01*
X141798924Y-80059683D01*
X141743195Y-79991777D01*
X141729150Y-79965500D01*
X141701314Y-79913424D01*
X141695581Y-79894525D01*
X141675525Y-79828412D01*
X141669000Y-79762157D01*
X141669001Y-78517842D01*
X141675526Y-78451587D01*
X141701314Y-78366579D01*
X141701315Y-78366575D01*
X141743194Y-78288226D01*
X141799553Y-78219552D01*
X141868227Y-78163193D01*
X141946576Y-78121314D01*
X141960880Y-78116975D01*
X142031588Y-78095525D01*
X142120000Y-78086818D01*
X142208413Y-78095525D01*
X142208413Y-78095525D01*
G37*
G36*
X143689683Y-78092725D02*
X143720144Y-78101966D01*
X143748223Y-78116975D01*
X143772831Y-78137169D01*
X143793025Y-78161777D01*
X143808034Y-78189856D01*
X143817275Y-78220317D01*
X143821000Y-78258140D01*
X143821000Y-80021860D01*
X143817275Y-80059683D01*
X143808034Y-80090144D01*
X143793025Y-80118223D01*
X143772831Y-80142831D01*
X143748223Y-80163025D01*
X143720144Y-80178034D01*
X143689683Y-80187275D01*
X143651860Y-80191000D01*
X143088140Y-80191000D01*
X143050317Y-80187275D01*
X143019856Y-80178034D01*
X142991777Y-80163025D01*
X142967169Y-80142831D01*
X142946975Y-80118223D01*
X142931966Y-80090144D01*
X142922725Y-80059683D01*
X142919000Y-80021860D01*
X142919000Y-78258140D01*
X142922725Y-78220317D01*
X142931966Y-78189856D01*
X142946975Y-78161777D01*
X142967169Y-78137169D01*
X142991777Y-78116975D01*
X143019856Y-78101966D01*
X143050317Y-78092725D01*
X143088140Y-78089000D01*
X143651860Y-78089000D01*
X143689683Y-78092725D01*
X143689683Y-78092725D01*
G37*
G36*
X109646821Y-78301313D02*
X109646824Y-78301314D01*
X109646825Y-78301314D01*
X109807239Y-78349975D01*
X109807241Y-78349976D01*
X109807244Y-78349977D01*
X109955078Y-78428995D01*
X110084659Y-78535341D01*
X110191005Y-78664922D01*
X110270023Y-78812756D01*
X110270024Y-78812759D01*
X110270025Y-78812761D01*
X110301729Y-78917275D01*
X110318687Y-78973179D01*
X110335117Y-79140000D01*
X110318687Y-79306821D01*
X110270023Y-79467244D01*
X110191005Y-79615078D01*
X110084659Y-79744659D01*
X109955078Y-79851005D01*
X109807244Y-79930023D01*
X109807241Y-79930024D01*
X109807239Y-79930025D01*
X109646825Y-79978686D01*
X109646824Y-79978686D01*
X109646821Y-79978687D01*
X109521804Y-79991000D01*
X108638196Y-79991000D01*
X108513179Y-79978687D01*
X108513176Y-79978686D01*
X108513175Y-79978686D01*
X108352761Y-79930025D01*
X108352759Y-79930024D01*
X108352756Y-79930023D01*
X108204922Y-79851005D01*
X108075341Y-79744659D01*
X107968995Y-79615078D01*
X107889977Y-79467244D01*
X107841313Y-79306821D01*
X107824883Y-79140000D01*
X107841313Y-78973179D01*
X107858271Y-78917275D01*
X107889975Y-78812761D01*
X107889976Y-78812759D01*
X107889977Y-78812756D01*
X107968995Y-78664922D01*
X108075341Y-78535341D01*
X108204922Y-78428995D01*
X108352756Y-78349977D01*
X108352759Y-78349976D01*
X108352761Y-78349975D01*
X108513175Y-78301314D01*
X108513176Y-78301314D01*
X108513179Y-78301313D01*
X108638196Y-78289000D01*
X109521804Y-78289000D01*
X109646821Y-78301313D01*
X109646821Y-78301313D01*
G37*
G36*
X119606821Y-78301313D02*
X119606824Y-78301314D01*
X119606825Y-78301314D01*
X119767239Y-78349975D01*
X119767241Y-78349976D01*
X119767244Y-78349977D01*
X119915078Y-78428995D01*
X120044659Y-78535341D01*
X120151005Y-78664922D01*
X120230023Y-78812756D01*
X120230024Y-78812759D01*
X120230025Y-78812761D01*
X120261729Y-78917275D01*
X120278687Y-78973179D01*
X120295117Y-79140000D01*
X120278687Y-79306821D01*
X120230023Y-79467244D01*
X120151005Y-79615078D01*
X120044659Y-79744659D01*
X119915078Y-79851005D01*
X119767244Y-79930023D01*
X119767241Y-79930024D01*
X119767239Y-79930025D01*
X119606825Y-79978686D01*
X119606824Y-79978686D01*
X119606821Y-79978687D01*
X119481804Y-79991000D01*
X118998196Y-79991000D01*
X118873179Y-79978687D01*
X118873176Y-79978686D01*
X118873175Y-79978686D01*
X118712761Y-79930025D01*
X118712759Y-79930024D01*
X118712756Y-79930023D01*
X118564922Y-79851005D01*
X118435341Y-79744659D01*
X118328995Y-79615078D01*
X118249977Y-79467244D01*
X118201313Y-79306821D01*
X118184883Y-79140000D01*
X118201313Y-78973179D01*
X118218271Y-78917275D01*
X118249975Y-78812761D01*
X118249976Y-78812759D01*
X118249977Y-78812756D01*
X118328995Y-78664922D01*
X118435341Y-78535341D01*
X118564922Y-78428995D01*
X118712756Y-78349977D01*
X118712759Y-78349976D01*
X118712761Y-78349975D01*
X118873175Y-78301314D01*
X118873176Y-78301314D01*
X118873179Y-78301313D01*
X118998196Y-78289000D01*
X119481804Y-78289000D01*
X119606821Y-78301313D01*
X119606821Y-78301313D01*
G37*
G36*
X102026821Y-78301313D02*
X102026824Y-78301314D01*
X102026825Y-78301314D01*
X102187239Y-78349975D01*
X102187241Y-78349976D01*
X102187244Y-78349977D01*
X102335078Y-78428995D01*
X102464659Y-78535341D01*
X102571005Y-78664922D01*
X102650023Y-78812756D01*
X102650024Y-78812759D01*
X102650025Y-78812761D01*
X102681729Y-78917275D01*
X102698687Y-78973179D01*
X102715117Y-79140000D01*
X102698687Y-79306821D01*
X102650023Y-79467244D01*
X102571005Y-79615078D01*
X102464659Y-79744659D01*
X102335078Y-79851005D01*
X102187244Y-79930023D01*
X102187241Y-79930024D01*
X102187239Y-79930025D01*
X102026825Y-79978686D01*
X102026824Y-79978686D01*
X102026821Y-79978687D01*
X101901804Y-79991000D01*
X101018196Y-79991000D01*
X100893179Y-79978687D01*
X100893176Y-79978686D01*
X100893175Y-79978686D01*
X100732761Y-79930025D01*
X100732759Y-79930024D01*
X100732756Y-79930023D01*
X100584922Y-79851005D01*
X100455341Y-79744659D01*
X100348995Y-79615078D01*
X100269977Y-79467244D01*
X100221313Y-79306821D01*
X100204883Y-79140000D01*
X100221313Y-78973179D01*
X100238271Y-78917275D01*
X100269975Y-78812761D01*
X100269976Y-78812759D01*
X100269977Y-78812756D01*
X100348995Y-78664922D01*
X100455341Y-78535341D01*
X100584922Y-78428995D01*
X100732756Y-78349977D01*
X100732759Y-78349976D01*
X100732761Y-78349975D01*
X100893175Y-78301314D01*
X100893176Y-78301314D01*
X100893179Y-78301313D01*
X101018196Y-78289000D01*
X101901804Y-78289000D01*
X102026821Y-78301313D01*
X102026821Y-78301313D01*
G37*
G36*
X130173993Y-78334203D02*
X130238414Y-78353744D01*
X130297776Y-78385475D01*
X130349817Y-78428183D01*
X130392525Y-78480224D01*
X130424256Y-78539586D01*
X130443797Y-78604007D01*
X130451000Y-78677141D01*
X130451000Y-79602859D01*
X130443797Y-79675993D01*
X130424256Y-79740414D01*
X130392525Y-79799776D01*
X130349817Y-79851817D01*
X130297776Y-79894525D01*
X130238414Y-79926256D01*
X130173993Y-79945797D01*
X130100859Y-79953000D01*
X128699141Y-79953000D01*
X128626007Y-79945797D01*
X128561586Y-79926256D01*
X128502224Y-79894525D01*
X128450183Y-79851817D01*
X128407475Y-79799776D01*
X128375744Y-79740414D01*
X128356203Y-79675993D01*
X128349000Y-79602859D01*
X128349000Y-78677141D01*
X128356203Y-78604007D01*
X128375744Y-78539586D01*
X128407475Y-78480224D01*
X128450183Y-78428183D01*
X128502224Y-78385475D01*
X128561586Y-78353744D01*
X128626007Y-78334203D01*
X128699141Y-78327000D01*
X130100859Y-78327000D01*
X130173993Y-78334203D01*
X130173993Y-78334203D01*
G37*
G36*
X114933993Y-78334203D02*
X114998414Y-78353744D01*
X115057776Y-78385475D01*
X115109817Y-78428183D01*
X115152525Y-78480224D01*
X115184256Y-78539586D01*
X115203797Y-78604007D01*
X115211000Y-78677141D01*
X115211000Y-79602859D01*
X115203797Y-79675993D01*
X115184256Y-79740414D01*
X115152525Y-79799776D01*
X115109817Y-79851817D01*
X115057776Y-79894525D01*
X114998414Y-79926256D01*
X114933993Y-79945797D01*
X114860859Y-79953000D01*
X113459141Y-79953000D01*
X113386007Y-79945797D01*
X113321586Y-79926256D01*
X113262224Y-79894525D01*
X113210183Y-79851817D01*
X113167475Y-79799776D01*
X113135744Y-79740414D01*
X113116203Y-79675993D01*
X113109000Y-79602859D01*
X113109000Y-78677141D01*
X113116203Y-78604007D01*
X113135744Y-78539586D01*
X113167475Y-78480224D01*
X113210183Y-78428183D01*
X113262224Y-78385475D01*
X113321586Y-78353744D01*
X113386007Y-78334203D01*
X113459141Y-78327000D01*
X114860859Y-78327000D01*
X114933993Y-78334203D01*
X114933993Y-78334203D01*
G37*
G36*
X96428412Y-76825525D02*
X96499120Y-76846975D01*
X96513424Y-76851314D01*
X96576533Y-76885047D01*
X96591777Y-76893195D01*
X96660446Y-76949550D01*
X96660448Y-76949552D01*
X96716807Y-77018226D01*
X96758686Y-77096575D01*
X96761710Y-77106544D01*
X96784475Y-77181587D01*
X96791000Y-77247842D01*
X96791000Y-78492158D01*
X96784475Y-78558413D01*
X96761710Y-78633456D01*
X96758686Y-78643425D01*
X96716807Y-78721774D01*
X96660448Y-78790448D01*
X96591774Y-78846807D01*
X96513425Y-78888686D01*
X96503456Y-78891710D01*
X96428413Y-78914475D01*
X96340000Y-78923182D01*
X96251588Y-78914475D01*
X96176545Y-78891710D01*
X96166576Y-78888686D01*
X96088227Y-78846807D01*
X96019553Y-78790448D01*
X95963194Y-78721774D01*
X95921315Y-78643425D01*
X95918291Y-78633456D01*
X95895526Y-78558413D01*
X95889001Y-78492158D01*
X95889000Y-77247843D01*
X95895525Y-77181588D01*
X95921313Y-77096580D01*
X95921314Y-77096576D01*
X95963193Y-77018227D01*
X95963195Y-77018223D01*
X96019550Y-76949554D01*
X96019555Y-76949550D01*
X96088226Y-76893193D01*
X96166575Y-76851314D01*
X96180879Y-76846975D01*
X96251587Y-76825525D01*
X96340000Y-76816818D01*
X96428412Y-76825525D01*
X96428412Y-76825525D01*
G37*
G36*
X95178412Y-76825525D02*
X95249120Y-76846975D01*
X95263424Y-76851314D01*
X95326533Y-76885047D01*
X95341777Y-76893195D01*
X95410446Y-76949550D01*
X95410448Y-76949552D01*
X95466807Y-77018226D01*
X95508686Y-77096575D01*
X95511710Y-77106544D01*
X95534475Y-77181587D01*
X95541000Y-77247842D01*
X95541000Y-78492158D01*
X95534475Y-78558413D01*
X95511710Y-78633456D01*
X95508686Y-78643425D01*
X95466807Y-78721774D01*
X95410448Y-78790448D01*
X95341774Y-78846807D01*
X95263425Y-78888686D01*
X95253456Y-78891710D01*
X95178413Y-78914475D01*
X95090000Y-78923182D01*
X95001588Y-78914475D01*
X94926545Y-78891710D01*
X94916576Y-78888686D01*
X94838227Y-78846807D01*
X94769553Y-78790448D01*
X94713194Y-78721774D01*
X94671315Y-78643425D01*
X94668291Y-78633456D01*
X94645526Y-78558413D01*
X94639001Y-78492158D01*
X94639000Y-77247843D01*
X94645525Y-77181588D01*
X94671313Y-77096580D01*
X94671314Y-77096576D01*
X94713193Y-77018227D01*
X94713195Y-77018223D01*
X94769550Y-76949554D01*
X94769555Y-76949550D01*
X94838226Y-76893193D01*
X94916575Y-76851314D01*
X94930879Y-76846975D01*
X95001587Y-76825525D01*
X95090000Y-76816818D01*
X95178412Y-76825525D01*
X95178412Y-76825525D01*
G37*
G36*
X94159683Y-76822725D02*
X94190144Y-76831966D01*
X94218223Y-76846975D01*
X94242831Y-76867169D01*
X94263025Y-76891777D01*
X94278034Y-76919856D01*
X94287275Y-76950317D01*
X94291000Y-76988140D01*
X94291000Y-78751860D01*
X94287275Y-78789683D01*
X94278034Y-78820144D01*
X94263025Y-78848223D01*
X94242831Y-78872831D01*
X94218223Y-78893025D01*
X94190144Y-78908034D01*
X94159683Y-78917275D01*
X94121860Y-78921000D01*
X93558140Y-78921000D01*
X93520317Y-78917275D01*
X93489856Y-78908034D01*
X93461777Y-78893025D01*
X93437169Y-78872831D01*
X93416975Y-78848223D01*
X93401966Y-78820144D01*
X93392725Y-78789683D01*
X93389000Y-78751860D01*
X93389000Y-76988140D01*
X93392725Y-76950317D01*
X93401966Y-76919856D01*
X93416975Y-76891777D01*
X93437169Y-76867169D01*
X93461777Y-76846975D01*
X93489856Y-76831966D01*
X93520317Y-76822725D01*
X93558140Y-76819000D01*
X94121860Y-76819000D01*
X94159683Y-76822725D01*
X94159683Y-76822725D01*
G37*
G36*
X102026821Y-75761313D02*
X102026824Y-75761314D01*
X102026825Y-75761314D01*
X102187239Y-75809975D01*
X102187241Y-75809976D01*
X102187244Y-75809977D01*
X102335078Y-75888995D01*
X102464659Y-75995341D01*
X102571005Y-76124922D01*
X102650023Y-76272756D01*
X102698687Y-76433179D01*
X102715117Y-76600000D01*
X102698687Y-76766821D01*
X102698686Y-76766824D01*
X102698686Y-76766825D01*
X102652265Y-76919856D01*
X102650023Y-76927244D01*
X102571005Y-77075078D01*
X102464659Y-77204659D01*
X102335078Y-77311005D01*
X102187244Y-77390023D01*
X102187241Y-77390024D01*
X102187239Y-77390025D01*
X102026825Y-77438686D01*
X102026824Y-77438686D01*
X102026821Y-77438687D01*
X101901804Y-77451000D01*
X101018196Y-77451000D01*
X100893179Y-77438687D01*
X100893176Y-77438686D01*
X100893175Y-77438686D01*
X100732761Y-77390025D01*
X100732759Y-77390024D01*
X100732756Y-77390023D01*
X100584922Y-77311005D01*
X100455341Y-77204659D01*
X100348995Y-77075078D01*
X100269977Y-76927244D01*
X100267736Y-76919856D01*
X100221314Y-76766825D01*
X100221314Y-76766824D01*
X100221313Y-76766821D01*
X100204883Y-76600000D01*
X100221313Y-76433179D01*
X100269977Y-76272756D01*
X100348995Y-76124922D01*
X100455341Y-75995341D01*
X100584922Y-75888995D01*
X100732756Y-75809977D01*
X100732759Y-75809976D01*
X100732761Y-75809975D01*
X100893175Y-75761314D01*
X100893176Y-75761314D01*
X100893179Y-75761313D01*
X101018196Y-75749000D01*
X101901804Y-75749000D01*
X102026821Y-75761313D01*
X102026821Y-75761313D01*
G37*
G36*
X119998698Y-75756568D02*
X120066684Y-75777191D01*
X120129337Y-75810680D01*
X120184252Y-75855748D01*
X120229320Y-75910663D01*
X120262809Y-75973316D01*
X120283432Y-76041302D01*
X120291000Y-76118140D01*
X120291000Y-77081860D01*
X120283432Y-77158698D01*
X120262809Y-77226684D01*
X120229320Y-77289337D01*
X120184252Y-77344252D01*
X120129337Y-77389320D01*
X120066684Y-77422809D01*
X119998698Y-77443432D01*
X119921860Y-77451000D01*
X118558140Y-77451000D01*
X118481302Y-77443432D01*
X118413316Y-77422809D01*
X118350663Y-77389320D01*
X118295748Y-77344252D01*
X118250680Y-77289337D01*
X118217191Y-77226684D01*
X118196568Y-77158698D01*
X118189000Y-77081860D01*
X118189000Y-76118140D01*
X118196568Y-76041302D01*
X118217191Y-75973316D01*
X118250680Y-75910663D01*
X118295748Y-75855748D01*
X118350663Y-75810680D01*
X118413316Y-75777191D01*
X118481302Y-75756568D01*
X118558140Y-75749000D01*
X119921860Y-75749000D01*
X119998698Y-75756568D01*
X119998698Y-75756568D01*
G37*
G36*
X109646821Y-75761313D02*
X109646824Y-75761314D01*
X109646825Y-75761314D01*
X109807239Y-75809975D01*
X109807241Y-75809976D01*
X109807244Y-75809977D01*
X109955078Y-75888995D01*
X110084659Y-75995341D01*
X110191005Y-76124922D01*
X110270023Y-76272756D01*
X110318687Y-76433179D01*
X110335117Y-76600000D01*
X110318687Y-76766821D01*
X110318686Y-76766824D01*
X110318686Y-76766825D01*
X110272265Y-76919856D01*
X110270023Y-76927244D01*
X110191005Y-77075078D01*
X110084659Y-77204659D01*
X109955078Y-77311005D01*
X109807244Y-77390023D01*
X109807241Y-77390024D01*
X109807239Y-77390025D01*
X109646825Y-77438686D01*
X109646824Y-77438686D01*
X109646821Y-77438687D01*
X109521804Y-77451000D01*
X108638196Y-77451000D01*
X108513179Y-77438687D01*
X108513176Y-77438686D01*
X108513175Y-77438686D01*
X108352761Y-77390025D01*
X108352759Y-77390024D01*
X108352756Y-77390023D01*
X108204922Y-77311005D01*
X108075341Y-77204659D01*
X107968995Y-77075078D01*
X107889977Y-76927244D01*
X107887736Y-76919856D01*
X107841314Y-76766825D01*
X107841314Y-76766824D01*
X107841313Y-76766821D01*
X107824883Y-76600000D01*
X107841313Y-76433179D01*
X107889977Y-76272756D01*
X107968995Y-76124922D01*
X108075341Y-75995341D01*
X108204922Y-75888995D01*
X108352756Y-75809977D01*
X108352759Y-75809976D01*
X108352761Y-75809975D01*
X108513175Y-75761314D01*
X108513176Y-75761314D01*
X108513179Y-75761313D01*
X108638196Y-75749000D01*
X109521804Y-75749000D01*
X109646821Y-75761313D01*
X109646821Y-75761313D01*
G37*
G36*
X114933993Y-75794203D02*
X114998414Y-75813744D01*
X115057776Y-75845475D01*
X115109817Y-75888183D01*
X115152525Y-75940224D01*
X115184256Y-75999586D01*
X115203797Y-76064007D01*
X115211000Y-76137141D01*
X115211000Y-77062859D01*
X115203797Y-77135993D01*
X115184256Y-77200414D01*
X115152525Y-77259776D01*
X115109817Y-77311817D01*
X115057776Y-77354525D01*
X114998414Y-77386256D01*
X114933993Y-77405797D01*
X114860859Y-77413000D01*
X113459141Y-77413000D01*
X113386007Y-77405797D01*
X113321586Y-77386256D01*
X113262224Y-77354525D01*
X113210183Y-77311817D01*
X113167475Y-77259776D01*
X113135744Y-77200414D01*
X113116203Y-77135993D01*
X113109000Y-77062859D01*
X113109000Y-76137141D01*
X113116203Y-76064007D01*
X113135744Y-75999586D01*
X113167475Y-75940224D01*
X113210183Y-75888183D01*
X113262224Y-75845475D01*
X113321586Y-75813744D01*
X113386007Y-75794203D01*
X113459141Y-75787000D01*
X114860859Y-75787000D01*
X114933993Y-75794203D01*
X114933993Y-75794203D01*
G37*
G36*
X130173993Y-75794203D02*
X130238414Y-75813744D01*
X130297776Y-75845475D01*
X130349817Y-75888183D01*
X130392525Y-75940224D01*
X130424256Y-75999586D01*
X130443797Y-76064007D01*
X130451000Y-76137141D01*
X130451000Y-77062859D01*
X130443797Y-77135993D01*
X130424256Y-77200414D01*
X130392525Y-77259776D01*
X130349817Y-77311817D01*
X130297776Y-77354525D01*
X130238414Y-77386256D01*
X130173993Y-77405797D01*
X130100859Y-77413000D01*
X128699141Y-77413000D01*
X128626007Y-77405797D01*
X128561586Y-77386256D01*
X128502224Y-77354525D01*
X128450183Y-77311817D01*
X128407475Y-77259776D01*
X128375744Y-77200414D01*
X128356203Y-77135993D01*
X128349000Y-77062859D01*
X128349000Y-76137141D01*
X128356203Y-76064007D01*
X128375744Y-75999586D01*
X128407475Y-75940224D01*
X128450183Y-75888183D01*
X128502224Y-75845475D01*
X128561586Y-75813744D01*
X128626007Y-75794203D01*
X128699141Y-75787000D01*
X130100859Y-75787000D01*
X130173993Y-75794203D01*
X130173993Y-75794203D01*
G37*
G36*
X142208413Y-73015525D02*
X142279121Y-73036975D01*
X142293425Y-73041314D01*
X142371774Y-73083193D01*
X142440448Y-73139552D01*
X142496807Y-73208226D01*
X142538686Y-73286575D01*
X142538687Y-73286579D01*
X142564475Y-73371587D01*
X142571000Y-73437842D01*
X142571000Y-74682158D01*
X142564475Y-74748413D01*
X142544419Y-74814525D01*
X142538686Y-74833425D01*
X142496807Y-74911774D01*
X142440450Y-74980446D01*
X142440446Y-74980450D01*
X142371777Y-75036805D01*
X142371773Y-75036807D01*
X142293424Y-75078686D01*
X142283455Y-75081710D01*
X142208412Y-75104475D01*
X142120000Y-75113182D01*
X142031587Y-75104475D01*
X141956544Y-75081710D01*
X141946575Y-75078686D01*
X141868226Y-75036807D01*
X141799552Y-74980448D01*
X141798924Y-74979683D01*
X141743195Y-74911777D01*
X141729150Y-74885500D01*
X141701314Y-74833424D01*
X141695581Y-74814525D01*
X141675525Y-74748412D01*
X141669000Y-74682157D01*
X141669001Y-73437842D01*
X141675526Y-73371587D01*
X141701314Y-73286579D01*
X141701315Y-73286575D01*
X141743194Y-73208226D01*
X141799553Y-73139552D01*
X141868227Y-73083193D01*
X141946576Y-73041314D01*
X141960880Y-73036975D01*
X142031588Y-73015525D01*
X142120000Y-73006818D01*
X142208413Y-73015525D01*
X142208413Y-73015525D01*
G37*
G36*
X140958413Y-73015525D02*
X141029121Y-73036975D01*
X141043425Y-73041314D01*
X141121774Y-73083193D01*
X141190448Y-73139552D01*
X141246807Y-73208226D01*
X141288686Y-73286575D01*
X141288687Y-73286579D01*
X141314475Y-73371587D01*
X141321000Y-73437842D01*
X141321000Y-74682158D01*
X141314475Y-74748413D01*
X141294419Y-74814525D01*
X141288686Y-74833425D01*
X141246807Y-74911774D01*
X141190450Y-74980446D01*
X141190446Y-74980450D01*
X141121777Y-75036805D01*
X141121773Y-75036807D01*
X141043424Y-75078686D01*
X141033455Y-75081710D01*
X140958412Y-75104475D01*
X140870000Y-75113182D01*
X140781587Y-75104475D01*
X140706544Y-75081710D01*
X140696575Y-75078686D01*
X140618226Y-75036807D01*
X140549552Y-74980448D01*
X140548924Y-74979683D01*
X140493195Y-74911777D01*
X140479150Y-74885500D01*
X140451314Y-74833424D01*
X140445581Y-74814525D01*
X140425525Y-74748412D01*
X140419000Y-74682157D01*
X140419001Y-73437842D01*
X140425526Y-73371587D01*
X140451314Y-73286579D01*
X140451315Y-73286575D01*
X140493194Y-73208226D01*
X140549553Y-73139552D01*
X140618227Y-73083193D01*
X140696576Y-73041314D01*
X140710880Y-73036975D01*
X140781588Y-73015525D01*
X140870000Y-73006818D01*
X140958413Y-73015525D01*
X140958413Y-73015525D01*
G37*
G36*
X143689683Y-73012725D02*
X143720144Y-73021966D01*
X143748223Y-73036975D01*
X143772831Y-73057169D01*
X143793025Y-73081777D01*
X143808034Y-73109856D01*
X143817275Y-73140317D01*
X143821000Y-73178140D01*
X143821000Y-74941860D01*
X143817275Y-74979683D01*
X143808034Y-75010144D01*
X143793025Y-75038223D01*
X143772831Y-75062831D01*
X143748223Y-75083025D01*
X143720144Y-75098034D01*
X143689683Y-75107275D01*
X143651860Y-75111000D01*
X143088140Y-75111000D01*
X143050317Y-75107275D01*
X143019856Y-75098034D01*
X142991777Y-75083025D01*
X142967169Y-75062831D01*
X142946975Y-75038223D01*
X142931966Y-75010144D01*
X142922725Y-74979683D01*
X142919000Y-74941860D01*
X142919000Y-73178140D01*
X142922725Y-73140317D01*
X142931966Y-73109856D01*
X142946975Y-73081777D01*
X142967169Y-73057169D01*
X142991777Y-73036975D01*
X143019856Y-73021966D01*
X143050317Y-73012725D01*
X143088140Y-73009000D01*
X143651860Y-73009000D01*
X143689683Y-73012725D01*
X143689683Y-73012725D01*
G37*
G36*
X130173993Y-73254203D02*
X130238414Y-73273744D01*
X130297776Y-73305475D01*
X130349817Y-73348183D01*
X130392525Y-73400224D01*
X130424256Y-73459586D01*
X130443797Y-73524007D01*
X130451000Y-73597141D01*
X130451000Y-74522859D01*
X130443797Y-74595993D01*
X130424256Y-74660414D01*
X130392525Y-74719776D01*
X130349817Y-74771817D01*
X130297776Y-74814525D01*
X130238414Y-74846256D01*
X130173993Y-74865797D01*
X130100859Y-74873000D01*
X128699141Y-74873000D01*
X128626007Y-74865797D01*
X128561586Y-74846256D01*
X128502224Y-74814525D01*
X128450183Y-74771817D01*
X128407475Y-74719776D01*
X128375744Y-74660414D01*
X128356203Y-74595993D01*
X128349000Y-74522859D01*
X128349000Y-73597141D01*
X128356203Y-73524007D01*
X128375744Y-73459586D01*
X128407475Y-73400224D01*
X128450183Y-73348183D01*
X128502224Y-73305475D01*
X128561586Y-73273744D01*
X128626007Y-73254203D01*
X128699141Y-73247000D01*
X130100859Y-73247000D01*
X130173993Y-73254203D01*
X130173993Y-73254203D01*
G37*
G36*
X114349890Y-73434017D02*
X114468361Y-73483089D01*
X114468364Y-73483091D01*
X114490586Y-73497939D01*
X114574992Y-73554338D01*
X114665662Y-73645008D01*
X114665664Y-73645011D01*
X114665665Y-73645012D01*
X114675341Y-73659493D01*
X114736911Y-73751639D01*
X114785983Y-73870110D01*
X114811000Y-73995881D01*
X114811000Y-74124119D01*
X114785983Y-74249890D01*
X114736911Y-74368361D01*
X114736909Y-74368364D01*
X114671337Y-74466500D01*
X114665662Y-74474992D01*
X114574992Y-74565662D01*
X114574989Y-74565664D01*
X114574988Y-74565665D01*
X114468364Y-74636909D01*
X114468361Y-74636911D01*
X114349890Y-74685983D01*
X114224119Y-74711000D01*
X114095881Y-74711000D01*
X113970110Y-74685983D01*
X113851639Y-74636911D01*
X113851636Y-74636909D01*
X113745012Y-74565665D01*
X113745011Y-74565664D01*
X113745008Y-74565662D01*
X113654338Y-74474992D01*
X113648664Y-74466500D01*
X113583091Y-74368364D01*
X113583089Y-74368361D01*
X113534017Y-74249890D01*
X113509000Y-74124119D01*
X113509000Y-73995881D01*
X113534017Y-73870110D01*
X113583089Y-73751639D01*
X113644659Y-73659493D01*
X113654335Y-73645012D01*
X113654336Y-73645011D01*
X113654338Y-73645008D01*
X113745008Y-73554338D01*
X113829415Y-73497939D01*
X113851636Y-73483091D01*
X113851639Y-73483089D01*
X113970110Y-73434017D01*
X114095881Y-73409000D01*
X114224119Y-73409000D01*
X114349890Y-73434017D01*
X114349890Y-73434017D01*
G37*
G36*
X96428412Y-71745525D02*
X96499120Y-71766975D01*
X96513424Y-71771314D01*
X96576533Y-71805047D01*
X96591777Y-71813195D01*
X96660446Y-71869550D01*
X96660448Y-71869552D01*
X96716807Y-71938226D01*
X96758686Y-72016575D01*
X96761442Y-72025662D01*
X96784475Y-72101587D01*
X96791000Y-72167842D01*
X96791000Y-73412158D01*
X96784475Y-73478413D01*
X96761710Y-73553456D01*
X96758686Y-73563425D01*
X96716807Y-73641774D01*
X96660448Y-73710448D01*
X96591774Y-73766807D01*
X96513425Y-73808686D01*
X96503456Y-73811710D01*
X96428413Y-73834475D01*
X96340000Y-73843182D01*
X96251588Y-73834475D01*
X96176545Y-73811710D01*
X96166576Y-73808686D01*
X96088227Y-73766807D01*
X96019553Y-73710448D01*
X95963194Y-73641774D01*
X95921315Y-73563425D01*
X95918291Y-73553456D01*
X95895526Y-73478413D01*
X95889001Y-73412158D01*
X95889000Y-72167843D01*
X95895525Y-72101588D01*
X95921313Y-72016580D01*
X95921314Y-72016576D01*
X95963193Y-71938227D01*
X95963195Y-71938223D01*
X96019550Y-71869554D01*
X96019555Y-71869550D01*
X96088226Y-71813193D01*
X96166575Y-71771314D01*
X96180879Y-71766975D01*
X96251587Y-71745525D01*
X96340000Y-71736818D01*
X96428412Y-71745525D01*
X96428412Y-71745525D01*
G37*
G36*
X95178412Y-71745525D02*
X95249120Y-71766975D01*
X95263424Y-71771314D01*
X95326533Y-71805047D01*
X95341777Y-71813195D01*
X95410446Y-71869550D01*
X95410448Y-71869552D01*
X95466807Y-71938226D01*
X95508686Y-72016575D01*
X95511442Y-72025662D01*
X95534475Y-72101587D01*
X95541000Y-72167842D01*
X95541000Y-73412158D01*
X95534475Y-73478413D01*
X95511710Y-73553456D01*
X95508686Y-73563425D01*
X95466807Y-73641774D01*
X95410448Y-73710448D01*
X95341774Y-73766807D01*
X95263425Y-73808686D01*
X95253456Y-73811710D01*
X95178413Y-73834475D01*
X95090000Y-73843182D01*
X95001588Y-73834475D01*
X94926545Y-73811710D01*
X94916576Y-73808686D01*
X94838227Y-73766807D01*
X94769553Y-73710448D01*
X94713194Y-73641774D01*
X94671315Y-73563425D01*
X94668291Y-73553456D01*
X94645526Y-73478413D01*
X94639001Y-73412158D01*
X94639000Y-72167843D01*
X94645525Y-72101588D01*
X94671313Y-72016580D01*
X94671314Y-72016576D01*
X94713193Y-71938227D01*
X94713195Y-71938223D01*
X94769550Y-71869554D01*
X94769555Y-71869550D01*
X94838226Y-71813193D01*
X94916575Y-71771314D01*
X94930879Y-71766975D01*
X95001587Y-71745525D01*
X95090000Y-71736818D01*
X95178412Y-71745525D01*
X95178412Y-71745525D01*
G37*
G36*
X94159683Y-71742725D02*
X94190144Y-71751966D01*
X94218223Y-71766975D01*
X94242831Y-71787169D01*
X94263025Y-71811777D01*
X94278034Y-71839856D01*
X94287275Y-71870317D01*
X94291000Y-71908140D01*
X94291000Y-73671860D01*
X94287275Y-73709683D01*
X94278034Y-73740144D01*
X94263025Y-73768223D01*
X94242831Y-73792831D01*
X94218223Y-73813025D01*
X94190144Y-73828034D01*
X94159683Y-73837275D01*
X94121860Y-73841000D01*
X93558140Y-73841000D01*
X93520317Y-73837275D01*
X93489856Y-73828034D01*
X93461777Y-73813025D01*
X93437169Y-73792831D01*
X93416975Y-73768223D01*
X93401966Y-73740144D01*
X93392725Y-73709683D01*
X93389000Y-73671860D01*
X93389000Y-71908140D01*
X93392725Y-71870317D01*
X93401966Y-71839856D01*
X93416975Y-71811777D01*
X93437169Y-71787169D01*
X93461777Y-71766975D01*
X93489856Y-71751966D01*
X93520317Y-71742725D01*
X93558140Y-71739000D01*
X94121860Y-71739000D01*
X94159683Y-71742725D01*
X94159683Y-71742725D01*
G37*
G36*
X130173993Y-70714203D02*
X130238414Y-70733744D01*
X130297776Y-70765475D01*
X130349817Y-70808183D01*
X130392525Y-70860224D01*
X130424256Y-70919586D01*
X130443797Y-70984007D01*
X130451000Y-71057141D01*
X130451000Y-71982859D01*
X130443797Y-72055993D01*
X130424256Y-72120414D01*
X130392525Y-72179776D01*
X130349817Y-72231817D01*
X130297776Y-72274525D01*
X130238414Y-72306256D01*
X130173993Y-72325797D01*
X130100859Y-72333000D01*
X128699141Y-72333000D01*
X128626007Y-72325797D01*
X128561586Y-72306256D01*
X128502224Y-72274525D01*
X128450183Y-72231817D01*
X128407475Y-72179776D01*
X128375744Y-72120414D01*
X128356203Y-72055993D01*
X128349000Y-71982859D01*
X128349000Y-71057141D01*
X128356203Y-70984007D01*
X128375744Y-70919586D01*
X128407475Y-70860224D01*
X128450183Y-70808183D01*
X128502224Y-70765475D01*
X128561586Y-70733744D01*
X128626007Y-70714203D01*
X128699141Y-70707000D01*
X130100859Y-70707000D01*
X130173993Y-70714203D01*
X130173993Y-70714203D01*
G37*
G36*
X114349890Y-70894017D02*
X114468361Y-70943089D01*
X114468364Y-70943091D01*
X114490586Y-70957939D01*
X114574992Y-71014338D01*
X114665662Y-71105008D01*
X114665664Y-71105011D01*
X114665665Y-71105012D01*
X114736909Y-71211636D01*
X114736911Y-71211639D01*
X114785983Y-71330110D01*
X114811000Y-71455881D01*
X114811000Y-71584119D01*
X114785983Y-71709890D01*
X114736911Y-71828361D01*
X114736909Y-71828364D01*
X114671337Y-71926500D01*
X114665662Y-71934992D01*
X114574992Y-72025662D01*
X114574989Y-72025664D01*
X114574988Y-72025665D01*
X114468364Y-72096909D01*
X114468361Y-72096911D01*
X114349890Y-72145983D01*
X114224119Y-72171000D01*
X114095881Y-72171000D01*
X113970110Y-72145983D01*
X113851639Y-72096911D01*
X113851636Y-72096909D01*
X113745012Y-72025665D01*
X113745011Y-72025664D01*
X113745008Y-72025662D01*
X113654338Y-71934992D01*
X113648664Y-71926500D01*
X113583091Y-71828364D01*
X113583089Y-71828361D01*
X113534017Y-71709890D01*
X113509000Y-71584119D01*
X113509000Y-71455881D01*
X113534017Y-71330110D01*
X113583089Y-71211639D01*
X113583091Y-71211636D01*
X113654335Y-71105012D01*
X113654336Y-71105011D01*
X113654338Y-71105008D01*
X113745008Y-71014338D01*
X113829415Y-70957939D01*
X113851636Y-70943091D01*
X113851639Y-70943089D01*
X113970110Y-70894017D01*
X114095881Y-70869000D01*
X114224119Y-70869000D01*
X114349890Y-70894017D01*
X114349890Y-70894017D01*
G37*
G36*
X140958413Y-67935525D02*
X141029121Y-67956975D01*
X141043425Y-67961314D01*
X141121774Y-68003193D01*
X141190448Y-68059552D01*
X141246807Y-68128226D01*
X141288686Y-68206575D01*
X141288687Y-68206579D01*
X141314475Y-68291587D01*
X141321000Y-68357842D01*
X141321000Y-69602158D01*
X141314475Y-69668413D01*
X141291710Y-69743456D01*
X141288686Y-69753425D01*
X141246807Y-69831774D01*
X141190450Y-69900446D01*
X141190446Y-69900450D01*
X141121777Y-69956805D01*
X141121773Y-69956807D01*
X141043424Y-69998686D01*
X141033455Y-70001710D01*
X140958412Y-70024475D01*
X140870000Y-70033182D01*
X140781587Y-70024475D01*
X140706544Y-70001710D01*
X140696575Y-69998686D01*
X140618226Y-69956807D01*
X140549552Y-69900448D01*
X140548924Y-69899683D01*
X140493195Y-69831777D01*
X140479150Y-69805500D01*
X140451314Y-69753424D01*
X140448290Y-69743455D01*
X140425525Y-69668412D01*
X140419000Y-69602157D01*
X140419001Y-68357842D01*
X140425526Y-68291587D01*
X140451314Y-68206579D01*
X140451315Y-68206575D01*
X140493194Y-68128226D01*
X140549553Y-68059552D01*
X140618227Y-68003193D01*
X140696576Y-67961314D01*
X140710880Y-67956975D01*
X140781588Y-67935525D01*
X140870000Y-67926818D01*
X140958413Y-67935525D01*
X140958413Y-67935525D01*
G37*
G36*
X142208413Y-67935525D02*
X142279121Y-67956975D01*
X142293425Y-67961314D01*
X142371774Y-68003193D01*
X142440448Y-68059552D01*
X142496807Y-68128226D01*
X142538686Y-68206575D01*
X142538687Y-68206579D01*
X142564475Y-68291587D01*
X142571000Y-68357842D01*
X142571000Y-69602158D01*
X142564475Y-69668413D01*
X142541710Y-69743456D01*
X142538686Y-69753425D01*
X142496807Y-69831774D01*
X142440450Y-69900446D01*
X142440446Y-69900450D01*
X142371777Y-69956805D01*
X142371773Y-69956807D01*
X142293424Y-69998686D01*
X142283455Y-70001710D01*
X142208412Y-70024475D01*
X142120000Y-70033182D01*
X142031587Y-70024475D01*
X141956544Y-70001710D01*
X141946575Y-69998686D01*
X141868226Y-69956807D01*
X141799552Y-69900448D01*
X141798924Y-69899683D01*
X141743195Y-69831777D01*
X141729150Y-69805500D01*
X141701314Y-69753424D01*
X141698290Y-69743455D01*
X141675525Y-69668412D01*
X141669000Y-69602157D01*
X141669001Y-68357842D01*
X141675526Y-68291587D01*
X141701314Y-68206579D01*
X141701315Y-68206575D01*
X141743194Y-68128226D01*
X141799553Y-68059552D01*
X141868227Y-68003193D01*
X141946576Y-67961314D01*
X141960880Y-67956975D01*
X142031588Y-67935525D01*
X142120000Y-67926818D01*
X142208413Y-67935525D01*
X142208413Y-67935525D01*
G37*
G36*
X143689683Y-67932725D02*
X143720144Y-67941966D01*
X143748223Y-67956975D01*
X143772831Y-67977169D01*
X143793025Y-68001777D01*
X143808034Y-68029856D01*
X143817275Y-68060317D01*
X143821000Y-68098140D01*
X143821000Y-69861860D01*
X143817275Y-69899683D01*
X143808034Y-69930144D01*
X143793025Y-69958223D01*
X143772831Y-69982831D01*
X143748223Y-70003025D01*
X143720144Y-70018034D01*
X143689683Y-70027275D01*
X143651860Y-70031000D01*
X143088140Y-70031000D01*
X143050317Y-70027275D01*
X143019856Y-70018034D01*
X142991777Y-70003025D01*
X142967169Y-69982831D01*
X142946975Y-69958223D01*
X142931966Y-69930144D01*
X142922725Y-69899683D01*
X142919000Y-69861860D01*
X142919000Y-68098140D01*
X142922725Y-68060317D01*
X142931966Y-68029856D01*
X142946975Y-68001777D01*
X142967169Y-67977169D01*
X142991777Y-67956975D01*
X143019856Y-67941966D01*
X143050317Y-67932725D01*
X143088140Y-67929000D01*
X143651860Y-67929000D01*
X143689683Y-67932725D01*
X143689683Y-67932725D01*
G37*
G36*
X129637142Y-68198242D02*
X129785102Y-68259530D01*
X129833079Y-68291587D01*
X129918257Y-68348501D01*
X130031499Y-68461743D01*
X130045986Y-68483425D01*
X130120470Y-68594898D01*
X130181758Y-68742858D01*
X130213000Y-68899925D01*
X130213000Y-69060075D01*
X130181758Y-69217142D01*
X130152256Y-69288364D01*
X130120471Y-69365100D01*
X130039913Y-69485665D01*
X130031498Y-69498258D01*
X129918258Y-69611498D01*
X129785102Y-69700470D01*
X129637142Y-69761758D01*
X129480075Y-69793000D01*
X129319925Y-69793000D01*
X129162858Y-69761758D01*
X129014898Y-69700470D01*
X128881742Y-69611498D01*
X128768502Y-69498258D01*
X128760088Y-69485665D01*
X128679529Y-69365100D01*
X128647744Y-69288364D01*
X128618242Y-69217142D01*
X128587000Y-69060075D01*
X128587000Y-68899925D01*
X128618242Y-68742858D01*
X128679530Y-68594898D01*
X128754014Y-68483425D01*
X128768501Y-68461743D01*
X128881743Y-68348501D01*
X128966921Y-68291587D01*
X129014898Y-68259530D01*
X129162858Y-68198242D01*
X129319925Y-68167000D01*
X129480075Y-68167000D01*
X129637142Y-68198242D01*
X129637142Y-68198242D01*
G37*
G36*
X114349890Y-68354017D02*
X114468361Y-68403089D01*
X114468364Y-68403091D01*
X114556143Y-68461743D01*
X114574992Y-68474338D01*
X114665662Y-68565008D01*
X114665664Y-68565011D01*
X114665665Y-68565012D01*
X114703606Y-68621795D01*
X114736911Y-68671639D01*
X114785983Y-68790110D01*
X114811000Y-68915881D01*
X114811000Y-69044119D01*
X114785983Y-69169890D01*
X114736911Y-69288361D01*
X114736909Y-69288364D01*
X114685636Y-69365100D01*
X114665662Y-69394992D01*
X114574992Y-69485662D01*
X114574989Y-69485664D01*
X114574988Y-69485665D01*
X114556141Y-69498258D01*
X114468361Y-69556911D01*
X114349890Y-69605983D01*
X114224119Y-69631000D01*
X114095881Y-69631000D01*
X113970110Y-69605983D01*
X113851639Y-69556911D01*
X113763859Y-69498258D01*
X113745012Y-69485665D01*
X113745011Y-69485664D01*
X113745008Y-69485662D01*
X113654338Y-69394992D01*
X113634365Y-69365100D01*
X113583091Y-69288364D01*
X113583089Y-69288361D01*
X113534017Y-69169890D01*
X113509000Y-69044119D01*
X113509000Y-68915881D01*
X113534017Y-68790110D01*
X113583089Y-68671639D01*
X113616394Y-68621795D01*
X113654335Y-68565012D01*
X113654336Y-68565011D01*
X113654338Y-68565008D01*
X113745008Y-68474338D01*
X113763858Y-68461743D01*
X113851636Y-68403091D01*
X113851639Y-68403089D01*
X113970110Y-68354017D01*
X114095881Y-68329000D01*
X114224119Y-68329000D01*
X114349890Y-68354017D01*
X114349890Y-68354017D01*
G37*
G36*
X96468412Y-66665525D02*
X96539120Y-66686975D01*
X96553424Y-66691314D01*
X96616533Y-66725047D01*
X96631777Y-66733195D01*
X96700446Y-66789550D01*
X96700448Y-66789552D01*
X96756807Y-66858226D01*
X96798686Y-66936575D01*
X96801442Y-66945662D01*
X96824475Y-67021587D01*
X96831000Y-67087842D01*
X96831000Y-68332158D01*
X96824475Y-68398413D01*
X96805263Y-68461743D01*
X96798686Y-68483425D01*
X96756807Y-68561774D01*
X96700448Y-68630448D01*
X96631774Y-68686807D01*
X96553425Y-68728686D01*
X96543456Y-68731710D01*
X96468413Y-68754475D01*
X96380000Y-68763182D01*
X96291588Y-68754475D01*
X96216545Y-68731710D01*
X96206576Y-68728686D01*
X96128227Y-68686807D01*
X96059553Y-68630448D01*
X96003194Y-68561774D01*
X95961315Y-68483425D01*
X95954738Y-68461743D01*
X95935526Y-68398413D01*
X95929001Y-68332158D01*
X95929000Y-67087843D01*
X95935525Y-67021588D01*
X95961313Y-66936580D01*
X95961314Y-66936576D01*
X96003193Y-66858227D01*
X96003195Y-66858223D01*
X96059550Y-66789554D01*
X96059555Y-66789550D01*
X96128226Y-66733193D01*
X96206575Y-66691314D01*
X96220879Y-66686975D01*
X96291587Y-66665525D01*
X96380000Y-66656818D01*
X96468412Y-66665525D01*
X96468412Y-66665525D01*
G37*
G36*
X95218412Y-66665525D02*
X95289120Y-66686975D01*
X95303424Y-66691314D01*
X95366533Y-66725047D01*
X95381777Y-66733195D01*
X95450446Y-66789550D01*
X95450448Y-66789552D01*
X95506807Y-66858226D01*
X95548686Y-66936575D01*
X95551442Y-66945662D01*
X95574475Y-67021587D01*
X95581000Y-67087842D01*
X95581000Y-68332158D01*
X95574475Y-68398413D01*
X95555263Y-68461743D01*
X95548686Y-68483425D01*
X95506807Y-68561774D01*
X95450448Y-68630448D01*
X95381774Y-68686807D01*
X95303425Y-68728686D01*
X95293456Y-68731710D01*
X95218413Y-68754475D01*
X95130000Y-68763182D01*
X95041588Y-68754475D01*
X94966545Y-68731710D01*
X94956576Y-68728686D01*
X94878227Y-68686807D01*
X94809553Y-68630448D01*
X94753194Y-68561774D01*
X94711315Y-68483425D01*
X94704738Y-68461743D01*
X94685526Y-68398413D01*
X94679001Y-68332158D01*
X94679000Y-67087843D01*
X94685525Y-67021588D01*
X94711313Y-66936580D01*
X94711314Y-66936576D01*
X94753193Y-66858227D01*
X94753195Y-66858223D01*
X94809550Y-66789554D01*
X94809555Y-66789550D01*
X94878226Y-66733193D01*
X94956575Y-66691314D01*
X94970879Y-66686975D01*
X95041587Y-66665525D01*
X95130000Y-66656818D01*
X95218412Y-66665525D01*
X95218412Y-66665525D01*
G37*
G36*
X94199683Y-66662725D02*
X94230144Y-66671966D01*
X94258223Y-66686975D01*
X94282831Y-66707169D01*
X94303025Y-66731777D01*
X94318034Y-66759856D01*
X94327275Y-66790317D01*
X94331000Y-66828140D01*
X94331000Y-68591860D01*
X94327275Y-68629683D01*
X94318034Y-68660144D01*
X94303025Y-68688223D01*
X94282831Y-68712831D01*
X94258223Y-68733025D01*
X94230144Y-68748034D01*
X94199683Y-68757275D01*
X94161860Y-68761000D01*
X93598140Y-68761000D01*
X93560317Y-68757275D01*
X93529856Y-68748034D01*
X93501777Y-68733025D01*
X93477169Y-68712831D01*
X93456975Y-68688223D01*
X93441966Y-68660144D01*
X93432725Y-68629683D01*
X93429000Y-68591860D01*
X93429000Y-66828140D01*
X93432725Y-66790317D01*
X93441966Y-66759856D01*
X93456975Y-66731777D01*
X93477169Y-66707169D01*
X93501777Y-66686975D01*
X93529856Y-66671966D01*
X93560317Y-66662725D01*
X93598140Y-66659000D01*
X94161860Y-66659000D01*
X94199683Y-66662725D01*
X94199683Y-66662725D01*
G37*
G36*
X114349890Y-65814017D02*
X114468361Y-65863089D01*
X114574992Y-65934338D01*
X114665662Y-66025008D01*
X114736911Y-66131639D01*
X114785983Y-66250110D01*
X114811000Y-66375881D01*
X114811000Y-66504119D01*
X114785983Y-66629890D01*
X114736911Y-66748361D01*
X114665662Y-66854992D01*
X114574992Y-66945662D01*
X114468361Y-67016911D01*
X114349890Y-67065983D01*
X114224119Y-67091000D01*
X114095881Y-67091000D01*
X113970110Y-67065983D01*
X113851639Y-67016911D01*
X113745008Y-66945662D01*
X113654338Y-66854992D01*
X113583089Y-66748361D01*
X113534017Y-66629890D01*
X113509000Y-66504119D01*
X113509000Y-66375881D01*
X113534017Y-66250110D01*
X113583089Y-66131639D01*
X113654338Y-66025008D01*
X113745008Y-65934338D01*
X113851639Y-65863089D01*
X113970110Y-65814017D01*
X114095881Y-65789000D01*
X114224119Y-65789000D01*
X114349890Y-65814017D01*
X114349890Y-65814017D01*
G37*
G36*
X129589890Y-65814017D02*
X129708361Y-65863089D01*
X129814992Y-65934338D01*
X129905662Y-66025008D01*
X129976911Y-66131639D01*
X130025983Y-66250110D01*
X130051000Y-66375881D01*
X130051000Y-66504119D01*
X130025983Y-66629890D01*
X129976911Y-66748361D01*
X129905662Y-66854992D01*
X129814992Y-66945662D01*
X129708361Y-67016911D01*
X129589890Y-67065983D01*
X129464119Y-67091000D01*
X129335881Y-67091000D01*
X129210110Y-67065983D01*
X129091639Y-67016911D01*
X128985008Y-66945662D01*
X128894338Y-66854992D01*
X128823089Y-66748361D01*
X128774017Y-66629890D01*
X128749000Y-66504119D01*
X128749000Y-66375881D01*
X128774017Y-66250110D01*
X128823089Y-66131639D01*
X128894338Y-66025008D01*
X128985008Y-65934338D01*
X129091639Y-65863089D01*
X129210110Y-65814017D01*
X129335881Y-65789000D01*
X129464119Y-65789000D01*
X129589890Y-65814017D01*
X129589890Y-65814017D01*
G37*
M02*
