G04 #@! TF.GenerationSoftware,KiCad,Pcbnew,5.0.2*
G04 #@! TF.CreationDate,2019-10-07T10:21:51-03:00*
G04 #@! TF.ProjectId,passavfp,70617373-6176-4667-902e-6b696361645f,rev?*
G04 #@! TF.SameCoordinates,Original*
G04 #@! TF.FileFunction,Legend,Top*
G04 #@! TF.FilePolarity,Positive*
%FSLAX46Y46*%
G04 Gerber Fmt 4.6, Leading zero omitted, Abs format (unit mm)*
G04 Created by KiCad (PCBNEW 5.0.2) date seg 07 out 2019 10:21:51 -03*
%MOMM*%
%LPD*%
G01*
G04 APERTURE LIST*
%ADD10C,0.300000*%
%ADD11C,0.120000*%
%ADD12C,0.150000*%
G04 APERTURE END LIST*
D10*
X136178571Y-107758571D02*
X135321428Y-107758571D01*
X135750000Y-107758571D02*
X135750000Y-106258571D01*
X135607142Y-106472857D01*
X135464285Y-106615714D01*
X135321428Y-106687142D01*
X136142857Y-117760000D02*
X136000000Y-117688571D01*
X135785714Y-117688571D01*
X135571428Y-117760000D01*
X135428571Y-117902857D01*
X135357142Y-118045714D01*
X135285714Y-118331428D01*
X135285714Y-118545714D01*
X135357142Y-118831428D01*
X135428571Y-118974285D01*
X135571428Y-119117142D01*
X135785714Y-119188571D01*
X135928571Y-119188571D01*
X136142857Y-119117142D01*
X136214285Y-119045714D01*
X136214285Y-118545714D01*
X135928571Y-118545714D01*
X136162857Y-83398571D02*
X136448571Y-83398571D01*
X136591428Y-83470000D01*
X136734285Y-83612857D01*
X136805714Y-83898571D01*
X136805714Y-84398571D01*
X136734285Y-84684285D01*
X136591428Y-84827142D01*
X136448571Y-84898571D01*
X136162857Y-84898571D01*
X136020000Y-84827142D01*
X135877142Y-84684285D01*
X135805714Y-84398571D01*
X135805714Y-83898571D01*
X135877142Y-83612857D01*
X136020000Y-83470000D01*
X136162857Y-83398571D01*
X138091428Y-83898571D02*
X138091428Y-84898571D01*
X137734285Y-83327142D02*
X137377142Y-84398571D01*
X138305714Y-84398571D01*
X136162857Y-78318571D02*
X136448571Y-78318571D01*
X136591428Y-78390000D01*
X136734285Y-78532857D01*
X136805714Y-78818571D01*
X136805714Y-79318571D01*
X136734285Y-79604285D01*
X136591428Y-79747142D01*
X136448571Y-79818571D01*
X136162857Y-79818571D01*
X136020000Y-79747142D01*
X135877142Y-79604285D01*
X135805714Y-79318571D01*
X135805714Y-78818571D01*
X135877142Y-78532857D01*
X136020000Y-78390000D01*
X136162857Y-78318571D01*
X137305714Y-78318571D02*
X138234285Y-78318571D01*
X137734285Y-78890000D01*
X137948571Y-78890000D01*
X138091428Y-78961428D01*
X138162857Y-79032857D01*
X138234285Y-79175714D01*
X138234285Y-79532857D01*
X138162857Y-79675714D01*
X138091428Y-79747142D01*
X137948571Y-79818571D01*
X137520000Y-79818571D01*
X137377142Y-79747142D01*
X137305714Y-79675714D01*
X136162857Y-73238571D02*
X136448571Y-73238571D01*
X136591428Y-73310000D01*
X136734285Y-73452857D01*
X136805714Y-73738571D01*
X136805714Y-74238571D01*
X136734285Y-74524285D01*
X136591428Y-74667142D01*
X136448571Y-74738571D01*
X136162857Y-74738571D01*
X136020000Y-74667142D01*
X135877142Y-74524285D01*
X135805714Y-74238571D01*
X135805714Y-73738571D01*
X135877142Y-73452857D01*
X136020000Y-73310000D01*
X136162857Y-73238571D01*
X137377142Y-73381428D02*
X137448571Y-73310000D01*
X137591428Y-73238571D01*
X137948571Y-73238571D01*
X138091428Y-73310000D01*
X138162857Y-73381428D01*
X138234285Y-73524285D01*
X138234285Y-73667142D01*
X138162857Y-73881428D01*
X137305714Y-74738571D01*
X138234285Y-74738571D01*
X136162857Y-68158571D02*
X136448571Y-68158571D01*
X136591428Y-68230000D01*
X136734285Y-68372857D01*
X136805714Y-68658571D01*
X136805714Y-69158571D01*
X136734285Y-69444285D01*
X136591428Y-69587142D01*
X136448571Y-69658571D01*
X136162857Y-69658571D01*
X136020000Y-69587142D01*
X135877142Y-69444285D01*
X135805714Y-69158571D01*
X135805714Y-68658571D01*
X135877142Y-68372857D01*
X136020000Y-68230000D01*
X136162857Y-68158571D01*
X138234285Y-69658571D02*
X137377142Y-69658571D01*
X137805714Y-69658571D02*
X137805714Y-68158571D01*
X137662857Y-68372857D01*
X137520000Y-68515714D01*
X137377142Y-68587142D01*
X141273571Y-111747142D02*
X142773571Y-111247142D01*
X141273571Y-110747142D01*
X142773571Y-110247142D02*
X141273571Y-110247142D01*
X143895000Y-110497142D02*
X143823571Y-110640000D01*
X143823571Y-110854285D01*
X143895000Y-111068571D01*
X144037857Y-111211428D01*
X144180714Y-111282857D01*
X144466428Y-111354285D01*
X144680714Y-111354285D01*
X144966428Y-111282857D01*
X145109285Y-111211428D01*
X145252142Y-111068571D01*
X145323571Y-110854285D01*
X145323571Y-110711428D01*
X145252142Y-110497142D01*
X145180714Y-110425714D01*
X144680714Y-110425714D01*
X144680714Y-110711428D01*
X104841428Y-112608571D02*
X105698571Y-112608571D01*
X105270000Y-114108571D02*
X105270000Y-112608571D01*
X105734285Y-111568571D02*
X105234285Y-110854285D01*
X104877142Y-111568571D02*
X104877142Y-110068571D01*
X105448571Y-110068571D01*
X105591428Y-110140000D01*
X105662857Y-110211428D01*
X105734285Y-110354285D01*
X105734285Y-110568571D01*
X105662857Y-110711428D01*
X105591428Y-110782857D01*
X105448571Y-110854285D01*
X104877142Y-110854285D01*
X105662857Y-107600000D02*
X105520000Y-107528571D01*
X105305714Y-107528571D01*
X105091428Y-107600000D01*
X104948571Y-107742857D01*
X104877142Y-107885714D01*
X104805714Y-108171428D01*
X104805714Y-108385714D01*
X104877142Y-108671428D01*
X104948571Y-108814285D01*
X105091428Y-108957142D01*
X105305714Y-109028571D01*
X105448571Y-109028571D01*
X105662857Y-108957142D01*
X105734285Y-108885714D01*
X105734285Y-108385714D01*
X105448571Y-108385714D01*
X105627142Y-104988571D02*
X104912857Y-104988571D01*
X104841428Y-105702857D01*
X104912857Y-105631428D01*
X105055714Y-105560000D01*
X105412857Y-105560000D01*
X105555714Y-105631428D01*
X105627142Y-105702857D01*
X105698571Y-105845714D01*
X105698571Y-106202857D01*
X105627142Y-106345714D01*
X105555714Y-106417142D01*
X105412857Y-106488571D01*
X105055714Y-106488571D01*
X104912857Y-106417142D01*
X104841428Y-106345714D01*
X99170000Y-99261428D02*
X99170000Y-98547142D01*
X99598571Y-99404285D02*
X98098571Y-98904285D01*
X99598571Y-98404285D01*
X98098571Y-97261428D02*
X98098571Y-97547142D01*
X98170000Y-97690000D01*
X98241428Y-97761428D01*
X98455714Y-97904285D01*
X98741428Y-97975714D01*
X99312857Y-97975714D01*
X99455714Y-97904285D01*
X99527142Y-97832857D01*
X99598571Y-97690000D01*
X99598571Y-97404285D01*
X99527142Y-97261428D01*
X99455714Y-97190000D01*
X99312857Y-97118571D01*
X98955714Y-97118571D01*
X98812857Y-97190000D01*
X98741428Y-97261428D01*
X98670000Y-97404285D01*
X98670000Y-97690000D01*
X98741428Y-97832857D01*
X98812857Y-97904285D01*
X98955714Y-97975714D01*
X99170000Y-94181428D02*
X99170000Y-93467142D01*
X99598571Y-94324285D02*
X98098571Y-93824285D01*
X99598571Y-93324285D01*
X98098571Y-92110000D02*
X98098571Y-92824285D01*
X98812857Y-92895714D01*
X98741428Y-92824285D01*
X98670000Y-92681428D01*
X98670000Y-92324285D01*
X98741428Y-92181428D01*
X98812857Y-92110000D01*
X98955714Y-92038571D01*
X99312857Y-92038571D01*
X99455714Y-92110000D01*
X99527142Y-92181428D01*
X99598571Y-92324285D01*
X99598571Y-92681428D01*
X99527142Y-92824285D01*
X99455714Y-92895714D01*
X99170000Y-89101428D02*
X99170000Y-88387142D01*
X99598571Y-89244285D02*
X98098571Y-88744285D01*
X99598571Y-88244285D01*
X98598571Y-87101428D02*
X99598571Y-87101428D01*
X98027142Y-87458571D02*
X99098571Y-87815714D01*
X99098571Y-86887142D01*
X99170000Y-84021428D02*
X99170000Y-83307142D01*
X99598571Y-84164285D02*
X98098571Y-83664285D01*
X99598571Y-83164285D01*
X98098571Y-82807142D02*
X98098571Y-81878571D01*
X98670000Y-82378571D01*
X98670000Y-82164285D01*
X98741428Y-82021428D01*
X98812857Y-81950000D01*
X98955714Y-81878571D01*
X99312857Y-81878571D01*
X99455714Y-81950000D01*
X99527142Y-82021428D01*
X99598571Y-82164285D01*
X99598571Y-82592857D01*
X99527142Y-82735714D01*
X99455714Y-82807142D01*
X99170000Y-78941428D02*
X99170000Y-78227142D01*
X99598571Y-79084285D02*
X98098571Y-78584285D01*
X99598571Y-78084285D01*
X98241428Y-77655714D02*
X98170000Y-77584285D01*
X98098571Y-77441428D01*
X98098571Y-77084285D01*
X98170000Y-76941428D01*
X98241428Y-76870000D01*
X98384285Y-76798571D01*
X98527142Y-76798571D01*
X98741428Y-76870000D01*
X99598571Y-77727142D01*
X99598571Y-76798571D01*
X99118571Y-73040000D02*
X99832857Y-73040000D01*
X98975714Y-73468571D02*
X99475714Y-71968571D01*
X99975714Y-73468571D01*
X101261428Y-73468571D02*
X100404285Y-73468571D01*
X100832857Y-73468571D02*
X100832857Y-71968571D01*
X100690000Y-72182857D01*
X100547142Y-72325714D01*
X100404285Y-72397142D01*
X99118571Y-67960000D02*
X99832857Y-67960000D01*
X98975714Y-68388571D02*
X99475714Y-66888571D01*
X99975714Y-68388571D01*
X100761428Y-66888571D02*
X100904285Y-66888571D01*
X101047142Y-66960000D01*
X101118571Y-67031428D01*
X101190000Y-67174285D01*
X101261428Y-67460000D01*
X101261428Y-67817142D01*
X101190000Y-68102857D01*
X101118571Y-68245714D01*
X101047142Y-68317142D01*
X100904285Y-68388571D01*
X100761428Y-68388571D01*
X100618571Y-68317142D01*
X100547142Y-68245714D01*
X100475714Y-68102857D01*
X100404285Y-67817142D01*
X100404285Y-67460000D01*
X100475714Y-67174285D01*
X100547142Y-67031428D01*
X100618571Y-66960000D01*
X100761428Y-66888571D01*
X99118571Y-103520000D02*
X99832857Y-103520000D01*
X98975714Y-103948571D02*
X99475714Y-102448571D01*
X99975714Y-103948571D01*
X100690000Y-103091428D02*
X100547142Y-103020000D01*
X100475714Y-102948571D01*
X100404285Y-102805714D01*
X100404285Y-102734285D01*
X100475714Y-102591428D01*
X100547142Y-102520000D01*
X100690000Y-102448571D01*
X100975714Y-102448571D01*
X101118571Y-102520000D01*
X101190000Y-102591428D01*
X101261428Y-102734285D01*
X101261428Y-102805714D01*
X101190000Y-102948571D01*
X101118571Y-103020000D01*
X100975714Y-103091428D01*
X100690000Y-103091428D01*
X100547142Y-103162857D01*
X100475714Y-103234285D01*
X100404285Y-103377142D01*
X100404285Y-103662857D01*
X100475714Y-103805714D01*
X100547142Y-103877142D01*
X100690000Y-103948571D01*
X100975714Y-103948571D01*
X101118571Y-103877142D01*
X101190000Y-103805714D01*
X101261428Y-103662857D01*
X101261428Y-103377142D01*
X101190000Y-103234285D01*
X101118571Y-103162857D01*
X100975714Y-103091428D01*
X99118571Y-108600000D02*
X99832857Y-108600000D01*
X98975714Y-109028571D02*
X99475714Y-107528571D01*
X99975714Y-109028571D01*
X100690000Y-108171428D02*
X100547142Y-108100000D01*
X100475714Y-108028571D01*
X100404285Y-107885714D01*
X100404285Y-107814285D01*
X100475714Y-107671428D01*
X100547142Y-107600000D01*
X100690000Y-107528571D01*
X100975714Y-107528571D01*
X101118571Y-107600000D01*
X101190000Y-107671428D01*
X101261428Y-107814285D01*
X101261428Y-107885714D01*
X101190000Y-108028571D01*
X101118571Y-108100000D01*
X100975714Y-108171428D01*
X100690000Y-108171428D01*
X100547142Y-108242857D01*
X100475714Y-108314285D01*
X100404285Y-108457142D01*
X100404285Y-108742857D01*
X100475714Y-108885714D01*
X100547142Y-108957142D01*
X100690000Y-109028571D01*
X100975714Y-109028571D01*
X101118571Y-108957142D01*
X101190000Y-108885714D01*
X101261428Y-108742857D01*
X101261428Y-108457142D01*
X101190000Y-108314285D01*
X101118571Y-108242857D01*
X100975714Y-108171428D01*
X99118571Y-113680000D02*
X99832857Y-113680000D01*
X98975714Y-114108571D02*
X99475714Y-112608571D01*
X99975714Y-114108571D01*
X100547142Y-114108571D02*
X100832857Y-114108571D01*
X100975714Y-114037142D01*
X101047142Y-113965714D01*
X101190000Y-113751428D01*
X101261428Y-113465714D01*
X101261428Y-112894285D01*
X101190000Y-112751428D01*
X101118571Y-112680000D01*
X100975714Y-112608571D01*
X100690000Y-112608571D01*
X100547142Y-112680000D01*
X100475714Y-112751428D01*
X100404285Y-112894285D01*
X100404285Y-113251428D01*
X100475714Y-113394285D01*
X100547142Y-113465714D01*
X100690000Y-113537142D01*
X100975714Y-113537142D01*
X101118571Y-113465714D01*
X101190000Y-113394285D01*
X101261428Y-113251428D01*
X94002857Y-115148571D02*
X93288571Y-115148571D01*
X93217142Y-115862857D01*
X93288571Y-115791428D01*
X93431428Y-115720000D01*
X93788571Y-115720000D01*
X93931428Y-115791428D01*
X94002857Y-115862857D01*
X94074285Y-116005714D01*
X94074285Y-116362857D01*
X94002857Y-116505714D01*
X93931428Y-116577142D01*
X93788571Y-116648571D01*
X93431428Y-116648571D01*
X93288571Y-116577142D01*
X93217142Y-116505714D01*
X95502857Y-115220000D02*
X95360000Y-115148571D01*
X95145714Y-115148571D01*
X94931428Y-115220000D01*
X94788571Y-115362857D01*
X94717142Y-115505714D01*
X94645714Y-115791428D01*
X94645714Y-116005714D01*
X94717142Y-116291428D01*
X94788571Y-116434285D01*
X94931428Y-116577142D01*
X95145714Y-116648571D01*
X95288571Y-116648571D01*
X95502857Y-116577142D01*
X95574285Y-116505714D01*
X95574285Y-116005714D01*
X95288571Y-116005714D01*
X96145714Y-116577142D02*
X96360000Y-116648571D01*
X96717142Y-116648571D01*
X96860000Y-116577142D01*
X96931428Y-116505714D01*
X97002857Y-116362857D01*
X97002857Y-116220000D01*
X96931428Y-116077142D01*
X96860000Y-116005714D01*
X96717142Y-115934285D01*
X96431428Y-115862857D01*
X96288571Y-115791428D01*
X96217142Y-115720000D01*
X96145714Y-115577142D01*
X96145714Y-115434285D01*
X96217142Y-115291428D01*
X96288571Y-115220000D01*
X96431428Y-115148571D01*
X96788571Y-115148571D01*
X97002857Y-115220000D01*
X136198571Y-103372857D02*
X136198571Y-102372857D01*
X137698571Y-103015714D01*
X136841428Y-101587142D02*
X136770000Y-101730000D01*
X136698571Y-101801428D01*
X136555714Y-101872857D01*
X136484285Y-101872857D01*
X136341428Y-101801428D01*
X136270000Y-101730000D01*
X136198571Y-101587142D01*
X136198571Y-101301428D01*
X136270000Y-101158571D01*
X136341428Y-101087142D01*
X136484285Y-101015714D01*
X136555714Y-101015714D01*
X136698571Y-101087142D01*
X136770000Y-101158571D01*
X136841428Y-101301428D01*
X136841428Y-101587142D01*
X136912857Y-101730000D01*
X136984285Y-101801428D01*
X137127142Y-101872857D01*
X137412857Y-101872857D01*
X137555714Y-101801428D01*
X137627142Y-101730000D01*
X137698571Y-101587142D01*
X137698571Y-101301428D01*
X137627142Y-101158571D01*
X137555714Y-101087142D01*
X137412857Y-101015714D01*
X137127142Y-101015714D01*
X136984285Y-101087142D01*
X136912857Y-101158571D01*
X136841428Y-101301428D01*
X136198571Y-100087142D02*
X136198571Y-99944285D01*
X136270000Y-99801428D01*
X136341428Y-99730000D01*
X136484285Y-99658571D01*
X136770000Y-99587142D01*
X137127142Y-99587142D01*
X137412857Y-99658571D01*
X137555714Y-99730000D01*
X137627142Y-99801428D01*
X137698571Y-99944285D01*
X137698571Y-100087142D01*
X137627142Y-100230000D01*
X137555714Y-100301428D01*
X137412857Y-100372857D01*
X137127142Y-100444285D01*
X136770000Y-100444285D01*
X136484285Y-100372857D01*
X136341428Y-100301428D01*
X136270000Y-100230000D01*
X136198571Y-100087142D01*
X136198571Y-98230000D02*
X136198571Y-98944285D01*
X136912857Y-99015714D01*
X136841428Y-98944285D01*
X136770000Y-98801428D01*
X136770000Y-98444285D01*
X136841428Y-98301428D01*
X136912857Y-98230000D01*
X137055714Y-98158571D01*
X137412857Y-98158571D01*
X137555714Y-98230000D01*
X137627142Y-98301428D01*
X137698571Y-98444285D01*
X137698571Y-98801428D01*
X137627142Y-98944285D01*
X137555714Y-99015714D01*
D11*
G04 #@! TO.C,J5*
X144980000Y-71140000D02*
X144980000Y-67720000D01*
X144980000Y-67720000D02*
X139260000Y-67720000D01*
X139260000Y-67720000D02*
X139260000Y-71140000D01*
X139260000Y-71140000D02*
X144980000Y-71140000D01*
X142120000Y-68230000D02*
X144470000Y-68230000D01*
X144470000Y-68230000D02*
X144470000Y-68980000D01*
X144470000Y-68980000D02*
X144670000Y-68980000D01*
X144670000Y-68980000D02*
X144670000Y-69780000D01*
X144670000Y-69780000D02*
X144470000Y-69780000D01*
X144470000Y-69780000D02*
X144470000Y-70630000D01*
X144470000Y-70630000D02*
X142120000Y-70630000D01*
X142120000Y-68230000D02*
X139770000Y-68230000D01*
X139770000Y-68230000D02*
X139770000Y-68980000D01*
X139770000Y-68980000D02*
X139570000Y-68980000D01*
X139570000Y-68980000D02*
X139570000Y-69780000D01*
X139570000Y-69780000D02*
X139770000Y-69780000D01*
X139770000Y-69780000D02*
X139770000Y-70630000D01*
X139770000Y-70630000D02*
X142120000Y-70630000D01*
X145270000Y-67430000D02*
X145270000Y-68430000D01*
X145270000Y-67430000D02*
X144270000Y-67430000D01*
D12*
G04 #@! TO.C,U2*
X110350000Y-63900000D02*
X110350000Y-117240000D01*
X133210000Y-117240000D02*
X133210000Y-63900000D01*
X110350000Y-117240000D02*
X133210000Y-117240000D01*
X133210000Y-63900000D02*
X110350000Y-63900000D01*
D11*
G04 #@! TO.C,J1*
X140720000Y-112940000D02*
X140720000Y-118960000D01*
X140720000Y-118960000D02*
X146020000Y-118960000D01*
X146020000Y-118960000D02*
X146020000Y-112940000D01*
X146020000Y-112940000D02*
X140720000Y-112940000D01*
X140430000Y-113970000D02*
X140430000Y-117970000D01*
X142100000Y-118960000D02*
X142100000Y-117960000D01*
X142100000Y-117960000D02*
X144640000Y-117960000D01*
X144640000Y-117960000D02*
X144640000Y-118960000D01*
X142100000Y-117960000D02*
X142350000Y-117430000D01*
X142350000Y-117430000D02*
X144390000Y-117430000D01*
X144390000Y-117430000D02*
X144640000Y-117960000D01*
X142350000Y-118960000D02*
X142350000Y-117960000D01*
X144390000Y-118960000D02*
X144390000Y-117960000D01*
X141300000Y-112940000D02*
X141300000Y-113540000D01*
X141300000Y-113540000D02*
X142900000Y-113540000D01*
X142900000Y-113540000D02*
X142900000Y-112940000D01*
X143840000Y-112940000D02*
X143840000Y-113540000D01*
X143840000Y-113540000D02*
X145440000Y-113540000D01*
X145440000Y-113540000D02*
X145440000Y-112940000D01*
G04 #@! TO.C,J2*
X109140000Y-112160000D02*
X106480000Y-112160000D01*
X109140000Y-112160000D02*
X109140000Y-104480000D01*
X109140000Y-104480000D02*
X106480000Y-104480000D01*
X106480000Y-112160000D02*
X106480000Y-104480000D01*
X106480000Y-114760000D02*
X106480000Y-113430000D01*
X107810000Y-114760000D02*
X106480000Y-114760000D01*
G04 #@! TO.C,J3*
X92270000Y-65550000D02*
X92270000Y-68970000D01*
X92270000Y-68970000D02*
X97990000Y-68970000D01*
X97990000Y-68970000D02*
X97990000Y-65550000D01*
X97990000Y-65550000D02*
X92270000Y-65550000D01*
X95130000Y-68460000D02*
X92780000Y-68460000D01*
X92780000Y-68460000D02*
X92780000Y-67710000D01*
X92780000Y-67710000D02*
X92580000Y-67710000D01*
X92580000Y-67710000D02*
X92580000Y-66910000D01*
X92580000Y-66910000D02*
X92780000Y-66910000D01*
X92780000Y-66910000D02*
X92780000Y-66060000D01*
X92780000Y-66060000D02*
X95130000Y-66060000D01*
X95130000Y-68460000D02*
X97480000Y-68460000D01*
X97480000Y-68460000D02*
X97480000Y-67710000D01*
X97480000Y-67710000D02*
X97680000Y-67710000D01*
X97680000Y-67710000D02*
X97680000Y-66910000D01*
X97680000Y-66910000D02*
X97480000Y-66910000D01*
X97480000Y-66910000D02*
X97480000Y-66060000D01*
X97480000Y-66060000D02*
X95130000Y-66060000D01*
X91980000Y-69260000D02*
X91980000Y-68260000D01*
X91980000Y-69260000D02*
X92980000Y-69260000D01*
G04 #@! TO.C,J4*
X137910000Y-109280000D02*
X134490000Y-109280000D01*
X134490000Y-109280000D02*
X134490000Y-116250000D01*
X134490000Y-116250000D02*
X137910000Y-116250000D01*
X137910000Y-116250000D02*
X137910000Y-109280000D01*
X135000000Y-112765000D02*
X135000000Y-109790000D01*
X135000000Y-109790000D02*
X135750000Y-109790000D01*
X135750000Y-109790000D02*
X135750000Y-109590000D01*
X135750000Y-109590000D02*
X136550000Y-109590000D01*
X136550000Y-109590000D02*
X136550000Y-109790000D01*
X136550000Y-109790000D02*
X137400000Y-109790000D01*
X137400000Y-109790000D02*
X137400000Y-112765000D01*
X135000000Y-112765000D02*
X135000000Y-115740000D01*
X135000000Y-115740000D02*
X135750000Y-115740000D01*
X135750000Y-115740000D02*
X135750000Y-115940000D01*
X135750000Y-115940000D02*
X136550000Y-115940000D01*
X136550000Y-115940000D02*
X136550000Y-115740000D01*
X136550000Y-115740000D02*
X137400000Y-115740000D01*
X137400000Y-115740000D02*
X137400000Y-112765000D01*
X134200000Y-108990000D02*
X135200000Y-108990000D01*
X134200000Y-108990000D02*
X134200000Y-109990000D01*
G04 #@! TO.C,J6*
X91940000Y-74340000D02*
X92940000Y-74340000D01*
X91940000Y-74340000D02*
X91940000Y-73340000D01*
X97440000Y-71140000D02*
X95090000Y-71140000D01*
X97440000Y-71990000D02*
X97440000Y-71140000D01*
X97640000Y-71990000D02*
X97440000Y-71990000D01*
X97640000Y-72790000D02*
X97640000Y-71990000D01*
X97440000Y-72790000D02*
X97640000Y-72790000D01*
X97440000Y-73540000D02*
X97440000Y-72790000D01*
X95090000Y-73540000D02*
X97440000Y-73540000D01*
X92740000Y-71140000D02*
X95090000Y-71140000D01*
X92740000Y-71990000D02*
X92740000Y-71140000D01*
X92540000Y-71990000D02*
X92740000Y-71990000D01*
X92540000Y-72790000D02*
X92540000Y-71990000D01*
X92740000Y-72790000D02*
X92540000Y-72790000D01*
X92740000Y-73540000D02*
X92740000Y-72790000D01*
X95090000Y-73540000D02*
X92740000Y-73540000D01*
X97950000Y-70630000D02*
X92230000Y-70630000D01*
X97950000Y-74050000D02*
X97950000Y-70630000D01*
X92230000Y-74050000D02*
X97950000Y-74050000D01*
X92230000Y-70630000D02*
X92230000Y-74050000D01*
G04 #@! TO.C,J7*
X145270000Y-72510000D02*
X144270000Y-72510000D01*
X145270000Y-72510000D02*
X145270000Y-73510000D01*
X139770000Y-75710000D02*
X142120000Y-75710000D01*
X139770000Y-74860000D02*
X139770000Y-75710000D01*
X139570000Y-74860000D02*
X139770000Y-74860000D01*
X139570000Y-74060000D02*
X139570000Y-74860000D01*
X139770000Y-74060000D02*
X139570000Y-74060000D01*
X139770000Y-73310000D02*
X139770000Y-74060000D01*
X142120000Y-73310000D02*
X139770000Y-73310000D01*
X144470000Y-75710000D02*
X142120000Y-75710000D01*
X144470000Y-74860000D02*
X144470000Y-75710000D01*
X144670000Y-74860000D02*
X144470000Y-74860000D01*
X144670000Y-74060000D02*
X144670000Y-74860000D01*
X144470000Y-74060000D02*
X144670000Y-74060000D01*
X144470000Y-73310000D02*
X144470000Y-74060000D01*
X142120000Y-73310000D02*
X144470000Y-73310000D01*
X139260000Y-76220000D02*
X144980000Y-76220000D01*
X139260000Y-72800000D02*
X139260000Y-76220000D01*
X144980000Y-72800000D02*
X139260000Y-72800000D01*
X144980000Y-76220000D02*
X144980000Y-72800000D01*
G04 #@! TO.C,J8*
X92230000Y-75710000D02*
X92230000Y-79130000D01*
X92230000Y-79130000D02*
X97950000Y-79130000D01*
X97950000Y-79130000D02*
X97950000Y-75710000D01*
X97950000Y-75710000D02*
X92230000Y-75710000D01*
X95090000Y-78620000D02*
X92740000Y-78620000D01*
X92740000Y-78620000D02*
X92740000Y-77870000D01*
X92740000Y-77870000D02*
X92540000Y-77870000D01*
X92540000Y-77870000D02*
X92540000Y-77070000D01*
X92540000Y-77070000D02*
X92740000Y-77070000D01*
X92740000Y-77070000D02*
X92740000Y-76220000D01*
X92740000Y-76220000D02*
X95090000Y-76220000D01*
X95090000Y-78620000D02*
X97440000Y-78620000D01*
X97440000Y-78620000D02*
X97440000Y-77870000D01*
X97440000Y-77870000D02*
X97640000Y-77870000D01*
X97640000Y-77870000D02*
X97640000Y-77070000D01*
X97640000Y-77070000D02*
X97440000Y-77070000D01*
X97440000Y-77070000D02*
X97440000Y-76220000D01*
X97440000Y-76220000D02*
X95090000Y-76220000D01*
X91940000Y-79420000D02*
X91940000Y-78420000D01*
X91940000Y-79420000D02*
X92940000Y-79420000D01*
G04 #@! TO.C,J9*
X144980000Y-81300000D02*
X144980000Y-77880000D01*
X144980000Y-77880000D02*
X139260000Y-77880000D01*
X139260000Y-77880000D02*
X139260000Y-81300000D01*
X139260000Y-81300000D02*
X144980000Y-81300000D01*
X142120000Y-78390000D02*
X144470000Y-78390000D01*
X144470000Y-78390000D02*
X144470000Y-79140000D01*
X144470000Y-79140000D02*
X144670000Y-79140000D01*
X144670000Y-79140000D02*
X144670000Y-79940000D01*
X144670000Y-79940000D02*
X144470000Y-79940000D01*
X144470000Y-79940000D02*
X144470000Y-80790000D01*
X144470000Y-80790000D02*
X142120000Y-80790000D01*
X142120000Y-78390000D02*
X139770000Y-78390000D01*
X139770000Y-78390000D02*
X139770000Y-79140000D01*
X139770000Y-79140000D02*
X139570000Y-79140000D01*
X139570000Y-79140000D02*
X139570000Y-79940000D01*
X139570000Y-79940000D02*
X139770000Y-79940000D01*
X139770000Y-79940000D02*
X139770000Y-80790000D01*
X139770000Y-80790000D02*
X142120000Y-80790000D01*
X145270000Y-77590000D02*
X145270000Y-78590000D01*
X145270000Y-77590000D02*
X144270000Y-77590000D01*
G04 #@! TO.C,J10*
X91980000Y-84500000D02*
X92980000Y-84500000D01*
X91980000Y-84500000D02*
X91980000Y-83500000D01*
X97480000Y-81300000D02*
X95130000Y-81300000D01*
X97480000Y-82150000D02*
X97480000Y-81300000D01*
X97680000Y-82150000D02*
X97480000Y-82150000D01*
X97680000Y-82950000D02*
X97680000Y-82150000D01*
X97480000Y-82950000D02*
X97680000Y-82950000D01*
X97480000Y-83700000D02*
X97480000Y-82950000D01*
X95130000Y-83700000D02*
X97480000Y-83700000D01*
X92780000Y-81300000D02*
X95130000Y-81300000D01*
X92780000Y-82150000D02*
X92780000Y-81300000D01*
X92580000Y-82150000D02*
X92780000Y-82150000D01*
X92580000Y-82950000D02*
X92580000Y-82150000D01*
X92780000Y-82950000D02*
X92580000Y-82950000D01*
X92780000Y-83700000D02*
X92780000Y-82950000D01*
X95130000Y-83700000D02*
X92780000Y-83700000D01*
X97990000Y-80790000D02*
X92270000Y-80790000D01*
X97990000Y-84210000D02*
X97990000Y-80790000D01*
X92270000Y-84210000D02*
X97990000Y-84210000D01*
X92270000Y-80790000D02*
X92270000Y-84210000D01*
G04 #@! TO.C,J11*
X145270000Y-82670000D02*
X144270000Y-82670000D01*
X145270000Y-82670000D02*
X145270000Y-83670000D01*
X139770000Y-85870000D02*
X142120000Y-85870000D01*
X139770000Y-85020000D02*
X139770000Y-85870000D01*
X139570000Y-85020000D02*
X139770000Y-85020000D01*
X139570000Y-84220000D02*
X139570000Y-85020000D01*
X139770000Y-84220000D02*
X139570000Y-84220000D01*
X139770000Y-83470000D02*
X139770000Y-84220000D01*
X142120000Y-83470000D02*
X139770000Y-83470000D01*
X144470000Y-85870000D02*
X142120000Y-85870000D01*
X144470000Y-85020000D02*
X144470000Y-85870000D01*
X144670000Y-85020000D02*
X144470000Y-85020000D01*
X144670000Y-84220000D02*
X144670000Y-85020000D01*
X144470000Y-84220000D02*
X144670000Y-84220000D01*
X144470000Y-83470000D02*
X144470000Y-84220000D01*
X142120000Y-83470000D02*
X144470000Y-83470000D01*
X139260000Y-86380000D02*
X144980000Y-86380000D01*
X139260000Y-82960000D02*
X139260000Y-86380000D01*
X144980000Y-82960000D02*
X139260000Y-82960000D01*
X144980000Y-86380000D02*
X144980000Y-82960000D01*
G04 #@! TO.C,J12*
X92270000Y-85870000D02*
X92270000Y-89290000D01*
X92270000Y-89290000D02*
X97990000Y-89290000D01*
X97990000Y-89290000D02*
X97990000Y-85870000D01*
X97990000Y-85870000D02*
X92270000Y-85870000D01*
X95130000Y-88780000D02*
X92780000Y-88780000D01*
X92780000Y-88780000D02*
X92780000Y-88030000D01*
X92780000Y-88030000D02*
X92580000Y-88030000D01*
X92580000Y-88030000D02*
X92580000Y-87230000D01*
X92580000Y-87230000D02*
X92780000Y-87230000D01*
X92780000Y-87230000D02*
X92780000Y-86380000D01*
X92780000Y-86380000D02*
X95130000Y-86380000D01*
X95130000Y-88780000D02*
X97480000Y-88780000D01*
X97480000Y-88780000D02*
X97480000Y-88030000D01*
X97480000Y-88030000D02*
X97680000Y-88030000D01*
X97680000Y-88030000D02*
X97680000Y-87230000D01*
X97680000Y-87230000D02*
X97480000Y-87230000D01*
X97480000Y-87230000D02*
X97480000Y-86380000D01*
X97480000Y-86380000D02*
X95130000Y-86380000D01*
X91980000Y-89580000D02*
X91980000Y-88580000D01*
X91980000Y-89580000D02*
X92980000Y-89580000D01*
G04 #@! TO.C,J13*
X91940000Y-94660000D02*
X92940000Y-94660000D01*
X91940000Y-94660000D02*
X91940000Y-93660000D01*
X97440000Y-91460000D02*
X95090000Y-91460000D01*
X97440000Y-92310000D02*
X97440000Y-91460000D01*
X97640000Y-92310000D02*
X97440000Y-92310000D01*
X97640000Y-93110000D02*
X97640000Y-92310000D01*
X97440000Y-93110000D02*
X97640000Y-93110000D01*
X97440000Y-93860000D02*
X97440000Y-93110000D01*
X95090000Y-93860000D02*
X97440000Y-93860000D01*
X92740000Y-91460000D02*
X95090000Y-91460000D01*
X92740000Y-92310000D02*
X92740000Y-91460000D01*
X92540000Y-92310000D02*
X92740000Y-92310000D01*
X92540000Y-93110000D02*
X92540000Y-92310000D01*
X92740000Y-93110000D02*
X92540000Y-93110000D01*
X92740000Y-93860000D02*
X92740000Y-93110000D01*
X95090000Y-93860000D02*
X92740000Y-93860000D01*
X97950000Y-90950000D02*
X92230000Y-90950000D01*
X97950000Y-94370000D02*
X97950000Y-90950000D01*
X92230000Y-94370000D02*
X97950000Y-94370000D01*
X92230000Y-90950000D02*
X92230000Y-94370000D01*
G04 #@! TO.C,J14*
X92270000Y-96030000D02*
X92270000Y-99450000D01*
X92270000Y-99450000D02*
X97990000Y-99450000D01*
X97990000Y-99450000D02*
X97990000Y-96030000D01*
X97990000Y-96030000D02*
X92270000Y-96030000D01*
X95130000Y-98940000D02*
X92780000Y-98940000D01*
X92780000Y-98940000D02*
X92780000Y-98190000D01*
X92780000Y-98190000D02*
X92580000Y-98190000D01*
X92580000Y-98190000D02*
X92580000Y-97390000D01*
X92580000Y-97390000D02*
X92780000Y-97390000D01*
X92780000Y-97390000D02*
X92780000Y-96540000D01*
X92780000Y-96540000D02*
X95130000Y-96540000D01*
X95130000Y-98940000D02*
X97480000Y-98940000D01*
X97480000Y-98940000D02*
X97480000Y-98190000D01*
X97480000Y-98190000D02*
X97680000Y-98190000D01*
X97680000Y-98190000D02*
X97680000Y-97390000D01*
X97680000Y-97390000D02*
X97480000Y-97390000D01*
X97480000Y-97390000D02*
X97480000Y-96540000D01*
X97480000Y-96540000D02*
X95130000Y-96540000D01*
X91980000Y-99740000D02*
X91980000Y-98740000D01*
X91980000Y-99740000D02*
X92980000Y-99740000D01*
G04 #@! TO.C,J15*
X91940000Y-104820000D02*
X92940000Y-104820000D01*
X91940000Y-104820000D02*
X91940000Y-103820000D01*
X97440000Y-101620000D02*
X95090000Y-101620000D01*
X97440000Y-102470000D02*
X97440000Y-101620000D01*
X97640000Y-102470000D02*
X97440000Y-102470000D01*
X97640000Y-103270000D02*
X97640000Y-102470000D01*
X97440000Y-103270000D02*
X97640000Y-103270000D01*
X97440000Y-104020000D02*
X97440000Y-103270000D01*
X95090000Y-104020000D02*
X97440000Y-104020000D01*
X92740000Y-101620000D02*
X95090000Y-101620000D01*
X92740000Y-102470000D02*
X92740000Y-101620000D01*
X92540000Y-102470000D02*
X92740000Y-102470000D01*
X92540000Y-103270000D02*
X92540000Y-102470000D01*
X92740000Y-103270000D02*
X92540000Y-103270000D01*
X92740000Y-104020000D02*
X92740000Y-103270000D01*
X95090000Y-104020000D02*
X92740000Y-104020000D01*
X97950000Y-101110000D02*
X92230000Y-101110000D01*
X97950000Y-104530000D02*
X97950000Y-101110000D01*
X92230000Y-104530000D02*
X97950000Y-104530000D01*
X92230000Y-101110000D02*
X92230000Y-104530000D01*
G04 #@! TO.C,J16*
X92270000Y-106190000D02*
X92270000Y-109610000D01*
X92270000Y-109610000D02*
X97990000Y-109610000D01*
X97990000Y-109610000D02*
X97990000Y-106190000D01*
X97990000Y-106190000D02*
X92270000Y-106190000D01*
X95130000Y-109100000D02*
X92780000Y-109100000D01*
X92780000Y-109100000D02*
X92780000Y-108350000D01*
X92780000Y-108350000D02*
X92580000Y-108350000D01*
X92580000Y-108350000D02*
X92580000Y-107550000D01*
X92580000Y-107550000D02*
X92780000Y-107550000D01*
X92780000Y-107550000D02*
X92780000Y-106700000D01*
X92780000Y-106700000D02*
X95130000Y-106700000D01*
X95130000Y-109100000D02*
X97480000Y-109100000D01*
X97480000Y-109100000D02*
X97480000Y-108350000D01*
X97480000Y-108350000D02*
X97680000Y-108350000D01*
X97680000Y-108350000D02*
X97680000Y-107550000D01*
X97680000Y-107550000D02*
X97480000Y-107550000D01*
X97480000Y-107550000D02*
X97480000Y-106700000D01*
X97480000Y-106700000D02*
X95130000Y-106700000D01*
X91980000Y-109900000D02*
X91980000Y-108900000D01*
X91980000Y-109900000D02*
X92980000Y-109900000D01*
G04 #@! TO.C,J17*
X91980000Y-114980000D02*
X92980000Y-114980000D01*
X91980000Y-114980000D02*
X91980000Y-113980000D01*
X97480000Y-111780000D02*
X95130000Y-111780000D01*
X97480000Y-112630000D02*
X97480000Y-111780000D01*
X97680000Y-112630000D02*
X97480000Y-112630000D01*
X97680000Y-113430000D02*
X97680000Y-112630000D01*
X97480000Y-113430000D02*
X97680000Y-113430000D01*
X97480000Y-114180000D02*
X97480000Y-113430000D01*
X95130000Y-114180000D02*
X97480000Y-114180000D01*
X92780000Y-111780000D02*
X95130000Y-111780000D01*
X92780000Y-112630000D02*
X92780000Y-111780000D01*
X92580000Y-112630000D02*
X92780000Y-112630000D01*
X92580000Y-113430000D02*
X92580000Y-112630000D01*
X92780000Y-113430000D02*
X92580000Y-113430000D01*
X92780000Y-114180000D02*
X92780000Y-113430000D01*
X95130000Y-114180000D02*
X92780000Y-114180000D01*
X97990000Y-111270000D02*
X92270000Y-111270000D01*
X97990000Y-114690000D02*
X97990000Y-111270000D01*
X92270000Y-114690000D02*
X97990000Y-114690000D01*
X92270000Y-111270000D02*
X92270000Y-114690000D01*
G04 #@! TO.C,RN1*
X104270000Y-100790000D02*
G75*
G02X106270000Y-100790000I1000000J0D01*
G01*
X106270000Y-100790000D02*
X107520000Y-100790000D01*
X107520000Y-100790000D02*
X107520000Y-75270000D01*
X107520000Y-75270000D02*
X103020000Y-75270000D01*
X103020000Y-75270000D02*
X103020000Y-100790000D01*
X103020000Y-100790000D02*
X104270000Y-100790000D01*
G04 #@! TO.C,RN2*
X117840000Y-103440000D02*
X120640000Y-103440000D01*
X120640000Y-103440000D02*
X120640000Y-75160000D01*
X120640000Y-75160000D02*
X117840000Y-75160000D01*
X117840000Y-75160000D02*
X117840000Y-103440000D01*
X117840000Y-100730000D02*
X120640000Y-100730000D01*
G04 #@! TO.C,U1*
X135580000Y-103970000D02*
X146080000Y-103970000D01*
X135580000Y-87860000D02*
X146080000Y-87860000D01*
X135580000Y-87860000D02*
X135580000Y-103970000D01*
X146080000Y-87860000D02*
X146080000Y-103970000D01*
X138290000Y-103970000D02*
X138290000Y-105930000D01*
X140830000Y-103970000D02*
X140830000Y-105930000D01*
X143370000Y-103970000D02*
X143370000Y-105930000D01*
G04 #@! TD*
M02*
